<?xml version="1.0" encoding="UTF-8" standalone="no"?>
<!-- This is a Stata 18.0 generated SVG file (http://www.stata.com) -->

<svg version="1.1" width="7.500in" height="4.500in" viewBox="0 0 5400 3240" xmlns="http://www.w3.org/2000/svg" xmlns:xlink="http://www.w3.org/1999/xlink">
	<desc>Stata Graph - Graph</desc>
	<rect x="0" y="0" width="5400" height="3240" style="fill:#FFFFFF;stroke:none"/>
	<rect x="0.00" y="0.00" width="5400.00" height="3240.00" style="fill:#FFFFFF"/>
	<rect x="3.24" y="3.24" width="5393.52" height="3233.52" style="fill:none;stroke:#FFFFFF;stroke-width:6.48"/>
	<rect x="557.72" y="113.40" width="2829.43" height="2653.26" style="fill:#FFFFFF"/>
	<rect x="560.96" y="116.64" width="2822.95" height="2646.78" style="fill:none;stroke:#FFFFFF;stroke-width:6.48"/>
	<line x1="557.72" y1="2766.66" x2="622.52" y2="2766.66" style="stroke:#F0F0F0;stroke-width:9.72"/>
	<line x1="654.92" y1="2766.66" x2="719.72" y2="2766.66" style="stroke:#F0F0F0;stroke-width:9.72"/>
	<line x1="752.12" y1="2766.66" x2="816.92" y2="2766.66" style="stroke:#F0F0F0;stroke-width:9.72"/>
	<line x1="849.32" y1="2766.66" x2="914.12" y2="2766.66" style="stroke:#F0F0F0;stroke-width:9.72"/>
	<line x1="946.52" y1="2766.66" x2="1011.32" y2="2766.66" style="stroke:#F0F0F0;stroke-width:9.72"/>
	<line x1="1043.72" y1="2766.66" x2="1108.52" y2="2766.66" style="stroke:#F0F0F0;stroke-width:9.72"/>
	<line x1="1140.92" y1="2766.66" x2="1205.72" y2="2766.66" style="stroke:#F0F0F0;stroke-width:9.72"/>
	<line x1="1238.12" y1="2766.66" x2="1302.92" y2="2766.66" style="stroke:#F0F0F0;stroke-width:9.72"/>
	<line x1="1335.32" y1="2766.66" x2="1400.12" y2="2766.66" style="stroke:#F0F0F0;stroke-width:9.72"/>
	<line x1="1432.52" y1="2766.66" x2="1497.32" y2="2766.66" style="stroke:#F0F0F0;stroke-width:9.72"/>
	<line x1="1529.72" y1="2766.66" x2="1594.52" y2="2766.66" style="stroke:#F0F0F0;stroke-width:9.72"/>
	<line x1="1626.92" y1="2766.66" x2="1691.72" y2="2766.66" style="stroke:#F0F0F0;stroke-width:9.72"/>
	<line x1="1724.12" y1="2766.66" x2="1788.92" y2="2766.66" style="stroke:#F0F0F0;stroke-width:9.72"/>
	<line x1="1821.32" y1="2766.66" x2="1886.12" y2="2766.66" style="stroke:#F0F0F0;stroke-width:9.72"/>
	<line x1="1918.52" y1="2766.66" x2="1983.32" y2="2766.66" style="stroke:#F0F0F0;stroke-width:9.72"/>
	<line x1="2015.72" y1="2766.66" x2="2080.52" y2="2766.66" style="stroke:#F0F0F0;stroke-width:9.72"/>
	<line x1="2112.92" y1="2766.66" x2="2177.72" y2="2766.66" style="stroke:#F0F0F0;stroke-width:9.72"/>
	<line x1="2210.12" y1="2766.66" x2="2274.92" y2="2766.66" style="stroke:#F0F0F0;stroke-width:9.72"/>
	<line x1="2307.32" y1="2766.66" x2="2372.12" y2="2766.66" style="stroke:#F0F0F0;stroke-width:9.72"/>
	<line x1="2404.52" y1="2766.66" x2="2469.32" y2="2766.66" style="stroke:#F0F0F0;stroke-width:9.72"/>
	<line x1="2501.72" y1="2766.66" x2="2566.52" y2="2766.66" style="stroke:#F0F0F0;stroke-width:9.72"/>
	<line x1="2598.92" y1="2766.66" x2="2663.72" y2="2766.66" style="stroke:#F0F0F0;stroke-width:9.72"/>
	<line x1="2696.12" y1="2766.66" x2="2760.92" y2="2766.66" style="stroke:#F0F0F0;stroke-width:9.72"/>
	<line x1="2793.32" y1="2766.66" x2="2858.12" y2="2766.66" style="stroke:#F0F0F0;stroke-width:9.72"/>
	<line x1="2890.52" y1="2766.66" x2="2955.32" y2="2766.66" style="stroke:#F0F0F0;stroke-width:9.72"/>
	<line x1="2987.72" y1="2766.66" x2="3052.52" y2="2766.66" style="stroke:#F0F0F0;stroke-width:9.72"/>
	<line x1="3084.92" y1="2766.66" x2="3149.72" y2="2766.66" style="stroke:#F0F0F0;stroke-width:9.72"/>
	<line x1="3182.12" y1="2766.66" x2="3246.92" y2="2766.66" style="stroke:#F0F0F0;stroke-width:9.72"/>
	<line x1="3279.32" y1="2766.66" x2="3344.12" y2="2766.66" style="stroke:#F0F0F0;stroke-width:9.72"/>
	<line x1="3376.52" y1="2766.66" x2="3387.15" y2="2766.66" style="stroke:#F0F0F0;stroke-width:9.72"/>
	<line x1="557.72" y1="2121.19" x2="622.52" y2="2121.19" style="stroke:#F0F0F0;stroke-width:9.72"/>
	<line x1="654.92" y1="2121.19" x2="719.72" y2="2121.19" style="stroke:#F0F0F0;stroke-width:9.72"/>
	<line x1="752.12" y1="2121.19" x2="816.92" y2="2121.19" style="stroke:#F0F0F0;stroke-width:9.72"/>
	<line x1="849.32" y1="2121.19" x2="914.12" y2="2121.19" style="stroke:#F0F0F0;stroke-width:9.72"/>
	<line x1="946.52" y1="2121.19" x2="1011.32" y2="2121.19" style="stroke:#F0F0F0;stroke-width:9.72"/>
	<line x1="1043.72" y1="2121.19" x2="1108.52" y2="2121.19" style="stroke:#F0F0F0;stroke-width:9.72"/>
	<line x1="1140.92" y1="2121.19" x2="1205.72" y2="2121.19" style="stroke:#F0F0F0;stroke-width:9.72"/>
	<line x1="1238.12" y1="2121.19" x2="1302.92" y2="2121.19" style="stroke:#F0F0F0;stroke-width:9.72"/>
	<line x1="1335.32" y1="2121.19" x2="1400.12" y2="2121.19" style="stroke:#F0F0F0;stroke-width:9.72"/>
	<line x1="1432.52" y1="2121.19" x2="1497.32" y2="2121.19" style="stroke:#F0F0F0;stroke-width:9.72"/>
	<line x1="1529.72" y1="2121.19" x2="1594.52" y2="2121.19" style="stroke:#F0F0F0;stroke-width:9.72"/>
	<line x1="1626.92" y1="2121.19" x2="1691.72" y2="2121.19" style="stroke:#F0F0F0;stroke-width:9.72"/>
	<line x1="1724.12" y1="2121.19" x2="1788.92" y2="2121.19" style="stroke:#F0F0F0;stroke-width:9.72"/>
	<line x1="1821.32" y1="2121.19" x2="1886.12" y2="2121.19" style="stroke:#F0F0F0;stroke-width:9.72"/>
	<line x1="1918.52" y1="2121.19" x2="1983.32" y2="2121.19" style="stroke:#F0F0F0;stroke-width:9.72"/>
	<line x1="2015.72" y1="2121.19" x2="2080.52" y2="2121.19" style="stroke:#F0F0F0;stroke-width:9.72"/>
	<line x1="2112.92" y1="2121.19" x2="2177.72" y2="2121.19" style="stroke:#F0F0F0;stroke-width:9.72"/>
	<line x1="2210.12" y1="2121.19" x2="2274.92" y2="2121.19" style="stroke:#F0F0F0;stroke-width:9.72"/>
	<line x1="2307.32" y1="2121.19" x2="2372.12" y2="2121.19" style="stroke:#F0F0F0;stroke-width:9.72"/>
	<line x1="2404.52" y1="2121.19" x2="2469.32" y2="2121.19" style="stroke:#F0F0F0;stroke-width:9.72"/>
	<line x1="2501.72" y1="2121.19" x2="2566.52" y2="2121.19" style="stroke:#F0F0F0;stroke-width:9.72"/>
	<line x1="2598.92" y1="2121.19" x2="2663.72" y2="2121.19" style="stroke:#F0F0F0;stroke-width:9.72"/>
	<line x1="2696.12" y1="2121.19" x2="2760.92" y2="2121.19" style="stroke:#F0F0F0;stroke-width:9.72"/>
	<line x1="2793.32" y1="2121.19" x2="2858.12" y2="2121.19" style="stroke:#F0F0F0;stroke-width:9.72"/>
	<line x1="2890.52" y1="2121.19" x2="2955.32" y2="2121.19" style="stroke:#F0F0F0;stroke-width:9.72"/>
	<line x1="2987.72" y1="2121.19" x2="3052.52" y2="2121.19" style="stroke:#F0F0F0;stroke-width:9.72"/>
	<line x1="3084.92" y1="2121.19" x2="3149.72" y2="2121.19" style="stroke:#F0F0F0;stroke-width:9.72"/>
	<line x1="3182.12" y1="2121.19" x2="3246.92" y2="2121.19" style="stroke:#F0F0F0;stroke-width:9.72"/>
	<line x1="3279.32" y1="2121.19" x2="3344.12" y2="2121.19" style="stroke:#F0F0F0;stroke-width:9.72"/>
	<line x1="3376.52" y1="2121.19" x2="3387.15" y2="2121.19" style="stroke:#F0F0F0;stroke-width:9.72"/>
	<line x1="557.72" y1="1475.72" x2="622.52" y2="1475.72" style="stroke:#F0F0F0;stroke-width:9.72"/>
	<line x1="654.92" y1="1475.72" x2="719.72" y2="1475.72" style="stroke:#F0F0F0;stroke-width:9.72"/>
	<line x1="752.12" y1="1475.72" x2="816.92" y2="1475.72" style="stroke:#F0F0F0;stroke-width:9.72"/>
	<line x1="849.32" y1="1475.72" x2="914.12" y2="1475.72" style="stroke:#F0F0F0;stroke-width:9.72"/>
	<line x1="946.52" y1="1475.72" x2="1011.32" y2="1475.72" style="stroke:#F0F0F0;stroke-width:9.72"/>
	<line x1="1043.72" y1="1475.72" x2="1108.52" y2="1475.72" style="stroke:#F0F0F0;stroke-width:9.72"/>
	<line x1="1140.92" y1="1475.72" x2="1205.72" y2="1475.72" style="stroke:#F0F0F0;stroke-width:9.72"/>
	<line x1="1238.12" y1="1475.72" x2="1302.92" y2="1475.72" style="stroke:#F0F0F0;stroke-width:9.72"/>
	<line x1="1335.32" y1="1475.72" x2="1400.12" y2="1475.72" style="stroke:#F0F0F0;stroke-width:9.72"/>
	<line x1="1432.52" y1="1475.72" x2="1497.32" y2="1475.72" style="stroke:#F0F0F0;stroke-width:9.72"/>
	<line x1="1529.72" y1="1475.72" x2="1594.52" y2="1475.72" style="stroke:#F0F0F0;stroke-width:9.72"/>
	<line x1="1626.92" y1="1475.72" x2="1691.72" y2="1475.72" style="stroke:#F0F0F0;stroke-width:9.72"/>
	<line x1="1724.12" y1="1475.72" x2="1788.92" y2="1475.72" style="stroke:#F0F0F0;stroke-width:9.72"/>
	<line x1="1821.32" y1="1475.72" x2="1886.12" y2="1475.72" style="stroke:#F0F0F0;stroke-width:9.72"/>
	<line x1="1918.52" y1="1475.72" x2="1983.32" y2="1475.72" style="stroke:#F0F0F0;stroke-width:9.72"/>
	<line x1="2015.72" y1="1475.72" x2="2080.52" y2="1475.72" style="stroke:#F0F0F0;stroke-width:9.72"/>
	<line x1="2112.92" y1="1475.72" x2="2177.72" y2="1475.72" style="stroke:#F0F0F0;stroke-width:9.72"/>
	<line x1="2210.12" y1="1475.72" x2="2274.92" y2="1475.72" style="stroke:#F0F0F0;stroke-width:9.72"/>
	<line x1="2307.32" y1="1475.72" x2="2372.12" y2="1475.72" style="stroke:#F0F0F0;stroke-width:9.72"/>
	<line x1="2404.52" y1="1475.72" x2="2469.32" y2="1475.72" style="stroke:#F0F0F0;stroke-width:9.72"/>
	<line x1="2501.72" y1="1475.72" x2="2566.52" y2="1475.72" style="stroke:#F0F0F0;stroke-width:9.72"/>
	<line x1="2598.92" y1="1475.72" x2="2663.72" y2="1475.72" style="stroke:#F0F0F0;stroke-width:9.72"/>
	<line x1="2696.12" y1="1475.72" x2="2760.92" y2="1475.72" style="stroke:#F0F0F0;stroke-width:9.72"/>
	<line x1="2793.32" y1="1475.72" x2="2858.12" y2="1475.72" style="stroke:#F0F0F0;stroke-width:9.72"/>
	<line x1="2890.52" y1="1475.72" x2="2955.32" y2="1475.72" style="stroke:#F0F0F0;stroke-width:9.72"/>
	<line x1="2987.72" y1="1475.72" x2="3052.52" y2="1475.72" style="stroke:#F0F0F0;stroke-width:9.72"/>
	<line x1="3084.92" y1="1475.72" x2="3149.72" y2="1475.72" style="stroke:#F0F0F0;stroke-width:9.72"/>
	<line x1="3182.12" y1="1475.72" x2="3246.92" y2="1475.72" style="stroke:#F0F0F0;stroke-width:9.72"/>
	<line x1="3279.32" y1="1475.72" x2="3344.12" y2="1475.72" style="stroke:#F0F0F0;stroke-width:9.72"/>
	<line x1="3376.52" y1="1475.72" x2="3387.15" y2="1475.72" style="stroke:#F0F0F0;stroke-width:9.72"/>
	<line x1="557.72" y1="830.08" x2="622.52" y2="830.08" style="stroke:#F0F0F0;stroke-width:9.72"/>
	<line x1="654.92" y1="830.08" x2="719.72" y2="830.08" style="stroke:#F0F0F0;stroke-width:9.72"/>
	<line x1="752.12" y1="830.08" x2="816.92" y2="830.08" style="stroke:#F0F0F0;stroke-width:9.72"/>
	<line x1="849.32" y1="830.08" x2="914.12" y2="830.08" style="stroke:#F0F0F0;stroke-width:9.72"/>
	<line x1="946.52" y1="830.08" x2="1011.32" y2="830.08" style="stroke:#F0F0F0;stroke-width:9.72"/>
	<line x1="1043.72" y1="830.08" x2="1108.52" y2="830.08" style="stroke:#F0F0F0;stroke-width:9.72"/>
	<line x1="1140.92" y1="830.08" x2="1205.72" y2="830.08" style="stroke:#F0F0F0;stroke-width:9.72"/>
	<line x1="1238.12" y1="830.08" x2="1302.92" y2="830.08" style="stroke:#F0F0F0;stroke-width:9.72"/>
	<line x1="1335.32" y1="830.08" x2="1400.12" y2="830.08" style="stroke:#F0F0F0;stroke-width:9.72"/>
	<line x1="1432.52" y1="830.08" x2="1497.32" y2="830.08" style="stroke:#F0F0F0;stroke-width:9.72"/>
	<line x1="1529.72" y1="830.08" x2="1594.52" y2="830.08" style="stroke:#F0F0F0;stroke-width:9.72"/>
	<line x1="1626.92" y1="830.08" x2="1691.72" y2="830.08" style="stroke:#F0F0F0;stroke-width:9.72"/>
	<line x1="1724.12" y1="830.08" x2="1788.92" y2="830.08" style="stroke:#F0F0F0;stroke-width:9.72"/>
	<line x1="1821.32" y1="830.08" x2="1886.12" y2="830.08" style="stroke:#F0F0F0;stroke-width:9.72"/>
	<line x1="1918.52" y1="830.08" x2="1983.32" y2="830.08" style="stroke:#F0F0F0;stroke-width:9.72"/>
	<line x1="2015.72" y1="830.08" x2="2080.52" y2="830.08" style="stroke:#F0F0F0;stroke-width:9.72"/>
	<line x1="2112.92" y1="830.08" x2="2177.72" y2="830.08" style="stroke:#F0F0F0;stroke-width:9.72"/>
	<line x1="2210.12" y1="830.08" x2="2274.92" y2="830.08" style="stroke:#F0F0F0;stroke-width:9.72"/>
	<line x1="2307.32" y1="830.08" x2="2372.12" y2="830.08" style="stroke:#F0F0F0;stroke-width:9.72"/>
	<line x1="2404.52" y1="830.08" x2="2469.32" y2="830.08" style="stroke:#F0F0F0;stroke-width:9.72"/>
	<line x1="2501.72" y1="830.08" x2="2566.52" y2="830.08" style="stroke:#F0F0F0;stroke-width:9.72"/>
	<line x1="2598.92" y1="830.08" x2="2663.72" y2="830.08" style="stroke:#F0F0F0;stroke-width:9.72"/>
	<line x1="2696.12" y1="830.08" x2="2760.92" y2="830.08" style="stroke:#F0F0F0;stroke-width:9.72"/>
	<line x1="2793.32" y1="830.08" x2="2858.12" y2="830.08" style="stroke:#F0F0F0;stroke-width:9.72"/>
	<line x1="2890.52" y1="830.08" x2="2955.32" y2="830.08" style="stroke:#F0F0F0;stroke-width:9.72"/>
	<line x1="2987.72" y1="830.08" x2="3052.52" y2="830.08" style="stroke:#F0F0F0;stroke-width:9.72"/>
	<line x1="3084.92" y1="830.08" x2="3149.72" y2="830.08" style="stroke:#F0F0F0;stroke-width:9.72"/>
	<line x1="3182.12" y1="830.08" x2="3246.92" y2="830.08" style="stroke:#F0F0F0;stroke-width:9.72"/>
	<line x1="3279.32" y1="830.08" x2="3344.12" y2="830.08" style="stroke:#F0F0F0;stroke-width:9.72"/>
	<line x1="3376.52" y1="830.08" x2="3387.15" y2="830.08" style="stroke:#F0F0F0;stroke-width:9.72"/>
	<line x1="557.72" y1="184.61" x2="622.52" y2="184.61" style="stroke:#F0F0F0;stroke-width:9.72"/>
	<line x1="654.92" y1="184.61" x2="719.72" y2="184.61" style="stroke:#F0F0F0;stroke-width:9.72"/>
	<line x1="752.12" y1="184.61" x2="816.92" y2="184.61" style="stroke:#F0F0F0;stroke-width:9.72"/>
	<line x1="849.32" y1="184.61" x2="914.12" y2="184.61" style="stroke:#F0F0F0;stroke-width:9.72"/>
	<line x1="946.52" y1="184.61" x2="1011.32" y2="184.61" style="stroke:#F0F0F0;stroke-width:9.72"/>
	<line x1="1043.72" y1="184.61" x2="1108.52" y2="184.61" style="stroke:#F0F0F0;stroke-width:9.72"/>
	<line x1="1140.92" y1="184.61" x2="1205.72" y2="184.61" style="stroke:#F0F0F0;stroke-width:9.72"/>
	<line x1="1238.12" y1="184.61" x2="1302.92" y2="184.61" style="stroke:#F0F0F0;stroke-width:9.72"/>
	<line x1="1335.32" y1="184.61" x2="1400.12" y2="184.61" style="stroke:#F0F0F0;stroke-width:9.72"/>
	<line x1="1432.52" y1="184.61" x2="1497.32" y2="184.61" style="stroke:#F0F0F0;stroke-width:9.72"/>
	<line x1="1529.72" y1="184.61" x2="1594.52" y2="184.61" style="stroke:#F0F0F0;stroke-width:9.72"/>
	<line x1="1626.92" y1="184.61" x2="1691.72" y2="184.61" style="stroke:#F0F0F0;stroke-width:9.72"/>
	<line x1="1724.12" y1="184.61" x2="1788.92" y2="184.61" style="stroke:#F0F0F0;stroke-width:9.72"/>
	<line x1="1821.32" y1="184.61" x2="1886.12" y2="184.61" style="stroke:#F0F0F0;stroke-width:9.72"/>
	<line x1="1918.52" y1="184.61" x2="1983.32" y2="184.61" style="stroke:#F0F0F0;stroke-width:9.72"/>
	<line x1="2015.72" y1="184.61" x2="2080.52" y2="184.61" style="stroke:#F0F0F0;stroke-width:9.72"/>
	<line x1="2112.92" y1="184.61" x2="2177.72" y2="184.61" style="stroke:#F0F0F0;stroke-width:9.72"/>
	<line x1="2210.12" y1="184.61" x2="2274.92" y2="184.61" style="stroke:#F0F0F0;stroke-width:9.72"/>
	<line x1="2307.32" y1="184.61" x2="2372.12" y2="184.61" style="stroke:#F0F0F0;stroke-width:9.72"/>
	<line x1="2404.52" y1="184.61" x2="2469.32" y2="184.61" style="stroke:#F0F0F0;stroke-width:9.72"/>
	<line x1="2501.72" y1="184.61" x2="2566.52" y2="184.61" style="stroke:#F0F0F0;stroke-width:9.72"/>
	<line x1="2598.92" y1="184.61" x2="2663.72" y2="184.61" style="stroke:#F0F0F0;stroke-width:9.72"/>
	<line x1="2696.12" y1="184.61" x2="2760.92" y2="184.61" style="stroke:#F0F0F0;stroke-width:9.72"/>
	<line x1="2793.32" y1="184.61" x2="2858.12" y2="184.61" style="stroke:#F0F0F0;stroke-width:9.72"/>
	<line x1="2890.52" y1="184.61" x2="2955.32" y2="184.61" style="stroke:#F0F0F0;stroke-width:9.72"/>
	<line x1="2987.72" y1="184.61" x2="3052.52" y2="184.61" style="stroke:#F0F0F0;stroke-width:9.72"/>
	<line x1="3084.92" y1="184.61" x2="3149.72" y2="184.61" style="stroke:#F0F0F0;stroke-width:9.72"/>
	<line x1="3182.12" y1="184.61" x2="3246.92" y2="184.61" style="stroke:#F0F0F0;stroke-width:9.72"/>
	<line x1="3279.32" y1="184.61" x2="3344.12" y2="184.61" style="stroke:#F0F0F0;stroke-width:9.72"/>
	<line x1="3376.52" y1="184.61" x2="3387.15" y2="184.61" style="stroke:#F0F0F0;stroke-width:9.72"/>
	<line x1="629.10" y1="2766.66" x2="629.10" y2="2701.86" style="stroke:#F0F0F0;stroke-width:9.72"/>
	<line x1="629.10" y1="2669.46" x2="629.10" y2="2604.66" style="stroke:#F0F0F0;stroke-width:9.72"/>
	<line x1="629.10" y1="2572.26" x2="629.10" y2="2507.46" style="stroke:#F0F0F0;stroke-width:9.72"/>
	<line x1="629.10" y1="2475.06" x2="629.10" y2="2410.26" style="stroke:#F0F0F0;stroke-width:9.72"/>
	<line x1="629.10" y1="2377.86" x2="629.10" y2="2313.06" style="stroke:#F0F0F0;stroke-width:9.72"/>
	<line x1="629.10" y1="2280.66" x2="629.10" y2="2215.86" style="stroke:#F0F0F0;stroke-width:9.72"/>
	<line x1="629.10" y1="2183.46" x2="629.10" y2="2118.66" style="stroke:#F0F0F0;stroke-width:9.72"/>
	<line x1="629.10" y1="2086.26" x2="629.10" y2="2021.46" style="stroke:#F0F0F0;stroke-width:9.72"/>
	<line x1="629.10" y1="1989.06" x2="629.10" y2="1924.26" style="stroke:#F0F0F0;stroke-width:9.72"/>
	<line x1="629.10" y1="1891.86" x2="629.10" y2="1827.06" style="stroke:#F0F0F0;stroke-width:9.72"/>
	<line x1="629.10" y1="1794.66" x2="629.10" y2="1729.86" style="stroke:#F0F0F0;stroke-width:9.72"/>
	<line x1="629.10" y1="1697.46" x2="629.10" y2="1632.66" style="stroke:#F0F0F0;stroke-width:9.72"/>
	<line x1="629.10" y1="1600.26" x2="629.10" y2="1535.46" style="stroke:#F0F0F0;stroke-width:9.72"/>
	<line x1="629.10" y1="1503.06" x2="629.10" y2="1438.26" style="stroke:#F0F0F0;stroke-width:9.72"/>
	<line x1="629.10" y1="1405.86" x2="629.10" y2="1341.06" style="stroke:#F0F0F0;stroke-width:9.72"/>
	<line x1="629.10" y1="1308.66" x2="629.10" y2="1243.86" style="stroke:#F0F0F0;stroke-width:9.72"/>
	<line x1="629.10" y1="1211.46" x2="629.10" y2="1146.66" style="stroke:#F0F0F0;stroke-width:9.72"/>
	<line x1="629.10" y1="1114.26" x2="629.10" y2="1049.46" style="stroke:#F0F0F0;stroke-width:9.72"/>
	<line x1="629.10" y1="1017.06" x2="629.10" y2="952.26" style="stroke:#F0F0F0;stroke-width:9.72"/>
	<line x1="629.10" y1="919.86" x2="629.10" y2="855.06" style="stroke:#F0F0F0;stroke-width:9.72"/>
	<line x1="629.10" y1="822.66" x2="629.10" y2="757.86" style="stroke:#F0F0F0;stroke-width:9.72"/>
	<line x1="629.10" y1="725.46" x2="629.10" y2="660.66" style="stroke:#F0F0F0;stroke-width:9.72"/>
	<line x1="629.10" y1="628.26" x2="629.10" y2="563.46" style="stroke:#F0F0F0;stroke-width:9.72"/>
	<line x1="629.10" y1="531.06" x2="629.10" y2="466.26" style="stroke:#F0F0F0;stroke-width:9.72"/>
	<line x1="629.10" y1="433.86" x2="629.10" y2="369.06" style="stroke:#F0F0F0;stroke-width:9.72"/>
	<line x1="629.10" y1="336.66" x2="629.10" y2="271.86" style="stroke:#F0F0F0;stroke-width:9.72"/>
	<line x1="629.10" y1="239.46" x2="629.10" y2="174.66" style="stroke:#F0F0F0;stroke-width:9.72"/>
	<line x1="629.10" y1="142.26" x2="629.10" y2="113.40" style="stroke:#F0F0F0;stroke-width:9.72"/>
	<line x1="1300.72" y1="2766.66" x2="1300.72" y2="2701.86" style="stroke:#F0F0F0;stroke-width:9.72"/>
	<line x1="1300.72" y1="2669.46" x2="1300.72" y2="2604.66" style="stroke:#F0F0F0;stroke-width:9.72"/>
	<line x1="1300.72" y1="2572.26" x2="1300.72" y2="2507.46" style="stroke:#F0F0F0;stroke-width:9.72"/>
	<line x1="1300.72" y1="2475.06" x2="1300.72" y2="2410.26" style="stroke:#F0F0F0;stroke-width:9.72"/>
	<line x1="1300.72" y1="2377.86" x2="1300.72" y2="2313.06" style="stroke:#F0F0F0;stroke-width:9.72"/>
	<line x1="1300.72" y1="2280.66" x2="1300.72" y2="2215.86" style="stroke:#F0F0F0;stroke-width:9.72"/>
	<line x1="1300.72" y1="2183.46" x2="1300.72" y2="2118.66" style="stroke:#F0F0F0;stroke-width:9.72"/>
	<line x1="1300.72" y1="2086.26" x2="1300.72" y2="2021.46" style="stroke:#F0F0F0;stroke-width:9.72"/>
	<line x1="1300.72" y1="1989.06" x2="1300.72" y2="1924.26" style="stroke:#F0F0F0;stroke-width:9.72"/>
	<line x1="1300.72" y1="1891.86" x2="1300.72" y2="1827.06" style="stroke:#F0F0F0;stroke-width:9.72"/>
	<line x1="1300.72" y1="1794.66" x2="1300.72" y2="1729.86" style="stroke:#F0F0F0;stroke-width:9.72"/>
	<line x1="1300.72" y1="1697.46" x2="1300.72" y2="1632.66" style="stroke:#F0F0F0;stroke-width:9.72"/>
	<line x1="1300.72" y1="1600.26" x2="1300.72" y2="1535.46" style="stroke:#F0F0F0;stroke-width:9.72"/>
	<line x1="1300.72" y1="1503.06" x2="1300.72" y2="1438.26" style="stroke:#F0F0F0;stroke-width:9.72"/>
	<line x1="1300.72" y1="1405.86" x2="1300.72" y2="1341.06" style="stroke:#F0F0F0;stroke-width:9.72"/>
	<line x1="1300.72" y1="1308.66" x2="1300.72" y2="1243.86" style="stroke:#F0F0F0;stroke-width:9.72"/>
	<line x1="1300.72" y1="1211.46" x2="1300.72" y2="1146.66" style="stroke:#F0F0F0;stroke-width:9.72"/>
	<line x1="1300.72" y1="1114.26" x2="1300.72" y2="1049.46" style="stroke:#F0F0F0;stroke-width:9.72"/>
	<line x1="1300.72" y1="1017.06" x2="1300.72" y2="952.26" style="stroke:#F0F0F0;stroke-width:9.72"/>
	<line x1="1300.72" y1="919.86" x2="1300.72" y2="855.06" style="stroke:#F0F0F0;stroke-width:9.72"/>
	<line x1="1300.72" y1="822.66" x2="1300.72" y2="757.86" style="stroke:#F0F0F0;stroke-width:9.72"/>
	<line x1="1300.72" y1="725.46" x2="1300.72" y2="660.66" style="stroke:#F0F0F0;stroke-width:9.72"/>
	<line x1="1300.72" y1="628.26" x2="1300.72" y2="563.46" style="stroke:#F0F0F0;stroke-width:9.72"/>
	<line x1="1300.72" y1="531.06" x2="1300.72" y2="466.26" style="stroke:#F0F0F0;stroke-width:9.72"/>
	<line x1="1300.72" y1="433.86" x2="1300.72" y2="369.06" style="stroke:#F0F0F0;stroke-width:9.72"/>
	<line x1="1300.72" y1="336.66" x2="1300.72" y2="271.86" style="stroke:#F0F0F0;stroke-width:9.72"/>
	<line x1="1300.72" y1="239.46" x2="1300.72" y2="174.66" style="stroke:#F0F0F0;stroke-width:9.72"/>
	<line x1="1300.72" y1="142.26" x2="1300.72" y2="113.40" style="stroke:#F0F0F0;stroke-width:9.72"/>
	<line x1="1972.52" y1="2766.66" x2="1972.52" y2="2701.86" style="stroke:#F0F0F0;stroke-width:9.72"/>
	<line x1="1972.52" y1="2669.46" x2="1972.52" y2="2604.66" style="stroke:#F0F0F0;stroke-width:9.72"/>
	<line x1="1972.52" y1="2572.26" x2="1972.52" y2="2507.46" style="stroke:#F0F0F0;stroke-width:9.72"/>
	<line x1="1972.52" y1="2475.06" x2="1972.52" y2="2410.26" style="stroke:#F0F0F0;stroke-width:9.72"/>
	<line x1="1972.52" y1="2377.86" x2="1972.52" y2="2313.06" style="stroke:#F0F0F0;stroke-width:9.72"/>
	<line x1="1972.52" y1="2280.66" x2="1972.52" y2="2215.86" style="stroke:#F0F0F0;stroke-width:9.72"/>
	<line x1="1972.52" y1="2183.46" x2="1972.52" y2="2118.66" style="stroke:#F0F0F0;stroke-width:9.72"/>
	<line x1="1972.52" y1="2086.26" x2="1972.52" y2="2021.46" style="stroke:#F0F0F0;stroke-width:9.72"/>
	<line x1="1972.52" y1="1989.06" x2="1972.52" y2="1924.26" style="stroke:#F0F0F0;stroke-width:9.72"/>
	<line x1="1972.52" y1="1891.86" x2="1972.52" y2="1827.06" style="stroke:#F0F0F0;stroke-width:9.72"/>
	<line x1="1972.52" y1="1794.66" x2="1972.52" y2="1729.86" style="stroke:#F0F0F0;stroke-width:9.72"/>
	<line x1="1972.52" y1="1697.46" x2="1972.52" y2="1632.66" style="stroke:#F0F0F0;stroke-width:9.72"/>
	<line x1="1972.52" y1="1600.26" x2="1972.52" y2="1535.46" style="stroke:#F0F0F0;stroke-width:9.72"/>
	<line x1="1972.52" y1="1503.06" x2="1972.52" y2="1438.26" style="stroke:#F0F0F0;stroke-width:9.72"/>
	<line x1="1972.52" y1="1405.86" x2="1972.52" y2="1341.06" style="stroke:#F0F0F0;stroke-width:9.72"/>
	<line x1="1972.52" y1="1308.66" x2="1972.52" y2="1243.86" style="stroke:#F0F0F0;stroke-width:9.72"/>
	<line x1="1972.52" y1="1211.46" x2="1972.52" y2="1146.66" style="stroke:#F0F0F0;stroke-width:9.72"/>
	<line x1="1972.52" y1="1114.26" x2="1972.52" y2="1049.46" style="stroke:#F0F0F0;stroke-width:9.72"/>
	<line x1="1972.52" y1="1017.06" x2="1972.52" y2="952.26" style="stroke:#F0F0F0;stroke-width:9.72"/>
	<line x1="1972.52" y1="919.86" x2="1972.52" y2="855.06" style="stroke:#F0F0F0;stroke-width:9.72"/>
	<line x1="1972.52" y1="822.66" x2="1972.52" y2="757.86" style="stroke:#F0F0F0;stroke-width:9.72"/>
	<line x1="1972.52" y1="725.46" x2="1972.52" y2="660.66" style="stroke:#F0F0F0;stroke-width:9.72"/>
	<line x1="1972.52" y1="628.26" x2="1972.52" y2="563.46" style="stroke:#F0F0F0;stroke-width:9.72"/>
	<line x1="1972.52" y1="531.06" x2="1972.52" y2="466.26" style="stroke:#F0F0F0;stroke-width:9.72"/>
	<line x1="1972.52" y1="433.86" x2="1972.52" y2="369.06" style="stroke:#F0F0F0;stroke-width:9.72"/>
	<line x1="1972.52" y1="336.66" x2="1972.52" y2="271.86" style="stroke:#F0F0F0;stroke-width:9.72"/>
	<line x1="1972.52" y1="239.46" x2="1972.52" y2="174.66" style="stroke:#F0F0F0;stroke-width:9.72"/>
	<line x1="1972.52" y1="142.26" x2="1972.52" y2="113.40" style="stroke:#F0F0F0;stroke-width:9.72"/>
	<line x1="2644.14" y1="2766.66" x2="2644.14" y2="2701.86" style="stroke:#F0F0F0;stroke-width:9.72"/>
	<line x1="2644.14" y1="2669.46" x2="2644.14" y2="2604.66" style="stroke:#F0F0F0;stroke-width:9.72"/>
	<line x1="2644.14" y1="2572.26" x2="2644.14" y2="2507.46" style="stroke:#F0F0F0;stroke-width:9.72"/>
	<line x1="2644.14" y1="2475.06" x2="2644.14" y2="2410.26" style="stroke:#F0F0F0;stroke-width:9.72"/>
	<line x1="2644.14" y1="2377.86" x2="2644.14" y2="2313.06" style="stroke:#F0F0F0;stroke-width:9.72"/>
	<line x1="2644.14" y1="2280.66" x2="2644.14" y2="2215.86" style="stroke:#F0F0F0;stroke-width:9.72"/>
	<line x1="2644.14" y1="2183.46" x2="2644.14" y2="2118.66" style="stroke:#F0F0F0;stroke-width:9.72"/>
	<line x1="2644.14" y1="2086.26" x2="2644.14" y2="2021.46" style="stroke:#F0F0F0;stroke-width:9.72"/>
	<line x1="2644.14" y1="1989.06" x2="2644.14" y2="1924.26" style="stroke:#F0F0F0;stroke-width:9.72"/>
	<line x1="2644.14" y1="1891.86" x2="2644.14" y2="1827.06" style="stroke:#F0F0F0;stroke-width:9.72"/>
	<line x1="2644.14" y1="1794.66" x2="2644.14" y2="1729.86" style="stroke:#F0F0F0;stroke-width:9.72"/>
	<line x1="2644.14" y1="1697.46" x2="2644.14" y2="1632.66" style="stroke:#F0F0F0;stroke-width:9.72"/>
	<line x1="2644.14" y1="1600.26" x2="2644.14" y2="1535.46" style="stroke:#F0F0F0;stroke-width:9.72"/>
	<line x1="2644.14" y1="1503.06" x2="2644.14" y2="1438.26" style="stroke:#F0F0F0;stroke-width:9.72"/>
	<line x1="2644.14" y1="1405.86" x2="2644.14" y2="1341.06" style="stroke:#F0F0F0;stroke-width:9.72"/>
	<line x1="2644.14" y1="1308.66" x2="2644.14" y2="1243.86" style="stroke:#F0F0F0;stroke-width:9.72"/>
	<line x1="2644.14" y1="1211.46" x2="2644.14" y2="1146.66" style="stroke:#F0F0F0;stroke-width:9.72"/>
	<line x1="2644.14" y1="1114.26" x2="2644.14" y2="1049.46" style="stroke:#F0F0F0;stroke-width:9.72"/>
	<line x1="2644.14" y1="1017.06" x2="2644.14" y2="952.26" style="stroke:#F0F0F0;stroke-width:9.72"/>
	<line x1="2644.14" y1="919.86" x2="2644.14" y2="855.06" style="stroke:#F0F0F0;stroke-width:9.72"/>
	<line x1="2644.14" y1="822.66" x2="2644.14" y2="757.86" style="stroke:#F0F0F0;stroke-width:9.72"/>
	<line x1="2644.14" y1="725.46" x2="2644.14" y2="660.66" style="stroke:#F0F0F0;stroke-width:9.72"/>
	<line x1="2644.14" y1="628.26" x2="2644.14" y2="563.46" style="stroke:#F0F0F0;stroke-width:9.72"/>
	<line x1="2644.14" y1="531.06" x2="2644.14" y2="466.26" style="stroke:#F0F0F0;stroke-width:9.72"/>
	<line x1="2644.14" y1="433.86" x2="2644.14" y2="369.06" style="stroke:#F0F0F0;stroke-width:9.72"/>
	<line x1="2644.14" y1="336.66" x2="2644.14" y2="271.86" style="stroke:#F0F0F0;stroke-width:9.72"/>
	<line x1="2644.14" y1="239.46" x2="2644.14" y2="174.66" style="stroke:#F0F0F0;stroke-width:9.72"/>
	<line x1="2644.14" y1="142.26" x2="2644.14" y2="113.40" style="stroke:#F0F0F0;stroke-width:9.72"/>
	<line x1="3315.94" y1="2766.66" x2="3315.94" y2="2701.86" style="stroke:#F0F0F0;stroke-width:9.72"/>
	<line x1="3315.94" y1="2669.46" x2="3315.94" y2="2604.66" style="stroke:#F0F0F0;stroke-width:9.72"/>
	<line x1="3315.94" y1="2572.26" x2="3315.94" y2="2507.46" style="stroke:#F0F0F0;stroke-width:9.72"/>
	<line x1="3315.94" y1="2475.06" x2="3315.94" y2="2410.26" style="stroke:#F0F0F0;stroke-width:9.72"/>
	<line x1="3315.94" y1="2377.86" x2="3315.94" y2="2313.06" style="stroke:#F0F0F0;stroke-width:9.72"/>
	<line x1="3315.94" y1="2280.66" x2="3315.94" y2="2215.86" style="stroke:#F0F0F0;stroke-width:9.72"/>
	<line x1="3315.94" y1="2183.46" x2="3315.94" y2="2118.66" style="stroke:#F0F0F0;stroke-width:9.72"/>
	<line x1="3315.94" y1="2086.26" x2="3315.94" y2="2021.46" style="stroke:#F0F0F0;stroke-width:9.72"/>
	<line x1="3315.94" y1="1989.06" x2="3315.94" y2="1924.26" style="stroke:#F0F0F0;stroke-width:9.72"/>
	<line x1="3315.94" y1="1891.86" x2="3315.94" y2="1827.06" style="stroke:#F0F0F0;stroke-width:9.72"/>
	<line x1="3315.94" y1="1794.66" x2="3315.94" y2="1729.86" style="stroke:#F0F0F0;stroke-width:9.72"/>
	<line x1="3315.94" y1="1697.46" x2="3315.94" y2="1632.66" style="stroke:#F0F0F0;stroke-width:9.72"/>
	<line x1="3315.94" y1="1600.26" x2="3315.94" y2="1535.46" style="stroke:#F0F0F0;stroke-width:9.72"/>
	<line x1="3315.94" y1="1503.06" x2="3315.94" y2="1438.26" style="stroke:#F0F0F0;stroke-width:9.72"/>
	<line x1="3315.94" y1="1405.86" x2="3315.94" y2="1341.06" style="stroke:#F0F0F0;stroke-width:9.72"/>
	<line x1="3315.94" y1="1308.66" x2="3315.94" y2="1243.86" style="stroke:#F0F0F0;stroke-width:9.72"/>
	<line x1="3315.94" y1="1211.46" x2="3315.94" y2="1146.66" style="stroke:#F0F0F0;stroke-width:9.72"/>
	<line x1="3315.94" y1="1114.26" x2="3315.94" y2="1049.46" style="stroke:#F0F0F0;stroke-width:9.72"/>
	<line x1="3315.94" y1="1017.06" x2="3315.94" y2="952.26" style="stroke:#F0F0F0;stroke-width:9.72"/>
	<line x1="3315.94" y1="919.86" x2="3315.94" y2="855.06" style="stroke:#F0F0F0;stroke-width:9.72"/>
	<line x1="3315.94" y1="822.66" x2="3315.94" y2="757.86" style="stroke:#F0F0F0;stroke-width:9.72"/>
	<line x1="3315.94" y1="725.46" x2="3315.94" y2="660.66" style="stroke:#F0F0F0;stroke-width:9.72"/>
	<line x1="3315.94" y1="628.26" x2="3315.94" y2="563.46" style="stroke:#F0F0F0;stroke-width:9.72"/>
	<line x1="3315.94" y1="531.06" x2="3315.94" y2="466.26" style="stroke:#F0F0F0;stroke-width:9.72"/>
	<line x1="3315.94" y1="433.86" x2="3315.94" y2="369.06" style="stroke:#F0F0F0;stroke-width:9.72"/>
	<line x1="3315.94" y1="336.66" x2="3315.94" y2="271.86" style="stroke:#F0F0F0;stroke-width:9.72"/>
	<line x1="3315.94" y1="239.46" x2="3315.94" y2="174.66" style="stroke:#F0F0F0;stroke-width:9.72"/>
	<line x1="3315.94" y1="142.26" x2="3315.94" y2="113.40" style="stroke:#F0F0F0;stroke-width:9.72"/>
	<rect x="1334.31" y="934.54" width="394.37" height="1832.12" style="fill:#FF8C19;fill-opacity:0.40"/>
	<rect x="1336.74" y="936.97" width="389.51" height="1827.26" style="fill:none;stroke:#5FAAFF;stroke-width:4.86"/>
	<rect x="1728.68" y="384.75" width="394.54" height="2381.91" style="fill:#FF8C19;fill-opacity:0.40"/>
	<rect x="1731.11" y="387.18" width="389.68" height="2377.05" style="fill:none;stroke:#5FAAFF;stroke-width:4.86"/>
	<rect x="2123.21" y="1850.51" width="394.37" height="916.14" style="fill:#FF8C19;fill-opacity:0.40"/>
	<rect x="2125.64" y="1852.94" width="389.51" height="911.28" style="fill:none;stroke:#5FAAFF;stroke-width:4.86"/>
	<rect x="2517.58" y="2583.39" width="394.37" height="183.26" style="fill:#FF8C19;fill-opacity:0.40"/>
	<rect x="2520.01" y="2585.82" width="389.51" height="178.40" style="fill:none;stroke:#5FAAFF;stroke-width:4.86"/>
	<rect x="2911.95" y="2583.39" width="394.37" height="183.26" style="fill:#FF8C19;fill-opacity:0.40"/>
	<rect x="2914.38" y="2585.82" width="389.51" height="178.40" style="fill:none;stroke:#5FAAFF;stroke-width:4.86"/>
	<path d=" M1334.31 2030.57 L1340.89 2015.04 L1347.47 1999.35 L1354.05 1983.32 L1360.63 1967.46 L1367.21 1951.26 L1373.79 1934.89 L1380.38 1918.52 L1386.96 1901.81 L1393.54 1885.11 L1400.12 1868.40 L1406.87 1851.36 L1413.45 1834.31 L1420.03 1817.27 L1426.61 1800.06 L1433.19 1782.68 L1439.78 1765.29 L1446.36 1747.74 L1452.94 1730.19 L1459.52 1712.48 L1466.10 1694.76 L1472.68 1677.04 L1479.26 1659.32 L1486.01 1641.43 L1492.59 1623.54 L1499.18 1605.66 L1505.76 1587.77 L1512.34 1569.88 L1518.92 1551.99 L1525.50 1534.11 L1532.08 1516.22 L1538.66 1498.33 L1545.24 1480.61 L1551.83 1462.73 L1558.58 1445.01 L1565.16 1427.46 L1571.74 1409.91 L1578.32 1392.36 L1584.90 1374.81 L1591.48 1357.59 L1598.06 1340.38 L1604.64 1323.17 L1611.23 1306.29 L1617.81 1289.42 L1624.39 1272.71 L1630.97 1256.18 L1637.72 1239.81 L1644.30 1223.44 L1650.88 1207.41 L1657.46 1191.54 L1664.04 1176.02 L1670.63 1160.49 L1677.21 1145.31 L1683.79 1130.29 L1690.37 1115.44 L1696.95 1100.93 L1703.53 1086.58 L1710.11 1072.57 L1716.86 1058.74 L1723.44 1045.24 L1730.03 1032.07 L1736.61 1019.25 L1743.19 1006.59 L1749.77 994.28 L1756.35 982.29 L1762.93 970.65 L1769.51 959.18 L1776.09 948.21 L1782.68 937.57 L1789.26 927.28 L1796.01 917.32 L1802.59 907.71 L1809.17 898.59 L1815.75 889.65 L1822.33 881.21 L1828.91 873.28 L1835.49 865.52 L1842.08 858.26 L1848.66 851.34 L1855.24 844.93 L1861.82 838.86 L1868.40 833.29 L1875.15 828.06 L1881.73 823.33 L1888.31 818.94 L1894.89 815.06 L1901.48 811.52 L1908.06 808.48 L1914.64 805.78 L1921.22 803.59 L1927.80 801.90 L1934.38 800.55 L1940.96 799.71 L1947.71 799.20 L1954.29 799.20 L1960.88 799.71 L1967.46 800.72 L1974.04 802.07 L1980.62 803.76 L1987.20 805.95 L1993.78 808.65 L2000.36 811.86 L2006.94 815.40 L2013.53 819.28 L2020.11 823.67 L2026.86 828.56 L2033.44 833.79 L2040.02 839.36 L2046.60 845.61 L2053.18 852.02 L2059.76 858.94 L2066.34 866.19 L2072.93 873.96 L2079.51 882.06 L2086.09 890.49 L2092.67 899.44 L2099.25 908.72 L2106.00 918.34 L2112.58 928.29 L2119.16 938.59 L2125.74 949.22 L2132.32 960.36 L2138.91 971.66 L2145.49 983.31 L2152.07 995.46 L2158.65 1007.78 L2165.23 1020.43 L2171.81 1033.26 L2178.39 1046.59 L2185.14 1060.09 L2191.73 1073.93 L2198.31 1087.93 L2204.89 1102.28 L2211.47 1116.79 L2218.05 1131.64 L2224.63 1146.66 L2231.21 1161.84 L2237.79 1177.37 L2244.38 1193.06 L2250.96 1208.93 L2257.54 1224.96 L2264.29 1241.33 L2270.87 1257.69 L2277.45 1274.23 L2284.03 1290.94 L2290.61 1307.81 L2297.19 1324.86 L2303.78 1341.90 L2310.36 1359.11 L2316.94 1376.49 L2323.52 1393.88 L2330.10 1411.43 L2336.85 1428.98 L2343.43 1446.69 L2350.01 1464.41 L2356.59 1482.13 L2363.18 1500.02 L2369.76 1517.91 L2376.34 1535.79 L2382.92 1553.68 L2389.50 1571.57 L2396.08 1589.46 L2402.66 1607.34 L2409.24 1625.23 L2415.99 1643.12 L2422.57 1661.01 L2429.16 1678.73 L2435.74 1696.44 L2442.32 1714.16 L2448.90 1731.71 L2455.48 1749.43 L2462.06 1766.81 L2468.64 1784.19 L2475.23 1801.58 L2481.81 1818.79 L2488.39 1836.00 L2495.14 1853.04 L2501.72 1869.92 L2508.30 1886.79 L2514.88 1903.50 L2521.46 1920.04 L2528.04 1936.41 L2534.63 1952.78 L2541.21 1968.81 L2547.79 1984.84 L2554.37 2000.70 L2560.95 2016.39 L2567.53 2032.09 L2574.28 2047.44 L2580.86 2062.63 L2587.44 2077.65 L2594.03 2092.50 L2600.61 2107.35 L2607.19 2121.86 L2613.77 2136.21 L2620.35 2150.38 L2626.93 2164.39 L2633.51 2178.23 L2640.09 2191.89 L2646.68 2205.23 L2653.43 2218.56 L2660.01 2231.55 L2666.59 2244.38 L2673.17 2257.03 L2679.75 2269.52 L2686.33 2281.84 L2692.91 2293.82 L2699.49 2305.80 L2706.08 2317.44 L2712.66 2328.92 L2719.24 2340.23 L2725.99 2351.36 L2732.57 2362.16 L2739.15 2372.96 L2745.73 2383.43 L2752.31 2393.72 L2758.89 2403.84 L2765.48 2413.80 L2772.06 2423.42 L2778.64 2433.04 L2785.22 2442.32 L2791.80 2451.43 L2798.38 2460.38 L2805.13 2469.15 L2811.71 2477.76 L2818.29 2486.19 L2824.88 2494.46 L2831.46 2502.39 L2838.04 2510.32 L2844.62 2517.92 L2851.20 2525.51 L2857.78 2532.77 L2864.36 2540.03 L2870.94 2546.94 L2877.53 2553.69 L2884.28 2560.44 L2890.86 2566.86 L2897.44 2573.27 L2904.02 2579.34 L2910.60 2585.42 L2917.18 2591.32 L2923.76 2597.06 L2930.34 2602.63 L2936.93 2608.03 L2943.51 2613.26 L2950.09 2618.32 L2956.67 2623.39 L2963.42 2628.28 L2970.00 2633.01 L2976.58 2637.56 L2983.16 2641.95 L2989.74 2646.34 L2996.33 2650.56 L3002.91 2654.61 L3009.49 2658.66 L3016.07 2662.37 L3022.65 2666.25 L3029.23 2669.79 L3035.81 2673.34 L3042.56 2676.71 L3049.14 2680.09 L3055.73 2683.29 L3062.31 2686.33 L3068.89 2689.37 L3075.47 2692.24 L3082.05 2695.11 L3088.63 2697.81 L3095.21 2700.34 L3101.79 2702.87 L3108.38 2705.40 L3115.13 2707.76 L3121.71 2710.13 L3128.29 2712.32 L3134.87 2714.51 L3141.45 2716.54 L3148.03 2718.56 L3154.61 2720.42 L3161.19 2722.28 L3167.78 2724.13 L3174.36 2725.82 L3180.94 2727.51 L3187.52 2729.19 L3194.27 2730.71 L3200.85 2732.23 L3207.43 2733.58 L3214.01 2735.10 L3220.59 2736.45 L3227.18 2737.63 L3233.76 2738.98 L3240.34 2740.16 L3246.92 2741.34 L3253.50 2742.36 L3260.08 2743.37 L3266.66 2744.38 L3273.41 2745.39 L3279.99 2746.41 L3286.58 2747.25 L3293.16 2748.09 L3299.74 2748.94 L3306.32 2749.78" stroke-linejoin="round" style="fill:none;stroke:#000000;stroke-width:9.72"/>
	<rect x="724.44" y="2595.21" width="421.71" height="171.45" style="fill:#198DFF;fill-opacity:0.50"/>
	<rect x="726.87" y="2597.64" width="416.85" height="166.59" style="fill:none;stroke:#5FAAFF;stroke-width:4.86"/>
	<rect x="1146.15" y="2252.48" width="421.71" height="514.18" style="fill:#198DFF;fill-opacity:0.50"/>
	<rect x="1148.58" y="2254.90" width="416.85" height="509.32" style="fill:none;stroke:#5FAAFF;stroke-width:4.86"/>
	<rect x="1567.86" y="1052.83" width="421.54" height="1713.82" style="fill:#198DFF;fill-opacity:0.50"/>
	<rect x="1570.29" y="1055.26" width="416.68" height="1708.97" style="fill:none;stroke:#5FAAFF;stroke-width:4.86"/>
	<rect x="1989.39" y="1052.83" width="421.71" height="1713.82" style="fill:#198DFF;fill-opacity:0.50"/>
	<rect x="1991.82" y="1055.26" width="416.85" height="1708.97" style="fill:none;stroke:#5FAAFF;stroke-width:4.86"/>
	<rect x="2411.10" y="1738.29" width="421.71" height="1028.36" style="fill:#198DFF;fill-opacity:0.50"/>
	<rect x="2413.53" y="1740.72" width="416.85" height="1023.50" style="fill:none;stroke:#5FAAFF;stroke-width:4.86"/>
	<line x1="557.72" y1="2766.66" x2="557.72" y2="113.40" style="stroke:#000000;stroke-width:6.48"/>
	<line x1="557.72" y1="2766.66" x2="512.83" y2="2766.66" style="stroke:#000000;stroke-width:6.48"/>
	<text x="490.22" y="2806.09" style="font-family:'Helvetica';font-size:112.56px;fill:#000000" text-anchor="end">0</text>
	<line x1="557.72" y1="2121.19" x2="512.83" y2="2121.19" style="stroke:#000000;stroke-width:6.48"/>
	<text x="490.22" y="2160.62" style="font-family:'Helvetica';font-size:112.56px;fill:#000000" text-anchor="end">.01</text>
	<line x1="557.72" y1="1475.72" x2="512.83" y2="1475.72" style="stroke:#000000;stroke-width:6.48"/>
	<text x="490.22" y="1515.16" style="font-family:'Helvetica';font-size:112.56px;fill:#000000" text-anchor="end">.02</text>
	<line x1="557.72" y1="830.08" x2="512.83" y2="830.08" style="stroke:#000000;stroke-width:6.48"/>
	<text x="490.22" y="869.52" style="font-family:'Helvetica';font-size:112.56px;fill:#000000" text-anchor="end">.03</text>
	<line x1="557.72" y1="184.61" x2="512.83" y2="184.61" style="stroke:#000000;stroke-width:6.48"/>
	<text x="490.22" y="224.05" style="font-family:'Helvetica';font-size:112.56px;fill:#000000" text-anchor="end">.04</text>
	<text x="214.55" y="1439.94" style="font-family:'Helvetica';font-size:112.56px;fill:#000000" transform="rotate(-90 214.55,1439.94)" text-anchor="middle">Density</text>
	<line x1="557.72" y1="2766.66" x2="3387.15" y2="2766.66" style="stroke:#000000;stroke-width:6.48"/>
	<line x1="629.10" y1="2766.66" x2="629.10" y2="2811.54" style="stroke:#000000;stroke-width:6.48"/>
	<text x="629.10" y="2912.86" style="font-family:'Helvetica';font-size:112.56px;fill:#000000" text-anchor="middle">20</text>
	<line x1="1300.72" y1="2766.66" x2="1300.72" y2="2811.54" style="stroke:#000000;stroke-width:6.48"/>
	<text x="1300.72" y="2912.86" style="font-family:'Helvetica';font-size:112.56px;fill:#000000" text-anchor="middle">40</text>
	<line x1="1972.52" y1="2766.66" x2="1972.52" y2="2811.54" style="stroke:#000000;stroke-width:6.48"/>
	<text x="1972.52" y="2912.86" style="font-family:'Helvetica';font-size:112.56px;fill:#000000" text-anchor="middle">60</text>
	<line x1="2644.14" y1="2766.66" x2="2644.14" y2="2811.54" style="stroke:#000000;stroke-width:6.48"/>
	<text x="2644.14" y="2912.86" style="font-family:'Helvetica';font-size:112.56px;fill:#000000" text-anchor="middle">80</text>
	<line x1="3315.94" y1="2766.66" x2="3315.94" y2="2811.54" style="stroke:#000000;stroke-width:6.48"/>
	<text x="3315.94" y="2912.86" style="font-family:'Helvetica';font-size:112.56px;fill:#000000" text-anchor="middle">100</text>
	<text x="1972.52" y="3070.31" style="font-family:'Helvetica';font-size:112.56px;fill:#000000" text-anchor="middle">age</text>
	<rect x="3425.96" y="1177.71" width="1821.83" height="524.64" style="fill:#FFFFFF"/>
	<rect x="3429.20" y="1180.95" width="1815.35" height="518.16" style="fill:none;stroke:#FFFFFF;stroke-width:6.48"/>
	<rect x="3474.56" y="1226.31" width="259.20" height="112.39" style="fill:#FF8C19;fill-opacity:0.40"/>
	<rect x="3476.99" y="1228.74" width="254.34" height="107.53" style="fill:none;stroke:#5FAAFF;stroke-width:4.86"/>
	<line x1="3474.56" y1="1439.94" x2="3733.76" y2="1439.94" style="stroke:#000000;stroke-width:9.72"/>
	<rect x="3474.56" y="1541.19" width="259.20" height="112.56" style="fill:#198DFF;fill-opacity:0.50"/>
	<rect x="3476.99" y="1543.62" width="254.34" height="107.70" style="fill:none;stroke:#5FAAFF;stroke-width:4.86"/>
	<text x="3801.26" y="1321.94" style="font-family:'Helvetica';font-size:112.56px;fill:#000000">Sampled from Normal</text>
	<text x="3801.26" y="1479.38" style="font-family:'Helvetica';font-size:112.56px;fill:#000000">Theoretical Normal</text>
	<text x="3801.26" y="1636.99" style="font-family:'Helvetica';font-size:112.56px;fill:#000000">Sampled from t-distribution</text>
</svg>
