<?xml version="1.0" encoding="UTF-8" standalone="no"?>
<!-- This is a Stata 18.0 generated SVG file (http://www.stata.com) -->

<svg version="1.1" width="7.500in" height="4.500in" viewBox="0 0 5400 3240" xmlns="http://www.w3.org/2000/svg" xmlns:xlink="http://www.w3.org/1999/xlink">
	<desc>Stata Graph - Graph</desc>
	<rect x="0" y="0" width="5400" height="3240" style="fill:#FFFFFF;stroke:none"/>
	<rect x="0.00" y="0.00" width="5400.00" height="3240.00" style="fill:#FFFFFF"/>
	<rect x="3.24" y="3.24" width="5393.52" height="3233.52" style="fill:none;stroke:#FFFFFF;stroke-width:6.48"/>
	<rect x="557.72" y="113.40" width="2829.43" height="2653.26" style="fill:#FFFFFF"/>
	<rect x="560.96" y="116.64" width="2822.95" height="2646.78" style="fill:none;stroke:#FFFFFF;stroke-width:6.48"/>
	<line x1="557.72" y1="2766.66" x2="622.52" y2="2766.66" style="stroke:#F0F0F0;stroke-width:9.72"/>
	<line x1="654.92" y1="2766.66" x2="719.72" y2="2766.66" style="stroke:#F0F0F0;stroke-width:9.72"/>
	<line x1="752.12" y1="2766.66" x2="816.92" y2="2766.66" style="stroke:#F0F0F0;stroke-width:9.72"/>
	<line x1="849.32" y1="2766.66" x2="914.12" y2="2766.66" style="stroke:#F0F0F0;stroke-width:9.72"/>
	<line x1="946.52" y1="2766.66" x2="1011.32" y2="2766.66" style="stroke:#F0F0F0;stroke-width:9.72"/>
	<line x1="1043.72" y1="2766.66" x2="1108.52" y2="2766.66" style="stroke:#F0F0F0;stroke-width:9.72"/>
	<line x1="1140.92" y1="2766.66" x2="1205.72" y2="2766.66" style="stroke:#F0F0F0;stroke-width:9.72"/>
	<line x1="1238.12" y1="2766.66" x2="1302.92" y2="2766.66" style="stroke:#F0F0F0;stroke-width:9.72"/>
	<line x1="1335.32" y1="2766.66" x2="1400.12" y2="2766.66" style="stroke:#F0F0F0;stroke-width:9.72"/>
	<line x1="1432.52" y1="2766.66" x2="1497.32" y2="2766.66" style="stroke:#F0F0F0;stroke-width:9.72"/>
	<line x1="1529.72" y1="2766.66" x2="1594.52" y2="2766.66" style="stroke:#F0F0F0;stroke-width:9.72"/>
	<line x1="1626.92" y1="2766.66" x2="1691.72" y2="2766.66" style="stroke:#F0F0F0;stroke-width:9.72"/>
	<line x1="1724.12" y1="2766.66" x2="1788.92" y2="2766.66" style="stroke:#F0F0F0;stroke-width:9.72"/>
	<line x1="1821.32" y1="2766.66" x2="1886.12" y2="2766.66" style="stroke:#F0F0F0;stroke-width:9.72"/>
	<line x1="1918.52" y1="2766.66" x2="1983.32" y2="2766.66" style="stroke:#F0F0F0;stroke-width:9.72"/>
	<line x1="2015.72" y1="2766.66" x2="2080.52" y2="2766.66" style="stroke:#F0F0F0;stroke-width:9.72"/>
	<line x1="2112.92" y1="2766.66" x2="2177.72" y2="2766.66" style="stroke:#F0F0F0;stroke-width:9.72"/>
	<line x1="2210.12" y1="2766.66" x2="2274.92" y2="2766.66" style="stroke:#F0F0F0;stroke-width:9.72"/>
	<line x1="2307.32" y1="2766.66" x2="2372.12" y2="2766.66" style="stroke:#F0F0F0;stroke-width:9.72"/>
	<line x1="2404.52" y1="2766.66" x2="2469.32" y2="2766.66" style="stroke:#F0F0F0;stroke-width:9.72"/>
	<line x1="2501.72" y1="2766.66" x2="2566.52" y2="2766.66" style="stroke:#F0F0F0;stroke-width:9.72"/>
	<line x1="2598.92" y1="2766.66" x2="2663.72" y2="2766.66" style="stroke:#F0F0F0;stroke-width:9.72"/>
	<line x1="2696.12" y1="2766.66" x2="2760.92" y2="2766.66" style="stroke:#F0F0F0;stroke-width:9.72"/>
	<line x1="2793.32" y1="2766.66" x2="2858.12" y2="2766.66" style="stroke:#F0F0F0;stroke-width:9.72"/>
	<line x1="2890.52" y1="2766.66" x2="2955.32" y2="2766.66" style="stroke:#F0F0F0;stroke-width:9.72"/>
	<line x1="2987.72" y1="2766.66" x2="3052.52" y2="2766.66" style="stroke:#F0F0F0;stroke-width:9.72"/>
	<line x1="3084.92" y1="2766.66" x2="3149.72" y2="2766.66" style="stroke:#F0F0F0;stroke-width:9.72"/>
	<line x1="3182.12" y1="2766.66" x2="3246.92" y2="2766.66" style="stroke:#F0F0F0;stroke-width:9.72"/>
	<line x1="3279.32" y1="2766.66" x2="3344.12" y2="2766.66" style="stroke:#F0F0F0;stroke-width:9.72"/>
	<line x1="3376.52" y1="2766.66" x2="3387.15" y2="2766.66" style="stroke:#F0F0F0;stroke-width:9.72"/>
	<line x1="557.72" y1="2121.19" x2="622.52" y2="2121.19" style="stroke:#F0F0F0;stroke-width:9.72"/>
	<line x1="654.92" y1="2121.19" x2="719.72" y2="2121.19" style="stroke:#F0F0F0;stroke-width:9.72"/>
	<line x1="752.12" y1="2121.19" x2="816.92" y2="2121.19" style="stroke:#F0F0F0;stroke-width:9.72"/>
	<line x1="849.32" y1="2121.19" x2="914.12" y2="2121.19" style="stroke:#F0F0F0;stroke-width:9.72"/>
	<line x1="946.52" y1="2121.19" x2="1011.32" y2="2121.19" style="stroke:#F0F0F0;stroke-width:9.72"/>
	<line x1="1043.72" y1="2121.19" x2="1108.52" y2="2121.19" style="stroke:#F0F0F0;stroke-width:9.72"/>
	<line x1="1140.92" y1="2121.19" x2="1205.72" y2="2121.19" style="stroke:#F0F0F0;stroke-width:9.72"/>
	<line x1="1238.12" y1="2121.19" x2="1302.92" y2="2121.19" style="stroke:#F0F0F0;stroke-width:9.72"/>
	<line x1="1335.32" y1="2121.19" x2="1400.12" y2="2121.19" style="stroke:#F0F0F0;stroke-width:9.72"/>
	<line x1="1432.52" y1="2121.19" x2="1497.32" y2="2121.19" style="stroke:#F0F0F0;stroke-width:9.72"/>
	<line x1="1529.72" y1="2121.19" x2="1594.52" y2="2121.19" style="stroke:#F0F0F0;stroke-width:9.72"/>
	<line x1="1626.92" y1="2121.19" x2="1691.72" y2="2121.19" style="stroke:#F0F0F0;stroke-width:9.72"/>
	<line x1="1724.12" y1="2121.19" x2="1788.92" y2="2121.19" style="stroke:#F0F0F0;stroke-width:9.72"/>
	<line x1="1821.32" y1="2121.19" x2="1886.12" y2="2121.19" style="stroke:#F0F0F0;stroke-width:9.72"/>
	<line x1="1918.52" y1="2121.19" x2="1983.32" y2="2121.19" style="stroke:#F0F0F0;stroke-width:9.72"/>
	<line x1="2015.72" y1="2121.19" x2="2080.52" y2="2121.19" style="stroke:#F0F0F0;stroke-width:9.72"/>
	<line x1="2112.92" y1="2121.19" x2="2177.72" y2="2121.19" style="stroke:#F0F0F0;stroke-width:9.72"/>
	<line x1="2210.12" y1="2121.19" x2="2274.92" y2="2121.19" style="stroke:#F0F0F0;stroke-width:9.72"/>
	<line x1="2307.32" y1="2121.19" x2="2372.12" y2="2121.19" style="stroke:#F0F0F0;stroke-width:9.72"/>
	<line x1="2404.52" y1="2121.19" x2="2469.32" y2="2121.19" style="stroke:#F0F0F0;stroke-width:9.72"/>
	<line x1="2501.72" y1="2121.19" x2="2566.52" y2="2121.19" style="stroke:#F0F0F0;stroke-width:9.72"/>
	<line x1="2598.92" y1="2121.19" x2="2663.72" y2="2121.19" style="stroke:#F0F0F0;stroke-width:9.72"/>
	<line x1="2696.12" y1="2121.19" x2="2760.92" y2="2121.19" style="stroke:#F0F0F0;stroke-width:9.72"/>
	<line x1="2793.32" y1="2121.19" x2="2858.12" y2="2121.19" style="stroke:#F0F0F0;stroke-width:9.72"/>
	<line x1="2890.52" y1="2121.19" x2="2955.32" y2="2121.19" style="stroke:#F0F0F0;stroke-width:9.72"/>
	<line x1="2987.72" y1="2121.19" x2="3052.52" y2="2121.19" style="stroke:#F0F0F0;stroke-width:9.72"/>
	<line x1="3084.92" y1="2121.19" x2="3149.72" y2="2121.19" style="stroke:#F0F0F0;stroke-width:9.72"/>
	<line x1="3182.12" y1="2121.19" x2="3246.92" y2="2121.19" style="stroke:#F0F0F0;stroke-width:9.72"/>
	<line x1="3279.32" y1="2121.19" x2="3344.12" y2="2121.19" style="stroke:#F0F0F0;stroke-width:9.72"/>
	<line x1="3376.52" y1="2121.19" x2="3387.15" y2="2121.19" style="stroke:#F0F0F0;stroke-width:9.72"/>
	<line x1="557.72" y1="1475.72" x2="622.52" y2="1475.72" style="stroke:#F0F0F0;stroke-width:9.72"/>
	<line x1="654.92" y1="1475.72" x2="719.72" y2="1475.72" style="stroke:#F0F0F0;stroke-width:9.72"/>
	<line x1="752.12" y1="1475.72" x2="816.92" y2="1475.72" style="stroke:#F0F0F0;stroke-width:9.72"/>
	<line x1="849.32" y1="1475.72" x2="914.12" y2="1475.72" style="stroke:#F0F0F0;stroke-width:9.72"/>
	<line x1="946.52" y1="1475.72" x2="1011.32" y2="1475.72" style="stroke:#F0F0F0;stroke-width:9.72"/>
	<line x1="1043.72" y1="1475.72" x2="1108.52" y2="1475.72" style="stroke:#F0F0F0;stroke-width:9.72"/>
	<line x1="1140.92" y1="1475.72" x2="1205.72" y2="1475.72" style="stroke:#F0F0F0;stroke-width:9.72"/>
	<line x1="1238.12" y1="1475.72" x2="1302.92" y2="1475.72" style="stroke:#F0F0F0;stroke-width:9.72"/>
	<line x1="1335.32" y1="1475.72" x2="1400.12" y2="1475.72" style="stroke:#F0F0F0;stroke-width:9.72"/>
	<line x1="1432.52" y1="1475.72" x2="1497.32" y2="1475.72" style="stroke:#F0F0F0;stroke-width:9.72"/>
	<line x1="1529.72" y1="1475.72" x2="1594.52" y2="1475.72" style="stroke:#F0F0F0;stroke-width:9.72"/>
	<line x1="1626.92" y1="1475.72" x2="1691.72" y2="1475.72" style="stroke:#F0F0F0;stroke-width:9.72"/>
	<line x1="1724.12" y1="1475.72" x2="1788.92" y2="1475.72" style="stroke:#F0F0F0;stroke-width:9.72"/>
	<line x1="1821.32" y1="1475.72" x2="1886.12" y2="1475.72" style="stroke:#F0F0F0;stroke-width:9.72"/>
	<line x1="1918.52" y1="1475.72" x2="1983.32" y2="1475.72" style="stroke:#F0F0F0;stroke-width:9.72"/>
	<line x1="2015.72" y1="1475.72" x2="2080.52" y2="1475.72" style="stroke:#F0F0F0;stroke-width:9.72"/>
	<line x1="2112.92" y1="1475.72" x2="2177.72" y2="1475.72" style="stroke:#F0F0F0;stroke-width:9.72"/>
	<line x1="2210.12" y1="1475.72" x2="2274.92" y2="1475.72" style="stroke:#F0F0F0;stroke-width:9.72"/>
	<line x1="2307.32" y1="1475.72" x2="2372.12" y2="1475.72" style="stroke:#F0F0F0;stroke-width:9.72"/>
	<line x1="2404.52" y1="1475.72" x2="2469.32" y2="1475.72" style="stroke:#F0F0F0;stroke-width:9.72"/>
	<line x1="2501.72" y1="1475.72" x2="2566.52" y2="1475.72" style="stroke:#F0F0F0;stroke-width:9.72"/>
	<line x1="2598.92" y1="1475.72" x2="2663.72" y2="1475.72" style="stroke:#F0F0F0;stroke-width:9.72"/>
	<line x1="2696.12" y1="1475.72" x2="2760.92" y2="1475.72" style="stroke:#F0F0F0;stroke-width:9.72"/>
	<line x1="2793.32" y1="1475.72" x2="2858.12" y2="1475.72" style="stroke:#F0F0F0;stroke-width:9.72"/>
	<line x1="2890.52" y1="1475.72" x2="2955.32" y2="1475.72" style="stroke:#F0F0F0;stroke-width:9.72"/>
	<line x1="2987.72" y1="1475.72" x2="3052.52" y2="1475.72" style="stroke:#F0F0F0;stroke-width:9.72"/>
	<line x1="3084.92" y1="1475.72" x2="3149.72" y2="1475.72" style="stroke:#F0F0F0;stroke-width:9.72"/>
	<line x1="3182.12" y1="1475.72" x2="3246.92" y2="1475.72" style="stroke:#F0F0F0;stroke-width:9.72"/>
	<line x1="3279.32" y1="1475.72" x2="3344.12" y2="1475.72" style="stroke:#F0F0F0;stroke-width:9.72"/>
	<line x1="3376.52" y1="1475.72" x2="3387.15" y2="1475.72" style="stroke:#F0F0F0;stroke-width:9.72"/>
	<line x1="557.72" y1="830.08" x2="622.52" y2="830.08" style="stroke:#F0F0F0;stroke-width:9.72"/>
	<line x1="654.92" y1="830.08" x2="719.72" y2="830.08" style="stroke:#F0F0F0;stroke-width:9.72"/>
	<line x1="752.12" y1="830.08" x2="816.92" y2="830.08" style="stroke:#F0F0F0;stroke-width:9.72"/>
	<line x1="849.32" y1="830.08" x2="914.12" y2="830.08" style="stroke:#F0F0F0;stroke-width:9.72"/>
	<line x1="946.52" y1="830.08" x2="1011.32" y2="830.08" style="stroke:#F0F0F0;stroke-width:9.72"/>
	<line x1="1043.72" y1="830.08" x2="1108.52" y2="830.08" style="stroke:#F0F0F0;stroke-width:9.72"/>
	<line x1="1140.92" y1="830.08" x2="1205.72" y2="830.08" style="stroke:#F0F0F0;stroke-width:9.72"/>
	<line x1="1238.12" y1="830.08" x2="1302.92" y2="830.08" style="stroke:#F0F0F0;stroke-width:9.72"/>
	<line x1="1335.32" y1="830.08" x2="1400.12" y2="830.08" style="stroke:#F0F0F0;stroke-width:9.72"/>
	<line x1="1432.52" y1="830.08" x2="1497.32" y2="830.08" style="stroke:#F0F0F0;stroke-width:9.72"/>
	<line x1="1529.72" y1="830.08" x2="1594.52" y2="830.08" style="stroke:#F0F0F0;stroke-width:9.72"/>
	<line x1="1626.92" y1="830.08" x2="1691.72" y2="830.08" style="stroke:#F0F0F0;stroke-width:9.72"/>
	<line x1="1724.12" y1="830.08" x2="1788.92" y2="830.08" style="stroke:#F0F0F0;stroke-width:9.72"/>
	<line x1="1821.32" y1="830.08" x2="1886.12" y2="830.08" style="stroke:#F0F0F0;stroke-width:9.72"/>
	<line x1="1918.52" y1="830.08" x2="1983.32" y2="830.08" style="stroke:#F0F0F0;stroke-width:9.72"/>
	<line x1="2015.72" y1="830.08" x2="2080.52" y2="830.08" style="stroke:#F0F0F0;stroke-width:9.72"/>
	<line x1="2112.92" y1="830.08" x2="2177.72" y2="830.08" style="stroke:#F0F0F0;stroke-width:9.72"/>
	<line x1="2210.12" y1="830.08" x2="2274.92" y2="830.08" style="stroke:#F0F0F0;stroke-width:9.72"/>
	<line x1="2307.32" y1="830.08" x2="2372.12" y2="830.08" style="stroke:#F0F0F0;stroke-width:9.72"/>
	<line x1="2404.52" y1="830.08" x2="2469.32" y2="830.08" style="stroke:#F0F0F0;stroke-width:9.72"/>
	<line x1="2501.72" y1="830.08" x2="2566.52" y2="830.08" style="stroke:#F0F0F0;stroke-width:9.72"/>
	<line x1="2598.92" y1="830.08" x2="2663.72" y2="830.08" style="stroke:#F0F0F0;stroke-width:9.72"/>
	<line x1="2696.12" y1="830.08" x2="2760.92" y2="830.08" style="stroke:#F0F0F0;stroke-width:9.72"/>
	<line x1="2793.32" y1="830.08" x2="2858.12" y2="830.08" style="stroke:#F0F0F0;stroke-width:9.72"/>
	<line x1="2890.52" y1="830.08" x2="2955.32" y2="830.08" style="stroke:#F0F0F0;stroke-width:9.72"/>
	<line x1="2987.72" y1="830.08" x2="3052.52" y2="830.08" style="stroke:#F0F0F0;stroke-width:9.72"/>
	<line x1="3084.92" y1="830.08" x2="3149.72" y2="830.08" style="stroke:#F0F0F0;stroke-width:9.72"/>
	<line x1="3182.12" y1="830.08" x2="3246.92" y2="830.08" style="stroke:#F0F0F0;stroke-width:9.72"/>
	<line x1="3279.32" y1="830.08" x2="3344.12" y2="830.08" style="stroke:#F0F0F0;stroke-width:9.72"/>
	<line x1="3376.52" y1="830.08" x2="3387.15" y2="830.08" style="stroke:#F0F0F0;stroke-width:9.72"/>
	<line x1="557.72" y1="184.61" x2="622.52" y2="184.61" style="stroke:#F0F0F0;stroke-width:9.72"/>
	<line x1="654.92" y1="184.61" x2="719.72" y2="184.61" style="stroke:#F0F0F0;stroke-width:9.72"/>
	<line x1="752.12" y1="184.61" x2="816.92" y2="184.61" style="stroke:#F0F0F0;stroke-width:9.72"/>
	<line x1="849.32" y1="184.61" x2="914.12" y2="184.61" style="stroke:#F0F0F0;stroke-width:9.72"/>
	<line x1="946.52" y1="184.61" x2="1011.32" y2="184.61" style="stroke:#F0F0F0;stroke-width:9.72"/>
	<line x1="1043.72" y1="184.61" x2="1108.52" y2="184.61" style="stroke:#F0F0F0;stroke-width:9.72"/>
	<line x1="1140.92" y1="184.61" x2="1205.72" y2="184.61" style="stroke:#F0F0F0;stroke-width:9.72"/>
	<line x1="1238.12" y1="184.61" x2="1302.92" y2="184.61" style="stroke:#F0F0F0;stroke-width:9.72"/>
	<line x1="1335.32" y1="184.61" x2="1400.12" y2="184.61" style="stroke:#F0F0F0;stroke-width:9.72"/>
	<line x1="1432.52" y1="184.61" x2="1497.32" y2="184.61" style="stroke:#F0F0F0;stroke-width:9.72"/>
	<line x1="1529.72" y1="184.61" x2="1594.52" y2="184.61" style="stroke:#F0F0F0;stroke-width:9.72"/>
	<line x1="1626.92" y1="184.61" x2="1691.72" y2="184.61" style="stroke:#F0F0F0;stroke-width:9.72"/>
	<line x1="1724.12" y1="184.61" x2="1788.92" y2="184.61" style="stroke:#F0F0F0;stroke-width:9.72"/>
	<line x1="1821.32" y1="184.61" x2="1886.12" y2="184.61" style="stroke:#F0F0F0;stroke-width:9.72"/>
	<line x1="1918.52" y1="184.61" x2="1983.32" y2="184.61" style="stroke:#F0F0F0;stroke-width:9.72"/>
	<line x1="2015.72" y1="184.61" x2="2080.52" y2="184.61" style="stroke:#F0F0F0;stroke-width:9.72"/>
	<line x1="2112.92" y1="184.61" x2="2177.72" y2="184.61" style="stroke:#F0F0F0;stroke-width:9.72"/>
	<line x1="2210.12" y1="184.61" x2="2274.92" y2="184.61" style="stroke:#F0F0F0;stroke-width:9.72"/>
	<line x1="2307.32" y1="184.61" x2="2372.12" y2="184.61" style="stroke:#F0F0F0;stroke-width:9.72"/>
	<line x1="2404.52" y1="184.61" x2="2469.32" y2="184.61" style="stroke:#F0F0F0;stroke-width:9.72"/>
	<line x1="2501.72" y1="184.61" x2="2566.52" y2="184.61" style="stroke:#F0F0F0;stroke-width:9.72"/>
	<line x1="2598.92" y1="184.61" x2="2663.72" y2="184.61" style="stroke:#F0F0F0;stroke-width:9.72"/>
	<line x1="2696.12" y1="184.61" x2="2760.92" y2="184.61" style="stroke:#F0F0F0;stroke-width:9.72"/>
	<line x1="2793.32" y1="184.61" x2="2858.12" y2="184.61" style="stroke:#F0F0F0;stroke-width:9.72"/>
	<line x1="2890.52" y1="184.61" x2="2955.32" y2="184.61" style="stroke:#F0F0F0;stroke-width:9.72"/>
	<line x1="2987.72" y1="184.61" x2="3052.52" y2="184.61" style="stroke:#F0F0F0;stroke-width:9.72"/>
	<line x1="3084.92" y1="184.61" x2="3149.72" y2="184.61" style="stroke:#F0F0F0;stroke-width:9.72"/>
	<line x1="3182.12" y1="184.61" x2="3246.92" y2="184.61" style="stroke:#F0F0F0;stroke-width:9.72"/>
	<line x1="3279.32" y1="184.61" x2="3344.12" y2="184.61" style="stroke:#F0F0F0;stroke-width:9.72"/>
	<line x1="3376.52" y1="184.61" x2="3387.15" y2="184.61" style="stroke:#F0F0F0;stroke-width:9.72"/>
	<line x1="958.16" y1="2766.66" x2="958.16" y2="2701.86" style="stroke:#F0F0F0;stroke-width:9.72"/>
	<line x1="958.16" y1="2669.46" x2="958.16" y2="2604.66" style="stroke:#F0F0F0;stroke-width:9.72"/>
	<line x1="958.16" y1="2572.26" x2="958.16" y2="2507.46" style="stroke:#F0F0F0;stroke-width:9.72"/>
	<line x1="958.16" y1="2475.06" x2="958.16" y2="2410.26" style="stroke:#F0F0F0;stroke-width:9.72"/>
	<line x1="958.16" y1="2377.86" x2="958.16" y2="2313.06" style="stroke:#F0F0F0;stroke-width:9.72"/>
	<line x1="958.16" y1="2280.66" x2="958.16" y2="2215.86" style="stroke:#F0F0F0;stroke-width:9.72"/>
	<line x1="958.16" y1="2183.46" x2="958.16" y2="2118.66" style="stroke:#F0F0F0;stroke-width:9.72"/>
	<line x1="958.16" y1="2086.26" x2="958.16" y2="2021.46" style="stroke:#F0F0F0;stroke-width:9.72"/>
	<line x1="958.16" y1="1989.06" x2="958.16" y2="1924.26" style="stroke:#F0F0F0;stroke-width:9.72"/>
	<line x1="958.16" y1="1891.86" x2="958.16" y2="1827.06" style="stroke:#F0F0F0;stroke-width:9.72"/>
	<line x1="958.16" y1="1794.66" x2="958.16" y2="1729.86" style="stroke:#F0F0F0;stroke-width:9.72"/>
	<line x1="958.16" y1="1697.46" x2="958.16" y2="1632.66" style="stroke:#F0F0F0;stroke-width:9.72"/>
	<line x1="958.16" y1="1600.26" x2="958.16" y2="1535.46" style="stroke:#F0F0F0;stroke-width:9.72"/>
	<line x1="958.16" y1="1503.06" x2="958.16" y2="1438.26" style="stroke:#F0F0F0;stroke-width:9.72"/>
	<line x1="958.16" y1="1405.86" x2="958.16" y2="1341.06" style="stroke:#F0F0F0;stroke-width:9.72"/>
	<line x1="958.16" y1="1308.66" x2="958.16" y2="1243.86" style="stroke:#F0F0F0;stroke-width:9.72"/>
	<line x1="958.16" y1="1211.46" x2="958.16" y2="1146.66" style="stroke:#F0F0F0;stroke-width:9.72"/>
	<line x1="958.16" y1="1114.26" x2="958.16" y2="1049.46" style="stroke:#F0F0F0;stroke-width:9.72"/>
	<line x1="958.16" y1="1017.06" x2="958.16" y2="952.26" style="stroke:#F0F0F0;stroke-width:9.72"/>
	<line x1="958.16" y1="919.86" x2="958.16" y2="855.06" style="stroke:#F0F0F0;stroke-width:9.72"/>
	<line x1="958.16" y1="822.66" x2="958.16" y2="757.86" style="stroke:#F0F0F0;stroke-width:9.72"/>
	<line x1="958.16" y1="725.46" x2="958.16" y2="660.66" style="stroke:#F0F0F0;stroke-width:9.72"/>
	<line x1="958.16" y1="628.26" x2="958.16" y2="563.46" style="stroke:#F0F0F0;stroke-width:9.72"/>
	<line x1="958.16" y1="531.06" x2="958.16" y2="466.26" style="stroke:#F0F0F0;stroke-width:9.72"/>
	<line x1="958.16" y1="433.86" x2="958.16" y2="369.06" style="stroke:#F0F0F0;stroke-width:9.72"/>
	<line x1="958.16" y1="336.66" x2="958.16" y2="271.86" style="stroke:#F0F0F0;stroke-width:9.72"/>
	<line x1="958.16" y1="239.46" x2="958.16" y2="174.66" style="stroke:#F0F0F0;stroke-width:9.72"/>
	<line x1="958.16" y1="142.26" x2="958.16" y2="113.40" style="stroke:#F0F0F0;stroke-width:9.72"/>
	<line x1="1694.42" y1="2766.66" x2="1694.42" y2="2701.86" style="stroke:#F0F0F0;stroke-width:9.72"/>
	<line x1="1694.42" y1="2669.46" x2="1694.42" y2="2604.66" style="stroke:#F0F0F0;stroke-width:9.72"/>
	<line x1="1694.42" y1="2572.26" x2="1694.42" y2="2507.46" style="stroke:#F0F0F0;stroke-width:9.72"/>
	<line x1="1694.42" y1="2475.06" x2="1694.42" y2="2410.26" style="stroke:#F0F0F0;stroke-width:9.72"/>
	<line x1="1694.42" y1="2377.86" x2="1694.42" y2="2313.06" style="stroke:#F0F0F0;stroke-width:9.72"/>
	<line x1="1694.42" y1="2280.66" x2="1694.42" y2="2215.86" style="stroke:#F0F0F0;stroke-width:9.72"/>
	<line x1="1694.42" y1="2183.46" x2="1694.42" y2="2118.66" style="stroke:#F0F0F0;stroke-width:9.72"/>
	<line x1="1694.42" y1="2086.26" x2="1694.42" y2="2021.46" style="stroke:#F0F0F0;stroke-width:9.72"/>
	<line x1="1694.42" y1="1989.06" x2="1694.42" y2="1924.26" style="stroke:#F0F0F0;stroke-width:9.72"/>
	<line x1="1694.42" y1="1891.86" x2="1694.42" y2="1827.06" style="stroke:#F0F0F0;stroke-width:9.72"/>
	<line x1="1694.42" y1="1794.66" x2="1694.42" y2="1729.86" style="stroke:#F0F0F0;stroke-width:9.72"/>
	<line x1="1694.42" y1="1697.46" x2="1694.42" y2="1632.66" style="stroke:#F0F0F0;stroke-width:9.72"/>
	<line x1="1694.42" y1="1600.26" x2="1694.42" y2="1535.46" style="stroke:#F0F0F0;stroke-width:9.72"/>
	<line x1="1694.42" y1="1503.06" x2="1694.42" y2="1438.26" style="stroke:#F0F0F0;stroke-width:9.72"/>
	<line x1="1694.42" y1="1405.86" x2="1694.42" y2="1341.06" style="stroke:#F0F0F0;stroke-width:9.72"/>
	<line x1="1694.42" y1="1308.66" x2="1694.42" y2="1243.86" style="stroke:#F0F0F0;stroke-width:9.72"/>
	<line x1="1694.42" y1="1211.46" x2="1694.42" y2="1146.66" style="stroke:#F0F0F0;stroke-width:9.72"/>
	<line x1="1694.42" y1="1114.26" x2="1694.42" y2="1049.46" style="stroke:#F0F0F0;stroke-width:9.72"/>
	<line x1="1694.42" y1="1017.06" x2="1694.42" y2="952.26" style="stroke:#F0F0F0;stroke-width:9.72"/>
	<line x1="1694.42" y1="919.86" x2="1694.42" y2="855.06" style="stroke:#F0F0F0;stroke-width:9.72"/>
	<line x1="1694.42" y1="822.66" x2="1694.42" y2="757.86" style="stroke:#F0F0F0;stroke-width:9.72"/>
	<line x1="1694.42" y1="725.46" x2="1694.42" y2="660.66" style="stroke:#F0F0F0;stroke-width:9.72"/>
	<line x1="1694.42" y1="628.26" x2="1694.42" y2="563.46" style="stroke:#F0F0F0;stroke-width:9.72"/>
	<line x1="1694.42" y1="531.06" x2="1694.42" y2="466.26" style="stroke:#F0F0F0;stroke-width:9.72"/>
	<line x1="1694.42" y1="433.86" x2="1694.42" y2="369.06" style="stroke:#F0F0F0;stroke-width:9.72"/>
	<line x1="1694.42" y1="336.66" x2="1694.42" y2="271.86" style="stroke:#F0F0F0;stroke-width:9.72"/>
	<line x1="1694.42" y1="239.46" x2="1694.42" y2="174.66" style="stroke:#F0F0F0;stroke-width:9.72"/>
	<line x1="1694.42" y1="142.26" x2="1694.42" y2="113.40" style="stroke:#F0F0F0;stroke-width:9.72"/>
	<line x1="2430.51" y1="2766.66" x2="2430.51" y2="2701.86" style="stroke:#F0F0F0;stroke-width:9.72"/>
	<line x1="2430.51" y1="2669.46" x2="2430.51" y2="2604.66" style="stroke:#F0F0F0;stroke-width:9.72"/>
	<line x1="2430.51" y1="2572.26" x2="2430.51" y2="2507.46" style="stroke:#F0F0F0;stroke-width:9.72"/>
	<line x1="2430.51" y1="2475.06" x2="2430.51" y2="2410.26" style="stroke:#F0F0F0;stroke-width:9.72"/>
	<line x1="2430.51" y1="2377.86" x2="2430.51" y2="2313.06" style="stroke:#F0F0F0;stroke-width:9.72"/>
	<line x1="2430.51" y1="2280.66" x2="2430.51" y2="2215.86" style="stroke:#F0F0F0;stroke-width:9.72"/>
	<line x1="2430.51" y1="2183.46" x2="2430.51" y2="2118.66" style="stroke:#F0F0F0;stroke-width:9.72"/>
	<line x1="2430.51" y1="2086.26" x2="2430.51" y2="2021.46" style="stroke:#F0F0F0;stroke-width:9.72"/>
	<line x1="2430.51" y1="1989.06" x2="2430.51" y2="1924.26" style="stroke:#F0F0F0;stroke-width:9.72"/>
	<line x1="2430.51" y1="1891.86" x2="2430.51" y2="1827.06" style="stroke:#F0F0F0;stroke-width:9.72"/>
	<line x1="2430.51" y1="1794.66" x2="2430.51" y2="1729.86" style="stroke:#F0F0F0;stroke-width:9.72"/>
	<line x1="2430.51" y1="1697.46" x2="2430.51" y2="1632.66" style="stroke:#F0F0F0;stroke-width:9.72"/>
	<line x1="2430.51" y1="1600.26" x2="2430.51" y2="1535.46" style="stroke:#F0F0F0;stroke-width:9.72"/>
	<line x1="2430.51" y1="1503.06" x2="2430.51" y2="1438.26" style="stroke:#F0F0F0;stroke-width:9.72"/>
	<line x1="2430.51" y1="1405.86" x2="2430.51" y2="1341.06" style="stroke:#F0F0F0;stroke-width:9.72"/>
	<line x1="2430.51" y1="1308.66" x2="2430.51" y2="1243.86" style="stroke:#F0F0F0;stroke-width:9.72"/>
	<line x1="2430.51" y1="1211.46" x2="2430.51" y2="1146.66" style="stroke:#F0F0F0;stroke-width:9.72"/>
	<line x1="2430.51" y1="1114.26" x2="2430.51" y2="1049.46" style="stroke:#F0F0F0;stroke-width:9.72"/>
	<line x1="2430.51" y1="1017.06" x2="2430.51" y2="952.26" style="stroke:#F0F0F0;stroke-width:9.72"/>
	<line x1="2430.51" y1="919.86" x2="2430.51" y2="855.06" style="stroke:#F0F0F0;stroke-width:9.72"/>
	<line x1="2430.51" y1="822.66" x2="2430.51" y2="757.86" style="stroke:#F0F0F0;stroke-width:9.72"/>
	<line x1="2430.51" y1="725.46" x2="2430.51" y2="660.66" style="stroke:#F0F0F0;stroke-width:9.72"/>
	<line x1="2430.51" y1="628.26" x2="2430.51" y2="563.46" style="stroke:#F0F0F0;stroke-width:9.72"/>
	<line x1="2430.51" y1="531.06" x2="2430.51" y2="466.26" style="stroke:#F0F0F0;stroke-width:9.72"/>
	<line x1="2430.51" y1="433.86" x2="2430.51" y2="369.06" style="stroke:#F0F0F0;stroke-width:9.72"/>
	<line x1="2430.51" y1="336.66" x2="2430.51" y2="271.86" style="stroke:#F0F0F0;stroke-width:9.72"/>
	<line x1="2430.51" y1="239.46" x2="2430.51" y2="174.66" style="stroke:#F0F0F0;stroke-width:9.72"/>
	<line x1="2430.51" y1="142.26" x2="2430.51" y2="113.40" style="stroke:#F0F0F0;stroke-width:9.72"/>
	<line x1="3166.76" y1="2766.66" x2="3166.76" y2="2701.86" style="stroke:#F0F0F0;stroke-width:9.72"/>
	<line x1="3166.76" y1="2669.46" x2="3166.76" y2="2604.66" style="stroke:#F0F0F0;stroke-width:9.72"/>
	<line x1="3166.76" y1="2572.26" x2="3166.76" y2="2507.46" style="stroke:#F0F0F0;stroke-width:9.72"/>
	<line x1="3166.76" y1="2475.06" x2="3166.76" y2="2410.26" style="stroke:#F0F0F0;stroke-width:9.72"/>
	<line x1="3166.76" y1="2377.86" x2="3166.76" y2="2313.06" style="stroke:#F0F0F0;stroke-width:9.72"/>
	<line x1="3166.76" y1="2280.66" x2="3166.76" y2="2215.86" style="stroke:#F0F0F0;stroke-width:9.72"/>
	<line x1="3166.76" y1="2183.46" x2="3166.76" y2="2118.66" style="stroke:#F0F0F0;stroke-width:9.72"/>
	<line x1="3166.76" y1="2086.26" x2="3166.76" y2="2021.46" style="stroke:#F0F0F0;stroke-width:9.72"/>
	<line x1="3166.76" y1="1989.06" x2="3166.76" y2="1924.26" style="stroke:#F0F0F0;stroke-width:9.72"/>
	<line x1="3166.76" y1="1891.86" x2="3166.76" y2="1827.06" style="stroke:#F0F0F0;stroke-width:9.72"/>
	<line x1="3166.76" y1="1794.66" x2="3166.76" y2="1729.86" style="stroke:#F0F0F0;stroke-width:9.72"/>
	<line x1="3166.76" y1="1697.46" x2="3166.76" y2="1632.66" style="stroke:#F0F0F0;stroke-width:9.72"/>
	<line x1="3166.76" y1="1600.26" x2="3166.76" y2="1535.46" style="stroke:#F0F0F0;stroke-width:9.72"/>
	<line x1="3166.76" y1="1503.06" x2="3166.76" y2="1438.26" style="stroke:#F0F0F0;stroke-width:9.72"/>
	<line x1="3166.76" y1="1405.86" x2="3166.76" y2="1341.06" style="stroke:#F0F0F0;stroke-width:9.72"/>
	<line x1="3166.76" y1="1308.66" x2="3166.76" y2="1243.86" style="stroke:#F0F0F0;stroke-width:9.72"/>
	<line x1="3166.76" y1="1211.46" x2="3166.76" y2="1146.66" style="stroke:#F0F0F0;stroke-width:9.72"/>
	<line x1="3166.76" y1="1114.26" x2="3166.76" y2="1049.46" style="stroke:#F0F0F0;stroke-width:9.72"/>
	<line x1="3166.76" y1="1017.06" x2="3166.76" y2="952.26" style="stroke:#F0F0F0;stroke-width:9.72"/>
	<line x1="3166.76" y1="919.86" x2="3166.76" y2="855.06" style="stroke:#F0F0F0;stroke-width:9.72"/>
	<line x1="3166.76" y1="822.66" x2="3166.76" y2="757.86" style="stroke:#F0F0F0;stroke-width:9.72"/>
	<line x1="3166.76" y1="725.46" x2="3166.76" y2="660.66" style="stroke:#F0F0F0;stroke-width:9.72"/>
	<line x1="3166.76" y1="628.26" x2="3166.76" y2="563.46" style="stroke:#F0F0F0;stroke-width:9.72"/>
	<line x1="3166.76" y1="531.06" x2="3166.76" y2="466.26" style="stroke:#F0F0F0;stroke-width:9.72"/>
	<line x1="3166.76" y1="433.86" x2="3166.76" y2="369.06" style="stroke:#F0F0F0;stroke-width:9.72"/>
	<line x1="3166.76" y1="336.66" x2="3166.76" y2="271.86" style="stroke:#F0F0F0;stroke-width:9.72"/>
	<line x1="3166.76" y1="239.46" x2="3166.76" y2="174.66" style="stroke:#F0F0F0;stroke-width:9.72"/>
	<line x1="3166.76" y1="142.26" x2="3166.76" y2="113.40" style="stroke:#F0F0F0;stroke-width:9.72"/>
	<rect x="981.11" y="2388.66" width="419.01" height="378.00" style="fill:#FF8C19;fill-opacity:0.40"/>
	<rect x="983.54" y="2391.09" width="414.15" height="373.14" style="fill:none;stroke:#5FAAFF;stroke-width:4.86"/>
	<rect x="1400.12" y="2388.66" width="419.17" height="378.00" style="fill:#FF8C19;fill-opacity:0.40"/>
	<rect x="1402.55" y="2391.09" width="414.31" height="373.14" style="fill:none;stroke:#5FAAFF;stroke-width:4.86"/>
	<rect x="1819.29" y="498.66" width="419.01" height="2268.00" style="fill:#FF8C19;fill-opacity:0.40"/>
	<rect x="1821.72" y="501.09" width="414.15" height="2263.14" style="fill:none;stroke:#5FAAFF;stroke-width:4.86"/>
	<rect x="2238.30" y="876.66" width="419.17" height="1890.00" style="fill:#FF8C19;fill-opacity:0.40"/>
	<rect x="2240.73" y="879.09" width="414.31" height="1885.14" style="fill:none;stroke:#5FAAFF;stroke-width:4.86"/>
	<rect x="2657.48" y="2010.66" width="419.01" height="756.00" style="fill:#FF8C19;fill-opacity:0.40"/>
	<rect x="2659.91" y="2013.09" width="414.15" height="751.14" style="fill:none;stroke:#5FAAFF;stroke-width:4.86"/>
	<path d=" M980.94 2717.21 L988.03 2715.19 L994.95 2712.99 L1002.04 2710.63 L1008.96 2708.27 L1016.04 2705.91 L1022.96 2703.38 L1030.05 2700.68 L1036.97 2697.98 L1044.06 2695.11 L1050.97 2692.24 L1058.06 2689.20 L1065.15 2686.16 L1072.07 2682.96 L1079.16 2679.58 L1086.08 2676.21 L1093.16 2672.66 L1100.08 2669.12 L1107.17 2665.24 L1114.09 2661.36 L1121.18 2657.31 L1128.09 2653.26 L1135.18 2648.87 L1142.10 2644.48 L1149.19 2639.93 L1156.11 2635.37 L1163.19 2630.48 L1170.11 2625.58 L1177.20 2620.52 L1184.29 2615.12 L1191.21 2609.72 L1198.29 2604.15 L1205.21 2598.58 L1212.30 2592.68 L1219.22 2586.60 L1226.31 2580.36 L1233.22 2573.94 L1240.31 2567.53 L1247.23 2560.78 L1254.32 2553.86 L1261.24 2546.78 L1268.33 2539.52 L1275.24 2532.09 L1282.33 2524.50 L1289.42 2516.57 L1296.34 2508.64 L1303.43 2500.37 L1310.34 2492.10 L1317.43 2483.49 L1324.35 2474.72 L1331.44 2465.61 L1338.36 2456.49 L1345.44 2447.04 L1352.36 2437.43 L1359.45 2427.64 L1366.37 2417.68 L1373.46 2407.39 L1380.38 2396.93 L1387.46 2386.29 L1394.38 2375.32 L1401.47 2364.19 L1408.56 2352.88 L1415.48 2341.41 L1422.56 2329.59 L1429.48 2317.61 L1436.57 2305.46 L1443.49 2293.14 L1450.58 2280.49 L1457.49 2267.66 L1464.58 2254.50 L1471.50 2241.17 L1478.59 2227.67 L1485.51 2214.00 L1492.59 2200.16 L1499.51 2185.99 L1506.60 2171.64 L1513.69 2156.96 L1520.61 2142.28 L1527.69 2127.26 L1534.61 2112.07 L1541.70 2096.72 L1548.62 2081.03 L1555.71 2065.33 L1562.63 2049.30 L1569.71 2033.10 L1576.63 2016.73 L1583.72 2000.19 L1590.64 1983.49 L1597.73 1966.61 L1604.64 1949.40 L1611.73 1932.19 L1618.65 1914.81 L1625.74 1897.26 L1632.83 1879.54 L1639.74 1861.65 L1646.83 1843.59 L1653.75 1825.54 L1660.84 1807.14 L1667.76 1788.75 L1674.84 1770.36 L1681.76 1751.63 L1688.85 1732.89 L1695.77 1714.16 L1702.86 1695.26 L1709.78 1676.19 L1716.86 1657.13 L1723.78 1637.89 L1730.87 1618.82 L1737.96 1599.58 L1744.88 1580.18 L1751.96 1560.94 L1758.88 1541.53 L1765.97 1522.13 L1772.89 1502.72 L1779.98 1483.48 L1786.89 1464.08 L1793.98 1444.67 L1800.90 1425.43 L1807.99 1406.03 L1814.91 1386.96 L1821.99 1367.72 L1828.91 1348.65 L1836.00 1329.58 L1842.92 1310.68 L1850.01 1291.78 L1857.09 1273.05 L1864.01 1254.49 L1871.10 1235.93 L1878.02 1217.70 L1885.11 1199.47 L1892.03 1181.42 L1899.11 1163.53 L1906.03 1145.98 L1913.12 1128.43 L1920.04 1111.22 L1927.13 1094.18 L1934.04 1077.30 L1941.13 1060.59 L1948.05 1044.22 L1955.14 1028.19 L1962.23 1012.33 L1969.14 996.81 L1976.23 981.45 L1983.15 966.43 L1990.24 951.75 L1997.16 937.41 L2004.24 923.40 L2011.16 909.56 L2018.25 896.23 L2025.17 883.24 L2032.26 870.58 L2039.18 858.26 L2046.26 846.28 L2053.18 834.64 L2060.27 823.50 L2067.19 812.70 L2074.28 802.41 L2081.36 792.45 L2088.28 782.83 L2095.37 773.72 L2102.29 765.11 L2109.38 756.84 L2116.29 749.08 L2123.38 741.66 L2130.30 734.74 L2137.39 728.32 L2144.31 722.25 L2151.39 716.85 L2158.31 711.79 L2165.40 707.23 L2172.32 703.01 L2179.41 699.47 L2186.49 696.43 L2193.41 693.73 L2200.50 691.54 L2207.42 689.85 L2214.51 688.67 L2221.43 687.99 L2228.51 687.82 L2235.43 688.16 L2242.52 688.84 L2249.44 690.19 L2256.53 691.88 L2263.44 694.07 L2270.53 696.94 L2277.45 700.14 L2284.54 703.86 L2291.46 707.91 L2298.54 712.63 L2305.63 717.69 L2312.55 723.43 L2319.64 729.51 L2326.56 735.92 L2333.64 743.01 L2340.56 750.43 L2347.65 758.36 L2354.57 766.63 L2361.66 775.41 L2368.57 784.52 L2375.66 794.14 L2382.58 804.26 L2389.67 814.72 L2396.59 825.53 L2403.68 836.83 L2410.76 848.47 L2417.68 860.46 L2424.77 872.78 L2431.69 885.60 L2438.78 898.59 L2445.69 912.09 L2452.78 925.93 L2459.70 939.94 L2466.79 954.45 L2473.71 969.13 L2480.79 984.15 L2487.71 999.51 L2494.80 1015.20 L2501.72 1031.06 L2508.81 1047.26 L2515.73 1063.63 L2522.81 1080.34 L2529.90 1097.21 L2536.82 1114.26 L2543.91 1131.64 L2550.82 1149.19 L2557.91 1166.91 L2564.83 1184.63 L2571.92 1202.68 L2578.84 1220.91 L2585.93 1239.30 L2592.84 1257.86 L2599.93 1276.43 L2606.85 1295.16 L2613.94 1314.06 L2620.86 1332.96 L2627.94 1352.03 L2635.03 1371.09 L2641.95 1390.33 L2649.04 1409.57 L2655.96 1428.81 L2663.04 1448.21 L2669.96 1467.62 L2677.05 1486.86 L2683.97 1506.26 L2691.06 1525.67 L2697.98 1545.08 L2705.06 1564.48 L2711.98 1583.72 L2719.07 1602.96 L2725.99 1622.19 L2733.08 1641.43 L2739.99 1660.50 L2747.08 1679.57 L2754.17 1698.64 L2761.09 1717.54 L2768.18 1736.27 L2775.09 1755.00 L2782.18 1773.73 L2789.10 1792.13 L2796.19 1810.52 L2803.11 1828.74 L2810.19 1846.97 L2817.11 1864.86 L2824.20 1882.74 L2831.12 1900.46 L2838.21 1918.01 L2845.13 1935.39 L2852.21 1952.61 L2859.30 1969.65 L2866.22 1986.53 L2873.31 2003.23 L2880.23 2019.77 L2887.31 2035.97 L2894.23 2052.17 L2901.32 2068.20 L2908.24 2083.89 L2915.33 2099.42 L2922.24 2114.78 L2929.33 2129.96 L2936.25 2144.98 L2943.34 2159.66 L2950.26 2174.18 L2957.34 2188.52 L2964.26 2202.69 L2971.35 2216.53 L2978.44 2230.20 L2985.36 2243.70 L2992.44 2256.86 L2999.36 2270.03 L3006.45 2282.68 L3013.37 2295.34 L3020.46 2307.66 L3027.38 2319.81 L3034.46 2331.79 L3041.38 2343.43 L3048.47 2355.07 L3055.39 2366.21 L3062.48 2377.35 L3069.39 2388.15 L3076.48 2398.78" stroke-linejoin="round" style="fill:none;stroke:#000000;stroke-width:9.72"/>
	<rect x="629.10" y="2619.17" width="537.30" height="147.49" style="fill:#198DFF;fill-opacity:0.50"/>
	<rect x="631.53" y="2621.60" width="532.44" height="142.63" style="fill:none;stroke:#5FAAFF;stroke-width:4.86"/>
	<rect x="1166.40" y="1882.24" width="537.30" height="884.42" style="fill:#198DFF;fill-opacity:0.50"/>
	<rect x="1168.83" y="1884.67" width="532.44" height="879.56" style="fill:none;stroke:#5FAAFF;stroke-width:4.86"/>
	<rect x="1703.70" y="1439.94" width="537.47" height="1326.71" style="fill:#198DFF;fill-opacity:0.50"/>
	<rect x="1706.13" y="1442.37" width="532.61" height="1321.85" style="fill:none;stroke:#5FAAFF;stroke-width:4.86"/>
	<rect x="2241.17" y="1439.94" width="537.30" height="1326.71" style="fill:#198DFF;fill-opacity:0.50"/>
	<rect x="2243.60" y="1442.37" width="532.44" height="1321.85" style="fill:none;stroke:#5FAAFF;stroke-width:4.86"/>
	<rect x="2778.47" y="2029.56" width="537.47" height="737.10" style="fill:#198DFF;fill-opacity:0.50"/>
	<rect x="2780.90" y="2031.99" width="532.61" height="732.24" style="fill:none;stroke:#5FAAFF;stroke-width:4.86"/>
	<line x1="557.72" y1="2766.66" x2="557.72" y2="113.40" style="stroke:#000000;stroke-width:6.48"/>
	<line x1="557.72" y1="2766.66" x2="512.83" y2="2766.66" style="stroke:#000000;stroke-width:6.48"/>
	<text x="490.22" y="2806.09" style="font-family:'Helvetica';font-size:112.56px;fill:#000000" text-anchor="end">0</text>
	<line x1="557.72" y1="2121.19" x2="512.83" y2="2121.19" style="stroke:#000000;stroke-width:6.48"/>
	<text x="490.22" y="2160.62" style="font-family:'Helvetica';font-size:112.56px;fill:#000000" text-anchor="end">.01</text>
	<line x1="557.72" y1="1475.72" x2="512.83" y2="1475.72" style="stroke:#000000;stroke-width:6.48"/>
	<text x="490.22" y="1515.16" style="font-family:'Helvetica';font-size:112.56px;fill:#000000" text-anchor="end">.02</text>
	<line x1="557.72" y1="830.08" x2="512.83" y2="830.08" style="stroke:#000000;stroke-width:6.48"/>
	<text x="490.22" y="869.52" style="font-family:'Helvetica';font-size:112.56px;fill:#000000" text-anchor="end">.03</text>
	<line x1="557.72" y1="184.61" x2="512.83" y2="184.61" style="stroke:#000000;stroke-width:6.48"/>
	<text x="490.22" y="224.05" style="font-family:'Helvetica';font-size:112.56px;fill:#000000" text-anchor="end">.04</text>
	<text x="214.55" y="1439.94" style="font-family:'Helvetica';font-size:112.56px;fill:#000000" transform="rotate(-90 214.55,1439.94)" text-anchor="middle">Density</text>
	<line x1="557.72" y1="2766.66" x2="3387.15" y2="2766.66" style="stroke:#000000;stroke-width:6.48"/>
	<line x1="958.16" y1="2766.66" x2="958.16" y2="2811.54" style="stroke:#000000;stroke-width:6.48"/>
	<text x="958.16" y="2912.86" style="font-family:'Helvetica';font-size:112.56px;fill:#000000" text-anchor="middle">20</text>
	<line x1="1694.42" y1="2766.66" x2="1694.42" y2="2811.54" style="stroke:#000000;stroke-width:6.48"/>
	<text x="1694.42" y="2912.86" style="font-family:'Helvetica';font-size:112.56px;fill:#000000" text-anchor="middle">40</text>
	<line x1="2430.51" y1="2766.66" x2="2430.51" y2="2811.54" style="stroke:#000000;stroke-width:6.48"/>
	<text x="2430.51" y="2912.86" style="font-family:'Helvetica';font-size:112.56px;fill:#000000" text-anchor="middle">60</text>
	<line x1="3166.76" y1="2766.66" x2="3166.76" y2="2811.54" style="stroke:#000000;stroke-width:6.48"/>
	<text x="3166.76" y="2912.86" style="font-family:'Helvetica';font-size:112.56px;fill:#000000" text-anchor="middle">80</text>
	<text x="1972.52" y="3070.31" style="font-family:'Helvetica';font-size:112.56px;fill:#000000" text-anchor="middle">age</text>
	<rect x="3425.96" y="1177.71" width="1821.83" height="524.64" style="fill:#FFFFFF"/>
	<rect x="3429.20" y="1180.95" width="1815.35" height="518.16" style="fill:none;stroke:#FFFFFF;stroke-width:6.48"/>
	<rect x="3474.56" y="1226.31" width="259.20" height="112.39" style="fill:#FF8C19;fill-opacity:0.40"/>
	<rect x="3476.99" y="1228.74" width="254.34" height="107.53" style="fill:none;stroke:#5FAAFF;stroke-width:4.86"/>
	<line x1="3474.56" y1="1439.94" x2="3733.76" y2="1439.94" style="stroke:#000000;stroke-width:9.72"/>
	<rect x="3474.56" y="1541.19" width="259.20" height="112.56" style="fill:#198DFF;fill-opacity:0.50"/>
	<rect x="3476.99" y="1543.62" width="254.34" height="107.70" style="fill:none;stroke:#5FAAFF;stroke-width:4.86"/>
	<text x="3801.26" y="1321.94" style="font-family:'Helvetica';font-size:112.56px;fill:#000000">Sampled from Normal</text>
	<text x="3801.26" y="1479.38" style="font-family:'Helvetica';font-size:112.56px;fill:#000000">Theoretical Normal</text>
	<text x="3801.26" y="1636.99" style="font-family:'Helvetica';font-size:112.56px;fill:#000000">Sampled from t-distribution</text>
</svg>
