<?xml version="1.0" encoding="UTF-8" standalone="no"?>
<!-- This is a Stata 18.0 generated SVG file (http://www.stata.com) -->

<svg version="1.1" width="7.500in" height="4.500in" viewBox="0 0 5400 3240" xmlns="http://www.w3.org/2000/svg" xmlns:xlink="http://www.w3.org/1999/xlink">
	<desc>Stata Graph - Graph</desc>
	<rect x="0" y="0" width="5400" height="3240" style="fill:#FFFFFF;stroke:none"/>
	<rect x="0.00" y="0.00" width="5400.00" height="3240.00" style="fill:#FFFFFF"/>
	<rect x="3.24" y="3.24" width="5393.52" height="3233.52" style="fill:none;stroke:#FFFFFF;stroke-width:6.48"/>
	<rect x="557.72" y="113.40" width="2829.43" height="2653.26" style="fill:#FFFFFF"/>
	<rect x="560.96" y="116.64" width="2822.95" height="2646.78" style="fill:none;stroke:#FFFFFF;stroke-width:6.48"/>
	<line x1="557.72" y1="2766.66" x2="622.52" y2="2766.66" style="stroke:#F0F0F0;stroke-width:9.72"/>
	<line x1="654.92" y1="2766.66" x2="719.72" y2="2766.66" style="stroke:#F0F0F0;stroke-width:9.72"/>
	<line x1="752.12" y1="2766.66" x2="816.92" y2="2766.66" style="stroke:#F0F0F0;stroke-width:9.72"/>
	<line x1="849.32" y1="2766.66" x2="914.12" y2="2766.66" style="stroke:#F0F0F0;stroke-width:9.72"/>
	<line x1="946.52" y1="2766.66" x2="1011.32" y2="2766.66" style="stroke:#F0F0F0;stroke-width:9.72"/>
	<line x1="1043.72" y1="2766.66" x2="1108.52" y2="2766.66" style="stroke:#F0F0F0;stroke-width:9.72"/>
	<line x1="1140.92" y1="2766.66" x2="1205.72" y2="2766.66" style="stroke:#F0F0F0;stroke-width:9.72"/>
	<line x1="1238.12" y1="2766.66" x2="1302.92" y2="2766.66" style="stroke:#F0F0F0;stroke-width:9.72"/>
	<line x1="1335.32" y1="2766.66" x2="1400.12" y2="2766.66" style="stroke:#F0F0F0;stroke-width:9.72"/>
	<line x1="1432.52" y1="2766.66" x2="1497.32" y2="2766.66" style="stroke:#F0F0F0;stroke-width:9.72"/>
	<line x1="1529.72" y1="2766.66" x2="1594.52" y2="2766.66" style="stroke:#F0F0F0;stroke-width:9.72"/>
	<line x1="1626.92" y1="2766.66" x2="1691.72" y2="2766.66" style="stroke:#F0F0F0;stroke-width:9.72"/>
	<line x1="1724.12" y1="2766.66" x2="1788.92" y2="2766.66" style="stroke:#F0F0F0;stroke-width:9.72"/>
	<line x1="1821.32" y1="2766.66" x2="1886.12" y2="2766.66" style="stroke:#F0F0F0;stroke-width:9.72"/>
	<line x1="1918.52" y1="2766.66" x2="1983.32" y2="2766.66" style="stroke:#F0F0F0;stroke-width:9.72"/>
	<line x1="2015.72" y1="2766.66" x2="2080.52" y2="2766.66" style="stroke:#F0F0F0;stroke-width:9.72"/>
	<line x1="2112.92" y1="2766.66" x2="2177.72" y2="2766.66" style="stroke:#F0F0F0;stroke-width:9.72"/>
	<line x1="2210.12" y1="2766.66" x2="2274.92" y2="2766.66" style="stroke:#F0F0F0;stroke-width:9.72"/>
	<line x1="2307.32" y1="2766.66" x2="2372.12" y2="2766.66" style="stroke:#F0F0F0;stroke-width:9.72"/>
	<line x1="2404.52" y1="2766.66" x2="2469.32" y2="2766.66" style="stroke:#F0F0F0;stroke-width:9.72"/>
	<line x1="2501.72" y1="2766.66" x2="2566.52" y2="2766.66" style="stroke:#F0F0F0;stroke-width:9.72"/>
	<line x1="2598.92" y1="2766.66" x2="2663.72" y2="2766.66" style="stroke:#F0F0F0;stroke-width:9.72"/>
	<line x1="2696.12" y1="2766.66" x2="2760.92" y2="2766.66" style="stroke:#F0F0F0;stroke-width:9.72"/>
	<line x1="2793.32" y1="2766.66" x2="2858.12" y2="2766.66" style="stroke:#F0F0F0;stroke-width:9.72"/>
	<line x1="2890.52" y1="2766.66" x2="2955.32" y2="2766.66" style="stroke:#F0F0F0;stroke-width:9.72"/>
	<line x1="2987.72" y1="2766.66" x2="3052.52" y2="2766.66" style="stroke:#F0F0F0;stroke-width:9.72"/>
	<line x1="3084.92" y1="2766.66" x2="3149.72" y2="2766.66" style="stroke:#F0F0F0;stroke-width:9.72"/>
	<line x1="3182.12" y1="2766.66" x2="3246.92" y2="2766.66" style="stroke:#F0F0F0;stroke-width:9.72"/>
	<line x1="3279.32" y1="2766.66" x2="3344.12" y2="2766.66" style="stroke:#F0F0F0;stroke-width:9.72"/>
	<line x1="3376.52" y1="2766.66" x2="3387.15" y2="2766.66" style="stroke:#F0F0F0;stroke-width:9.72"/>
	<line x1="557.72" y1="1906.03" x2="622.52" y2="1906.03" style="stroke:#F0F0F0;stroke-width:9.72"/>
	<line x1="654.92" y1="1906.03" x2="719.72" y2="1906.03" style="stroke:#F0F0F0;stroke-width:9.72"/>
	<line x1="752.12" y1="1906.03" x2="816.92" y2="1906.03" style="stroke:#F0F0F0;stroke-width:9.72"/>
	<line x1="849.32" y1="1906.03" x2="914.12" y2="1906.03" style="stroke:#F0F0F0;stroke-width:9.72"/>
	<line x1="946.52" y1="1906.03" x2="1011.32" y2="1906.03" style="stroke:#F0F0F0;stroke-width:9.72"/>
	<line x1="1043.72" y1="1906.03" x2="1108.52" y2="1906.03" style="stroke:#F0F0F0;stroke-width:9.72"/>
	<line x1="1140.92" y1="1906.03" x2="1205.72" y2="1906.03" style="stroke:#F0F0F0;stroke-width:9.72"/>
	<line x1="1238.12" y1="1906.03" x2="1302.92" y2="1906.03" style="stroke:#F0F0F0;stroke-width:9.72"/>
	<line x1="1335.32" y1="1906.03" x2="1400.12" y2="1906.03" style="stroke:#F0F0F0;stroke-width:9.72"/>
	<line x1="1432.52" y1="1906.03" x2="1497.32" y2="1906.03" style="stroke:#F0F0F0;stroke-width:9.72"/>
	<line x1="1529.72" y1="1906.03" x2="1594.52" y2="1906.03" style="stroke:#F0F0F0;stroke-width:9.72"/>
	<line x1="1626.92" y1="1906.03" x2="1691.72" y2="1906.03" style="stroke:#F0F0F0;stroke-width:9.72"/>
	<line x1="1724.12" y1="1906.03" x2="1788.92" y2="1906.03" style="stroke:#F0F0F0;stroke-width:9.72"/>
	<line x1="1821.32" y1="1906.03" x2="1886.12" y2="1906.03" style="stroke:#F0F0F0;stroke-width:9.72"/>
	<line x1="1918.52" y1="1906.03" x2="1983.32" y2="1906.03" style="stroke:#F0F0F0;stroke-width:9.72"/>
	<line x1="2015.72" y1="1906.03" x2="2080.52" y2="1906.03" style="stroke:#F0F0F0;stroke-width:9.72"/>
	<line x1="2112.92" y1="1906.03" x2="2177.72" y2="1906.03" style="stroke:#F0F0F0;stroke-width:9.72"/>
	<line x1="2210.12" y1="1906.03" x2="2274.92" y2="1906.03" style="stroke:#F0F0F0;stroke-width:9.72"/>
	<line x1="2307.32" y1="1906.03" x2="2372.12" y2="1906.03" style="stroke:#F0F0F0;stroke-width:9.72"/>
	<line x1="2404.52" y1="1906.03" x2="2469.32" y2="1906.03" style="stroke:#F0F0F0;stroke-width:9.72"/>
	<line x1="2501.72" y1="1906.03" x2="2566.52" y2="1906.03" style="stroke:#F0F0F0;stroke-width:9.72"/>
	<line x1="2598.92" y1="1906.03" x2="2663.72" y2="1906.03" style="stroke:#F0F0F0;stroke-width:9.72"/>
	<line x1="2696.12" y1="1906.03" x2="2760.92" y2="1906.03" style="stroke:#F0F0F0;stroke-width:9.72"/>
	<line x1="2793.32" y1="1906.03" x2="2858.12" y2="1906.03" style="stroke:#F0F0F0;stroke-width:9.72"/>
	<line x1="2890.52" y1="1906.03" x2="2955.32" y2="1906.03" style="stroke:#F0F0F0;stroke-width:9.72"/>
	<line x1="2987.72" y1="1906.03" x2="3052.52" y2="1906.03" style="stroke:#F0F0F0;stroke-width:9.72"/>
	<line x1="3084.92" y1="1906.03" x2="3149.72" y2="1906.03" style="stroke:#F0F0F0;stroke-width:9.72"/>
	<line x1="3182.12" y1="1906.03" x2="3246.92" y2="1906.03" style="stroke:#F0F0F0;stroke-width:9.72"/>
	<line x1="3279.32" y1="1906.03" x2="3344.12" y2="1906.03" style="stroke:#F0F0F0;stroke-width:9.72"/>
	<line x1="3376.52" y1="1906.03" x2="3387.15" y2="1906.03" style="stroke:#F0F0F0;stroke-width:9.72"/>
	<line x1="557.72" y1="1045.41" x2="622.52" y2="1045.41" style="stroke:#F0F0F0;stroke-width:9.72"/>
	<line x1="654.92" y1="1045.41" x2="719.72" y2="1045.41" style="stroke:#F0F0F0;stroke-width:9.72"/>
	<line x1="752.12" y1="1045.41" x2="816.92" y2="1045.41" style="stroke:#F0F0F0;stroke-width:9.72"/>
	<line x1="849.32" y1="1045.41" x2="914.12" y2="1045.41" style="stroke:#F0F0F0;stroke-width:9.72"/>
	<line x1="946.52" y1="1045.41" x2="1011.32" y2="1045.41" style="stroke:#F0F0F0;stroke-width:9.72"/>
	<line x1="1043.72" y1="1045.41" x2="1108.52" y2="1045.41" style="stroke:#F0F0F0;stroke-width:9.72"/>
	<line x1="1140.92" y1="1045.41" x2="1205.72" y2="1045.41" style="stroke:#F0F0F0;stroke-width:9.72"/>
	<line x1="1238.12" y1="1045.41" x2="1302.92" y2="1045.41" style="stroke:#F0F0F0;stroke-width:9.72"/>
	<line x1="1335.32" y1="1045.41" x2="1400.12" y2="1045.41" style="stroke:#F0F0F0;stroke-width:9.72"/>
	<line x1="1432.52" y1="1045.41" x2="1497.32" y2="1045.41" style="stroke:#F0F0F0;stroke-width:9.72"/>
	<line x1="1529.72" y1="1045.41" x2="1594.52" y2="1045.41" style="stroke:#F0F0F0;stroke-width:9.72"/>
	<line x1="1626.92" y1="1045.41" x2="1691.72" y2="1045.41" style="stroke:#F0F0F0;stroke-width:9.72"/>
	<line x1="1724.12" y1="1045.41" x2="1788.92" y2="1045.41" style="stroke:#F0F0F0;stroke-width:9.72"/>
	<line x1="1821.32" y1="1045.41" x2="1886.12" y2="1045.41" style="stroke:#F0F0F0;stroke-width:9.72"/>
	<line x1="1918.52" y1="1045.41" x2="1983.32" y2="1045.41" style="stroke:#F0F0F0;stroke-width:9.72"/>
	<line x1="2015.72" y1="1045.41" x2="2080.52" y2="1045.41" style="stroke:#F0F0F0;stroke-width:9.72"/>
	<line x1="2112.92" y1="1045.41" x2="2177.72" y2="1045.41" style="stroke:#F0F0F0;stroke-width:9.72"/>
	<line x1="2210.12" y1="1045.41" x2="2274.92" y2="1045.41" style="stroke:#F0F0F0;stroke-width:9.72"/>
	<line x1="2307.32" y1="1045.41" x2="2372.12" y2="1045.41" style="stroke:#F0F0F0;stroke-width:9.72"/>
	<line x1="2404.52" y1="1045.41" x2="2469.32" y2="1045.41" style="stroke:#F0F0F0;stroke-width:9.72"/>
	<line x1="2501.72" y1="1045.41" x2="2566.52" y2="1045.41" style="stroke:#F0F0F0;stroke-width:9.72"/>
	<line x1="2598.92" y1="1045.41" x2="2663.72" y2="1045.41" style="stroke:#F0F0F0;stroke-width:9.72"/>
	<line x1="2696.12" y1="1045.41" x2="2760.92" y2="1045.41" style="stroke:#F0F0F0;stroke-width:9.72"/>
	<line x1="2793.32" y1="1045.41" x2="2858.12" y2="1045.41" style="stroke:#F0F0F0;stroke-width:9.72"/>
	<line x1="2890.52" y1="1045.41" x2="2955.32" y2="1045.41" style="stroke:#F0F0F0;stroke-width:9.72"/>
	<line x1="2987.72" y1="1045.41" x2="3052.52" y2="1045.41" style="stroke:#F0F0F0;stroke-width:9.72"/>
	<line x1="3084.92" y1="1045.41" x2="3149.72" y2="1045.41" style="stroke:#F0F0F0;stroke-width:9.72"/>
	<line x1="3182.12" y1="1045.41" x2="3246.92" y2="1045.41" style="stroke:#F0F0F0;stroke-width:9.72"/>
	<line x1="3279.32" y1="1045.41" x2="3344.12" y2="1045.41" style="stroke:#F0F0F0;stroke-width:9.72"/>
	<line x1="3376.52" y1="1045.41" x2="3387.15" y2="1045.41" style="stroke:#F0F0F0;stroke-width:9.72"/>
	<line x1="557.72" y1="184.61" x2="622.52" y2="184.61" style="stroke:#F0F0F0;stroke-width:9.72"/>
	<line x1="654.92" y1="184.61" x2="719.72" y2="184.61" style="stroke:#F0F0F0;stroke-width:9.72"/>
	<line x1="752.12" y1="184.61" x2="816.92" y2="184.61" style="stroke:#F0F0F0;stroke-width:9.72"/>
	<line x1="849.32" y1="184.61" x2="914.12" y2="184.61" style="stroke:#F0F0F0;stroke-width:9.72"/>
	<line x1="946.52" y1="184.61" x2="1011.32" y2="184.61" style="stroke:#F0F0F0;stroke-width:9.72"/>
	<line x1="1043.72" y1="184.61" x2="1108.52" y2="184.61" style="stroke:#F0F0F0;stroke-width:9.72"/>
	<line x1="1140.92" y1="184.61" x2="1205.72" y2="184.61" style="stroke:#F0F0F0;stroke-width:9.72"/>
	<line x1="1238.12" y1="184.61" x2="1302.92" y2="184.61" style="stroke:#F0F0F0;stroke-width:9.72"/>
	<line x1="1335.32" y1="184.61" x2="1400.12" y2="184.61" style="stroke:#F0F0F0;stroke-width:9.72"/>
	<line x1="1432.52" y1="184.61" x2="1497.32" y2="184.61" style="stroke:#F0F0F0;stroke-width:9.72"/>
	<line x1="1529.72" y1="184.61" x2="1594.52" y2="184.61" style="stroke:#F0F0F0;stroke-width:9.72"/>
	<line x1="1626.92" y1="184.61" x2="1691.72" y2="184.61" style="stroke:#F0F0F0;stroke-width:9.72"/>
	<line x1="1724.12" y1="184.61" x2="1788.92" y2="184.61" style="stroke:#F0F0F0;stroke-width:9.72"/>
	<line x1="1821.32" y1="184.61" x2="1886.12" y2="184.61" style="stroke:#F0F0F0;stroke-width:9.72"/>
	<line x1="1918.52" y1="184.61" x2="1983.32" y2="184.61" style="stroke:#F0F0F0;stroke-width:9.72"/>
	<line x1="2015.72" y1="184.61" x2="2080.52" y2="184.61" style="stroke:#F0F0F0;stroke-width:9.72"/>
	<line x1="2112.92" y1="184.61" x2="2177.72" y2="184.61" style="stroke:#F0F0F0;stroke-width:9.72"/>
	<line x1="2210.12" y1="184.61" x2="2274.92" y2="184.61" style="stroke:#F0F0F0;stroke-width:9.72"/>
	<line x1="2307.32" y1="184.61" x2="2372.12" y2="184.61" style="stroke:#F0F0F0;stroke-width:9.72"/>
	<line x1="2404.52" y1="184.61" x2="2469.32" y2="184.61" style="stroke:#F0F0F0;stroke-width:9.72"/>
	<line x1="2501.72" y1="184.61" x2="2566.52" y2="184.61" style="stroke:#F0F0F0;stroke-width:9.72"/>
	<line x1="2598.92" y1="184.61" x2="2663.72" y2="184.61" style="stroke:#F0F0F0;stroke-width:9.72"/>
	<line x1="2696.12" y1="184.61" x2="2760.92" y2="184.61" style="stroke:#F0F0F0;stroke-width:9.72"/>
	<line x1="2793.32" y1="184.61" x2="2858.12" y2="184.61" style="stroke:#F0F0F0;stroke-width:9.72"/>
	<line x1="2890.52" y1="184.61" x2="2955.32" y2="184.61" style="stroke:#F0F0F0;stroke-width:9.72"/>
	<line x1="2987.72" y1="184.61" x2="3052.52" y2="184.61" style="stroke:#F0F0F0;stroke-width:9.72"/>
	<line x1="3084.92" y1="184.61" x2="3149.72" y2="184.61" style="stroke:#F0F0F0;stroke-width:9.72"/>
	<line x1="3182.12" y1="184.61" x2="3246.92" y2="184.61" style="stroke:#F0F0F0;stroke-width:9.72"/>
	<line x1="3279.32" y1="184.61" x2="3344.12" y2="184.61" style="stroke:#F0F0F0;stroke-width:9.72"/>
	<line x1="3376.52" y1="184.61" x2="3387.15" y2="184.61" style="stroke:#F0F0F0;stroke-width:9.72"/>
	<line x1="1296.68" y1="2766.66" x2="1296.68" y2="2701.86" style="stroke:#F0F0F0;stroke-width:9.72"/>
	<line x1="1296.68" y1="2669.46" x2="1296.68" y2="2604.66" style="stroke:#F0F0F0;stroke-width:9.72"/>
	<line x1="1296.68" y1="2572.26" x2="1296.68" y2="2507.46" style="stroke:#F0F0F0;stroke-width:9.72"/>
	<line x1="1296.68" y1="2475.06" x2="1296.68" y2="2410.26" style="stroke:#F0F0F0;stroke-width:9.72"/>
	<line x1="1296.68" y1="2377.86" x2="1296.68" y2="2313.06" style="stroke:#F0F0F0;stroke-width:9.72"/>
	<line x1="1296.68" y1="2280.66" x2="1296.68" y2="2215.86" style="stroke:#F0F0F0;stroke-width:9.72"/>
	<line x1="1296.68" y1="2183.46" x2="1296.68" y2="2118.66" style="stroke:#F0F0F0;stroke-width:9.72"/>
	<line x1="1296.68" y1="2086.26" x2="1296.68" y2="2021.46" style="stroke:#F0F0F0;stroke-width:9.72"/>
	<line x1="1296.68" y1="1989.06" x2="1296.68" y2="1924.26" style="stroke:#F0F0F0;stroke-width:9.72"/>
	<line x1="1296.68" y1="1891.86" x2="1296.68" y2="1827.06" style="stroke:#F0F0F0;stroke-width:9.72"/>
	<line x1="1296.68" y1="1794.66" x2="1296.68" y2="1729.86" style="stroke:#F0F0F0;stroke-width:9.72"/>
	<line x1="1296.68" y1="1697.46" x2="1296.68" y2="1632.66" style="stroke:#F0F0F0;stroke-width:9.72"/>
	<line x1="1296.68" y1="1600.26" x2="1296.68" y2="1535.46" style="stroke:#F0F0F0;stroke-width:9.72"/>
	<line x1="1296.68" y1="1503.06" x2="1296.68" y2="1438.26" style="stroke:#F0F0F0;stroke-width:9.72"/>
	<line x1="1296.68" y1="1405.86" x2="1296.68" y2="1341.06" style="stroke:#F0F0F0;stroke-width:9.72"/>
	<line x1="1296.68" y1="1308.66" x2="1296.68" y2="1243.86" style="stroke:#F0F0F0;stroke-width:9.72"/>
	<line x1="1296.68" y1="1211.46" x2="1296.68" y2="1146.66" style="stroke:#F0F0F0;stroke-width:9.72"/>
	<line x1="1296.68" y1="1114.26" x2="1296.68" y2="1049.46" style="stroke:#F0F0F0;stroke-width:9.72"/>
	<line x1="1296.68" y1="1017.06" x2="1296.68" y2="952.26" style="stroke:#F0F0F0;stroke-width:9.72"/>
	<line x1="1296.68" y1="919.86" x2="1296.68" y2="855.06" style="stroke:#F0F0F0;stroke-width:9.72"/>
	<line x1="1296.68" y1="822.66" x2="1296.68" y2="757.86" style="stroke:#F0F0F0;stroke-width:9.72"/>
	<line x1="1296.68" y1="725.46" x2="1296.68" y2="660.66" style="stroke:#F0F0F0;stroke-width:9.72"/>
	<line x1="1296.68" y1="628.26" x2="1296.68" y2="563.46" style="stroke:#F0F0F0;stroke-width:9.72"/>
	<line x1="1296.68" y1="531.06" x2="1296.68" y2="466.26" style="stroke:#F0F0F0;stroke-width:9.72"/>
	<line x1="1296.68" y1="433.86" x2="1296.68" y2="369.06" style="stroke:#F0F0F0;stroke-width:9.72"/>
	<line x1="1296.68" y1="336.66" x2="1296.68" y2="271.86" style="stroke:#F0F0F0;stroke-width:9.72"/>
	<line x1="1296.68" y1="239.46" x2="1296.68" y2="174.66" style="stroke:#F0F0F0;stroke-width:9.72"/>
	<line x1="1296.68" y1="142.26" x2="1296.68" y2="113.40" style="stroke:#F0F0F0;stroke-width:9.72"/>
	<line x1="1964.42" y1="2766.66" x2="1964.42" y2="2701.86" style="stroke:#F0F0F0;stroke-width:9.72"/>
	<line x1="1964.42" y1="2669.46" x2="1964.42" y2="2604.66" style="stroke:#F0F0F0;stroke-width:9.72"/>
	<line x1="1964.42" y1="2572.26" x2="1964.42" y2="2507.46" style="stroke:#F0F0F0;stroke-width:9.72"/>
	<line x1="1964.42" y1="2475.06" x2="1964.42" y2="2410.26" style="stroke:#F0F0F0;stroke-width:9.72"/>
	<line x1="1964.42" y1="2377.86" x2="1964.42" y2="2313.06" style="stroke:#F0F0F0;stroke-width:9.72"/>
	<line x1="1964.42" y1="2280.66" x2="1964.42" y2="2215.86" style="stroke:#F0F0F0;stroke-width:9.72"/>
	<line x1="1964.42" y1="2183.46" x2="1964.42" y2="2118.66" style="stroke:#F0F0F0;stroke-width:9.72"/>
	<line x1="1964.42" y1="2086.26" x2="1964.42" y2="2021.46" style="stroke:#F0F0F0;stroke-width:9.72"/>
	<line x1="1964.42" y1="1989.06" x2="1964.42" y2="1924.26" style="stroke:#F0F0F0;stroke-width:9.72"/>
	<line x1="1964.42" y1="1891.86" x2="1964.42" y2="1827.06" style="stroke:#F0F0F0;stroke-width:9.72"/>
	<line x1="1964.42" y1="1794.66" x2="1964.42" y2="1729.86" style="stroke:#F0F0F0;stroke-width:9.72"/>
	<line x1="1964.42" y1="1697.46" x2="1964.42" y2="1632.66" style="stroke:#F0F0F0;stroke-width:9.72"/>
	<line x1="1964.42" y1="1600.26" x2="1964.42" y2="1535.46" style="stroke:#F0F0F0;stroke-width:9.72"/>
	<line x1="1964.42" y1="1503.06" x2="1964.42" y2="1438.26" style="stroke:#F0F0F0;stroke-width:9.72"/>
	<line x1="1964.42" y1="1405.86" x2="1964.42" y2="1341.06" style="stroke:#F0F0F0;stroke-width:9.72"/>
	<line x1="1964.42" y1="1308.66" x2="1964.42" y2="1243.86" style="stroke:#F0F0F0;stroke-width:9.72"/>
	<line x1="1964.42" y1="1211.46" x2="1964.42" y2="1146.66" style="stroke:#F0F0F0;stroke-width:9.72"/>
	<line x1="1964.42" y1="1114.26" x2="1964.42" y2="1049.46" style="stroke:#F0F0F0;stroke-width:9.72"/>
	<line x1="1964.42" y1="1017.06" x2="1964.42" y2="952.26" style="stroke:#F0F0F0;stroke-width:9.72"/>
	<line x1="1964.42" y1="919.86" x2="1964.42" y2="855.06" style="stroke:#F0F0F0;stroke-width:9.72"/>
	<line x1="1964.42" y1="822.66" x2="1964.42" y2="757.86" style="stroke:#F0F0F0;stroke-width:9.72"/>
	<line x1="1964.42" y1="725.46" x2="1964.42" y2="660.66" style="stroke:#F0F0F0;stroke-width:9.72"/>
	<line x1="1964.42" y1="628.26" x2="1964.42" y2="563.46" style="stroke:#F0F0F0;stroke-width:9.72"/>
	<line x1="1964.42" y1="531.06" x2="1964.42" y2="466.26" style="stroke:#F0F0F0;stroke-width:9.72"/>
	<line x1="1964.42" y1="433.86" x2="1964.42" y2="369.06" style="stroke:#F0F0F0;stroke-width:9.72"/>
	<line x1="1964.42" y1="336.66" x2="1964.42" y2="271.86" style="stroke:#F0F0F0;stroke-width:9.72"/>
	<line x1="1964.42" y1="239.46" x2="1964.42" y2="174.66" style="stroke:#F0F0F0;stroke-width:9.72"/>
	<line x1="1964.42" y1="142.26" x2="1964.42" y2="113.40" style="stroke:#F0F0F0;stroke-width:9.72"/>
	<line x1="2631.99" y1="2766.66" x2="2631.99" y2="2701.86" style="stroke:#F0F0F0;stroke-width:9.72"/>
	<line x1="2631.99" y1="2669.46" x2="2631.99" y2="2604.66" style="stroke:#F0F0F0;stroke-width:9.72"/>
	<line x1="2631.99" y1="2572.26" x2="2631.99" y2="2507.46" style="stroke:#F0F0F0;stroke-width:9.72"/>
	<line x1="2631.99" y1="2475.06" x2="2631.99" y2="2410.26" style="stroke:#F0F0F0;stroke-width:9.72"/>
	<line x1="2631.99" y1="2377.86" x2="2631.99" y2="2313.06" style="stroke:#F0F0F0;stroke-width:9.72"/>
	<line x1="2631.99" y1="2280.66" x2="2631.99" y2="2215.86" style="stroke:#F0F0F0;stroke-width:9.72"/>
	<line x1="2631.99" y1="2183.46" x2="2631.99" y2="2118.66" style="stroke:#F0F0F0;stroke-width:9.72"/>
	<line x1="2631.99" y1="2086.26" x2="2631.99" y2="2021.46" style="stroke:#F0F0F0;stroke-width:9.72"/>
	<line x1="2631.99" y1="1989.06" x2="2631.99" y2="1924.26" style="stroke:#F0F0F0;stroke-width:9.72"/>
	<line x1="2631.99" y1="1891.86" x2="2631.99" y2="1827.06" style="stroke:#F0F0F0;stroke-width:9.72"/>
	<line x1="2631.99" y1="1794.66" x2="2631.99" y2="1729.86" style="stroke:#F0F0F0;stroke-width:9.72"/>
	<line x1="2631.99" y1="1697.46" x2="2631.99" y2="1632.66" style="stroke:#F0F0F0;stroke-width:9.72"/>
	<line x1="2631.99" y1="1600.26" x2="2631.99" y2="1535.46" style="stroke:#F0F0F0;stroke-width:9.72"/>
	<line x1="2631.99" y1="1503.06" x2="2631.99" y2="1438.26" style="stroke:#F0F0F0;stroke-width:9.72"/>
	<line x1="2631.99" y1="1405.86" x2="2631.99" y2="1341.06" style="stroke:#F0F0F0;stroke-width:9.72"/>
	<line x1="2631.99" y1="1308.66" x2="2631.99" y2="1243.86" style="stroke:#F0F0F0;stroke-width:9.72"/>
	<line x1="2631.99" y1="1211.46" x2="2631.99" y2="1146.66" style="stroke:#F0F0F0;stroke-width:9.72"/>
	<line x1="2631.99" y1="1114.26" x2="2631.99" y2="1049.46" style="stroke:#F0F0F0;stroke-width:9.72"/>
	<line x1="2631.99" y1="1017.06" x2="2631.99" y2="952.26" style="stroke:#F0F0F0;stroke-width:9.72"/>
	<line x1="2631.99" y1="919.86" x2="2631.99" y2="855.06" style="stroke:#F0F0F0;stroke-width:9.72"/>
	<line x1="2631.99" y1="822.66" x2="2631.99" y2="757.86" style="stroke:#F0F0F0;stroke-width:9.72"/>
	<line x1="2631.99" y1="725.46" x2="2631.99" y2="660.66" style="stroke:#F0F0F0;stroke-width:9.72"/>
	<line x1="2631.99" y1="628.26" x2="2631.99" y2="563.46" style="stroke:#F0F0F0;stroke-width:9.72"/>
	<line x1="2631.99" y1="531.06" x2="2631.99" y2="466.26" style="stroke:#F0F0F0;stroke-width:9.72"/>
	<line x1="2631.99" y1="433.86" x2="2631.99" y2="369.06" style="stroke:#F0F0F0;stroke-width:9.72"/>
	<line x1="2631.99" y1="336.66" x2="2631.99" y2="271.86" style="stroke:#F0F0F0;stroke-width:9.72"/>
	<line x1="2631.99" y1="239.46" x2="2631.99" y2="174.66" style="stroke:#F0F0F0;stroke-width:9.72"/>
	<line x1="2631.99" y1="142.26" x2="2631.99" y2="113.40" style="stroke:#F0F0F0;stroke-width:9.72"/>
	<line x1="3299.74" y1="2766.66" x2="3299.74" y2="2701.86" style="stroke:#F0F0F0;stroke-width:9.72"/>
	<line x1="3299.74" y1="2669.46" x2="3299.74" y2="2604.66" style="stroke:#F0F0F0;stroke-width:9.72"/>
	<line x1="3299.74" y1="2572.26" x2="3299.74" y2="2507.46" style="stroke:#F0F0F0;stroke-width:9.72"/>
	<line x1="3299.74" y1="2475.06" x2="3299.74" y2="2410.26" style="stroke:#F0F0F0;stroke-width:9.72"/>
	<line x1="3299.74" y1="2377.86" x2="3299.74" y2="2313.06" style="stroke:#F0F0F0;stroke-width:9.72"/>
	<line x1="3299.74" y1="2280.66" x2="3299.74" y2="2215.86" style="stroke:#F0F0F0;stroke-width:9.72"/>
	<line x1="3299.74" y1="2183.46" x2="3299.74" y2="2118.66" style="stroke:#F0F0F0;stroke-width:9.72"/>
	<line x1="3299.74" y1="2086.26" x2="3299.74" y2="2021.46" style="stroke:#F0F0F0;stroke-width:9.72"/>
	<line x1="3299.74" y1="1989.06" x2="3299.74" y2="1924.26" style="stroke:#F0F0F0;stroke-width:9.72"/>
	<line x1="3299.74" y1="1891.86" x2="3299.74" y2="1827.06" style="stroke:#F0F0F0;stroke-width:9.72"/>
	<line x1="3299.74" y1="1794.66" x2="3299.74" y2="1729.86" style="stroke:#F0F0F0;stroke-width:9.72"/>
	<line x1="3299.74" y1="1697.46" x2="3299.74" y2="1632.66" style="stroke:#F0F0F0;stroke-width:9.72"/>
	<line x1="3299.74" y1="1600.26" x2="3299.74" y2="1535.46" style="stroke:#F0F0F0;stroke-width:9.72"/>
	<line x1="3299.74" y1="1503.06" x2="3299.74" y2="1438.26" style="stroke:#F0F0F0;stroke-width:9.72"/>
	<line x1="3299.74" y1="1405.86" x2="3299.74" y2="1341.06" style="stroke:#F0F0F0;stroke-width:9.72"/>
	<line x1="3299.74" y1="1308.66" x2="3299.74" y2="1243.86" style="stroke:#F0F0F0;stroke-width:9.72"/>
	<line x1="3299.74" y1="1211.46" x2="3299.74" y2="1146.66" style="stroke:#F0F0F0;stroke-width:9.72"/>
	<line x1="3299.74" y1="1114.26" x2="3299.74" y2="1049.46" style="stroke:#F0F0F0;stroke-width:9.72"/>
	<line x1="3299.74" y1="1017.06" x2="3299.74" y2="952.26" style="stroke:#F0F0F0;stroke-width:9.72"/>
	<line x1="3299.74" y1="919.86" x2="3299.74" y2="855.06" style="stroke:#F0F0F0;stroke-width:9.72"/>
	<line x1="3299.74" y1="822.66" x2="3299.74" y2="757.86" style="stroke:#F0F0F0;stroke-width:9.72"/>
	<line x1="3299.74" y1="725.46" x2="3299.74" y2="660.66" style="stroke:#F0F0F0;stroke-width:9.72"/>
	<line x1="3299.74" y1="628.26" x2="3299.74" y2="563.46" style="stroke:#F0F0F0;stroke-width:9.72"/>
	<line x1="3299.74" y1="531.06" x2="3299.74" y2="466.26" style="stroke:#F0F0F0;stroke-width:9.72"/>
	<line x1="3299.74" y1="433.86" x2="3299.74" y2="369.06" style="stroke:#F0F0F0;stroke-width:9.72"/>
	<line x1="3299.74" y1="336.66" x2="3299.74" y2="271.86" style="stroke:#F0F0F0;stroke-width:9.72"/>
	<line x1="3299.74" y1="239.46" x2="3299.74" y2="174.66" style="stroke:#F0F0F0;stroke-width:9.72"/>
	<line x1="3299.74" y1="142.26" x2="3299.74" y2="113.40" style="stroke:#F0F0F0;stroke-width:9.72"/>
	<rect x="1070.55" y="1299.38" width="326.36" height="1467.28" style="fill:#FF8C19;fill-opacity:0.40"/>
	<rect x="1072.98" y="1301.81" width="321.50" height="1462.42" style="fill:none;stroke:#5FAAFF;stroke-width:4.86"/>
	<rect x="1396.91" y="1299.38" width="326.19" height="1467.28" style="fill:#FF8C19;fill-opacity:0.40"/>
	<rect x="1399.34" y="1301.81" width="321.33" height="1462.42" style="fill:none;stroke:#5FAAFF;stroke-width:4.86"/>
	<rect x="1723.11" y="712.46" width="326.36" height="2054.19" style="fill:#FF8C19;fill-opacity:0.40"/>
	<rect x="1725.54" y="714.89" width="321.50" height="2049.33" style="fill:none;stroke:#5FAAFF;stroke-width:4.86"/>
	<rect x="2049.47" y="712.46" width="326.36" height="2054.19" style="fill:#FF8C19;fill-opacity:0.40"/>
	<rect x="2051.90" y="714.89" width="321.50" height="2049.33" style="fill:none;stroke:#5FAAFF;stroke-width:4.86"/>
	<rect x="2375.83" y="1005.92" width="326.36" height="1760.74" style="fill:#FF8C19;fill-opacity:0.40"/>
	<rect x="2378.26" y="1008.35" width="321.50" height="1755.88" style="fill:none;stroke:#5FAAFF;stroke-width:4.86"/>
	<path d=" M1070.38 2306.14 L1075.78 2296.18 L1081.35 2286.06 L1086.75 2275.93 L1092.15 2265.47 L1097.72 2255.01 L1103.12 2244.21 L1108.69 2233.41 L1114.09 2222.44 L1119.49 2211.30 L1125.06 2199.99 L1130.46 2188.52 L1135.86 2176.88 L1141.43 2165.23 L1146.83 2153.25 L1152.22 2141.27 L1157.79 2128.95 L1163.19 2116.63 L1168.59 2104.14 L1174.16 2091.49 L1179.56 2078.83 L1184.96 2065.84 L1190.53 2052.68 L1195.93 2039.51 L1201.33 2026.18 L1206.90 2012.68 L1212.30 1999.01 L1217.70 1985.18 L1223.27 1971.34 L1228.67 1957.16 L1234.07 1942.99 L1239.64 1928.64 L1245.04 1914.13 L1250.44 1899.62 L1256.01 1884.94 L1261.41 1870.09 L1266.81 1855.07 L1272.38 1839.88 L1277.78 1824.69 L1283.18 1809.34 L1288.74 1793.98 L1294.14 1778.29 L1299.54 1762.59 L1305.11 1746.90 L1310.51 1731.04 L1315.91 1715.01 L1321.48 1698.81 L1326.88 1682.61 L1332.28 1666.41 L1337.85 1650.04 L1343.25 1633.50 L1348.65 1616.96 L1354.22 1600.26 L1359.62 1583.55 L1365.02 1566.68 L1370.59 1549.80 L1375.99 1532.93 L1381.56 1515.88 L1386.96 1498.84 L1392.36 1481.79 L1397.93 1464.58 L1403.33 1447.37 L1408.73 1430.16 L1414.29 1412.78 L1419.69 1395.39 L1425.09 1378.01 L1430.66 1360.63 L1436.06 1343.25 L1441.46 1325.70 L1447.03 1308.32 L1452.43 1290.94 L1457.83 1273.39 L1463.40 1255.84 L1468.80 1238.46 L1474.20 1221.08 L1479.77 1203.53 L1485.17 1186.14 L1490.57 1168.76 L1496.14 1151.38 L1501.54 1134.00 L1506.94 1116.79 L1512.51 1099.57 L1517.91 1082.36 L1523.31 1065.15 L1528.88 1048.11 L1534.28 1031.06 L1539.68 1014.19 L1545.24 997.31 L1550.64 980.61 L1556.04 963.90 L1561.61 947.19 L1567.01 930.82 L1572.41 914.29 L1577.98 898.09 L1583.38 881.89 L1588.78 865.86 L1594.35 849.99 L1599.75 834.13 L1605.15 818.44 L1610.72 803.08 L1616.12 787.56 L1621.52 772.37 L1627.09 757.35 L1632.49 742.50 L1637.89 727.82 L1643.46 713.31 L1648.86 698.96 L1654.43 684.79 L1659.83 670.78 L1665.23 656.94 L1670.79 643.44 L1676.19 629.94 L1681.59 616.78 L1687.16 603.79 L1692.56 591.13 L1697.96 578.64 L1703.53 566.32 L1708.93 554.34 L1714.33 542.53 L1719.90 530.89 L1725.30 519.58 L1730.70 508.61 L1736.27 497.81 L1741.67 487.18 L1747.07 476.89 L1752.64 466.93 L1758.04 457.14 L1763.44 447.69 L1769.01 438.58 L1774.41 429.64 L1779.81 421.03 L1785.38 412.76 L1790.78 404.66 L1796.18 396.90 L1801.74 389.47 L1807.14 382.39 L1812.54 375.64 L1818.11 369.06 L1823.51 362.98 L1828.91 357.07 L1834.48 351.51 L1839.88 346.28 L1845.28 341.38 L1850.85 336.66 L1856.25 332.44 L1861.65 328.56 L1867.22 324.84 L1872.62 321.64 L1878.02 318.60 L1883.59 316.07 L1888.99 313.71 L1894.39 311.68 L1899.96 310.16 L1905.36 308.81 L1910.76 307.97 L1916.33 307.29 L1921.73 306.96 L1927.29 307.13 L1932.69 307.46 L1938.09 308.31 L1943.66 309.32 L1949.06 310.67 L1954.46 312.53 L1960.03 314.55 L1965.43 316.91 L1970.83 319.78 L1976.40 322.82 L1981.80 326.19 L1987.20 329.91 L1992.77 334.13 L1998.17 338.51 L2003.57 343.24 L2009.14 348.30 L2014.54 353.53 L2019.94 359.27 L2025.51 365.34 L2030.91 371.59 L2036.31 378.17 L2041.88 385.09 L2047.28 392.34 L2052.68 399.94 L2058.24 407.70 L2063.64 415.97 L2069.04 424.41 L2074.61 433.01 L2080.01 442.13 L2085.41 451.41 L2090.98 460.86 L2096.38 470.81 L2101.78 480.94 L2107.35 491.23 L2112.75 501.86 L2118.15 512.83 L2123.72 523.97 L2129.12 535.44 L2134.52 547.09 L2140.09 558.90 L2145.49 571.05 L2150.89 583.37 L2156.46 596.03 L2161.86 608.85 L2167.26 621.84 L2172.82 635.18 L2178.23 648.68 L2183.63 662.34 L2189.19 676.18 L2194.59 690.19 L2200.16 704.53 L2205.56 718.88 L2210.96 733.56 L2216.53 748.24 L2221.93 763.26 L2227.33 778.28 L2232.90 793.63 L2238.30 808.99 L2243.70 824.51 L2249.27 840.21 L2254.67 856.07 L2260.07 872.10 L2265.64 888.13 L2271.04 904.33 L2276.44 920.70 L2282.01 937.07 L2287.41 953.61 L2292.81 970.31 L2298.38 987.02 L2303.78 1003.89 L2309.18 1020.77 L2314.74 1037.64 L2320.14 1054.69 L2325.54 1071.90 L2331.11 1088.94 L2336.51 1106.16 L2341.91 1123.54 L2347.48 1140.75 L2352.88 1158.13 L2358.28 1175.51 L2363.85 1192.89 L2369.25 1210.28 L2374.65 1227.83 L2380.22 1245.21 L2385.62 1262.76 L2391.02 1280.14 L2396.59 1297.69 L2401.99 1315.07 L2407.39 1332.62 L2412.96 1350.00 L2418.36 1367.38 L2423.76 1384.76 L2429.32 1402.14 L2434.73 1419.53 L2440.13 1436.74 L2445.69 1454.12 L2451.09 1471.16 L2456.49 1488.38 L2462.06 1505.42 L2467.46 1522.46 L2473.03 1539.51 L2478.43 1556.38 L2483.83 1573.26 L2489.40 1590.13 L2494.80 1606.67 L2500.20 1623.38 L2505.77 1639.91 L2511.17 1656.28 L2516.57 1672.65 L2522.14 1689.02 L2527.54 1705.05 L2532.94 1721.25 L2538.51 1737.11 L2543.91 1752.98 L2549.31 1768.84 L2554.88 1784.36 L2560.28 1799.89 L2565.68 1815.41 L2571.24 1830.60 L2576.64 1845.79 L2582.04 1860.81 L2587.61 1875.83 L2593.01 1890.68 L2598.41 1905.36 L2603.98 1919.87 L2609.38 1934.21 L2614.78 1948.56 L2620.35 1962.73 L2625.75 1976.74 L2631.15 1990.58 L2636.72 2004.24 L2642.12 2017.91 L2647.52 2031.41 L2653.09 2044.74 L2658.49 2057.91 L2663.89 2070.90 L2669.46 2083.73 L2674.86 2096.55 L2680.26 2109.04 L2685.83 2121.53 L2691.23 2133.84 L2696.63 2145.99 L2702.19 2157.98" stroke-linejoin="round" style="fill:none;stroke:#000000;stroke-width:9.72"/>
	<rect x="1018.41" y="473.85" width="459.51" height="2292.81" style="fill:#198DFF;fill-opacity:0.50"/>
	<rect x="1020.84" y="476.28" width="454.65" height="2287.95" style="fill:none;stroke:#5FAAFF;stroke-width:4.86"/>
	<rect x="1477.91" y="890.83" width="459.51" height="1875.82" style="fill:#198DFF;fill-opacity:0.50"/>
	<rect x="1480.34" y="893.26" width="454.65" height="1870.97" style="fill:none;stroke:#5FAAFF;stroke-width:4.86"/>
	<rect x="1937.42" y="1307.64" width="459.51" height="1459.01" style="fill:#198DFF;fill-opacity:0.50"/>
	<rect x="1939.85" y="1310.07" width="454.65" height="1454.15" style="fill:none;stroke:#5FAAFF;stroke-width:4.86"/>
	<rect x="2396.93" y="2349.68" width="459.51" height="416.98" style="fill:#198DFF;fill-opacity:0.50"/>
	<rect x="2399.36" y="2352.11" width="454.65" height="412.12" style="fill:none;stroke:#5FAAFF;stroke-width:4.86"/>
	<rect x="2856.43" y="2558.25" width="459.51" height="208.41" style="fill:#198DFF;fill-opacity:0.50"/>
	<rect x="2858.86" y="2560.68" width="454.65" height="203.55" style="fill:none;stroke:#5FAAFF;stroke-width:4.86"/>
	<line x1="557.72" y1="2766.66" x2="557.72" y2="113.40" style="stroke:#000000;stroke-width:6.48"/>
	<line x1="557.72" y1="2766.66" x2="512.83" y2="2766.66" style="stroke:#000000;stroke-width:6.48"/>
	<text x="490.22" y="2806.09" style="font-family:'Helvetica';font-size:112.56px;fill:#000000" text-anchor="end">0</text>
	<line x1="557.72" y1="1906.03" x2="512.83" y2="1906.03" style="stroke:#000000;stroke-width:6.48"/>
	<text x="490.22" y="1945.47" style="font-family:'Helvetica';font-size:112.56px;fill:#000000" text-anchor="end">.01</text>
	<line x1="557.72" y1="1045.41" x2="512.83" y2="1045.41" style="stroke:#000000;stroke-width:6.48"/>
	<text x="490.22" y="1084.84" style="font-family:'Helvetica';font-size:112.56px;fill:#000000" text-anchor="end">.02</text>
	<line x1="557.72" y1="184.61" x2="512.83" y2="184.61" style="stroke:#000000;stroke-width:6.48"/>
	<text x="490.22" y="224.05" style="font-family:'Helvetica';font-size:112.56px;fill:#000000" text-anchor="end">.03</text>
	<text x="214.55" y="1439.94" style="font-family:'Helvetica';font-size:112.56px;fill:#000000" transform="rotate(-90 214.55,1439.94)" text-anchor="middle">Density</text>
	<line x1="557.72" y1="2766.66" x2="3387.15" y2="2766.66" style="stroke:#000000;stroke-width:6.48"/>
	<line x1="629.10" y1="2766.66" x2="629.10" y2="2811.54" style="stroke:#000000;stroke-width:6.48"/>
	<text x="629.10" y="2912.86" style="font-family:'Helvetica';font-size:112.56px;fill:#000000" text-anchor="middle">20</text>
	<line x1="1296.68" y1="2766.66" x2="1296.68" y2="2811.54" style="stroke:#000000;stroke-width:6.48"/>
	<text x="1296.68" y="2912.86" style="font-family:'Helvetica';font-size:112.56px;fill:#000000" text-anchor="middle">40</text>
	<line x1="1964.42" y1="2766.66" x2="1964.42" y2="2811.54" style="stroke:#000000;stroke-width:6.48"/>
	<text x="1964.42" y="2912.86" style="font-family:'Helvetica';font-size:112.56px;fill:#000000" text-anchor="middle">60</text>
	<line x1="2631.99" y1="2766.66" x2="2631.99" y2="2811.54" style="stroke:#000000;stroke-width:6.48"/>
	<text x="2631.99" y="2912.86" style="font-family:'Helvetica';font-size:112.56px;fill:#000000" text-anchor="middle">80</text>
	<line x1="3299.74" y1="2766.66" x2="3299.74" y2="2811.54" style="stroke:#000000;stroke-width:6.48"/>
	<text x="3299.74" y="2912.86" style="font-family:'Helvetica';font-size:112.56px;fill:#000000" text-anchor="middle">100</text>
	<text x="1972.52" y="3070.31" style="font-family:'Helvetica';font-size:112.56px;fill:#000000" text-anchor="middle">age</text>
	<rect x="3425.96" y="1177.71" width="1821.83" height="524.64" style="fill:#FFFFFF"/>
	<rect x="3429.20" y="1180.95" width="1815.35" height="518.16" style="fill:none;stroke:#FFFFFF;stroke-width:6.48"/>
	<rect x="3474.56" y="1226.31" width="259.20" height="112.39" style="fill:#FF8C19;fill-opacity:0.40"/>
	<rect x="3476.99" y="1228.74" width="254.34" height="107.53" style="fill:none;stroke:#5FAAFF;stroke-width:4.86"/>
	<line x1="3474.56" y1="1439.94" x2="3733.76" y2="1439.94" style="stroke:#000000;stroke-width:9.72"/>
	<rect x="3474.56" y="1541.19" width="259.20" height="112.56" style="fill:#198DFF;fill-opacity:0.50"/>
	<rect x="3476.99" y="1543.62" width="254.34" height="107.70" style="fill:none;stroke:#5FAAFF;stroke-width:4.86"/>
	<text x="3801.26" y="1321.94" style="font-family:'Helvetica';font-size:112.56px;fill:#000000">Sampled from Normal</text>
	<text x="3801.26" y="1479.38" style="font-family:'Helvetica';font-size:112.56px;fill:#000000">Theoretical Normal</text>
	<text x="3801.26" y="1636.99" style="font-family:'Helvetica';font-size:112.56px;fill:#000000">Sampled from t-distribution</text>
</svg>
