<?xml version="1.0" encoding="UTF-8" standalone="no"?>
<!-- This is a Stata 18.0 generated SVG file (http://www.stata.com) -->

<svg version="1.1" width="7.500in" height="4.500in" viewBox="0 0 5400 3240" xmlns="http://www.w3.org/2000/svg" xmlns:xlink="http://www.w3.org/1999/xlink">
	<desc>Stata Graph - Graph</desc>
	<rect x="0" y="0" width="5400" height="3240" style="fill:#FFFFFF;stroke:none"/>
	<rect x="0.00" y="0.00" width="5400.00" height="3240.00" style="fill:#FFFFFF"/>
	<rect x="3.24" y="3.24" width="5393.52" height="3233.52" style="fill:none;stroke:#FFFFFF;stroke-width:6.48"/>
	<rect x="623.36" y="113.40" width="2763.79" height="2653.26" style="fill:#FFFFFF"/>
	<rect x="626.60" y="116.64" width="2757.31" height="2646.78" style="fill:none;stroke:#FFFFFF;stroke-width:6.48"/>
	<line x1="623.36" y1="2766.66" x2="688.16" y2="2766.66" style="stroke:#F0F0F0;stroke-width:9.72"/>
	<line x1="720.56" y1="2766.66" x2="785.36" y2="2766.66" style="stroke:#F0F0F0;stroke-width:9.72"/>
	<line x1="817.76" y1="2766.66" x2="882.56" y2="2766.66" style="stroke:#F0F0F0;stroke-width:9.72"/>
	<line x1="914.96" y1="2766.66" x2="979.76" y2="2766.66" style="stroke:#F0F0F0;stroke-width:9.72"/>
	<line x1="1012.16" y1="2766.66" x2="1076.96" y2="2766.66" style="stroke:#F0F0F0;stroke-width:9.72"/>
	<line x1="1109.36" y1="2766.66" x2="1174.16" y2="2766.66" style="stroke:#F0F0F0;stroke-width:9.72"/>
	<line x1="1206.56" y1="2766.66" x2="1271.36" y2="2766.66" style="stroke:#F0F0F0;stroke-width:9.72"/>
	<line x1="1303.76" y1="2766.66" x2="1368.56" y2="2766.66" style="stroke:#F0F0F0;stroke-width:9.72"/>
	<line x1="1400.96" y1="2766.66" x2="1465.76" y2="2766.66" style="stroke:#F0F0F0;stroke-width:9.72"/>
	<line x1="1498.16" y1="2766.66" x2="1562.96" y2="2766.66" style="stroke:#F0F0F0;stroke-width:9.72"/>
	<line x1="1595.36" y1="2766.66" x2="1660.16" y2="2766.66" style="stroke:#F0F0F0;stroke-width:9.72"/>
	<line x1="1692.56" y1="2766.66" x2="1757.36" y2="2766.66" style="stroke:#F0F0F0;stroke-width:9.72"/>
	<line x1="1789.76" y1="2766.66" x2="1854.56" y2="2766.66" style="stroke:#F0F0F0;stroke-width:9.72"/>
	<line x1="1886.96" y1="2766.66" x2="1951.76" y2="2766.66" style="stroke:#F0F0F0;stroke-width:9.72"/>
	<line x1="1984.16" y1="2766.66" x2="2048.96" y2="2766.66" style="stroke:#F0F0F0;stroke-width:9.72"/>
	<line x1="2081.36" y1="2766.66" x2="2146.16" y2="2766.66" style="stroke:#F0F0F0;stroke-width:9.72"/>
	<line x1="2178.56" y1="2766.66" x2="2243.36" y2="2766.66" style="stroke:#F0F0F0;stroke-width:9.72"/>
	<line x1="2275.76" y1="2766.66" x2="2340.56" y2="2766.66" style="stroke:#F0F0F0;stroke-width:9.72"/>
	<line x1="2372.96" y1="2766.66" x2="2437.76" y2="2766.66" style="stroke:#F0F0F0;stroke-width:9.72"/>
	<line x1="2470.16" y1="2766.66" x2="2534.96" y2="2766.66" style="stroke:#F0F0F0;stroke-width:9.72"/>
	<line x1="2567.36" y1="2766.66" x2="2632.16" y2="2766.66" style="stroke:#F0F0F0;stroke-width:9.72"/>
	<line x1="2664.56" y1="2766.66" x2="2729.36" y2="2766.66" style="stroke:#F0F0F0;stroke-width:9.72"/>
	<line x1="2761.76" y1="2766.66" x2="2826.56" y2="2766.66" style="stroke:#F0F0F0;stroke-width:9.72"/>
	<line x1="2858.96" y1="2766.66" x2="2923.76" y2="2766.66" style="stroke:#F0F0F0;stroke-width:9.72"/>
	<line x1="2956.16" y1="2766.66" x2="3020.96" y2="2766.66" style="stroke:#F0F0F0;stroke-width:9.72"/>
	<line x1="3053.36" y1="2766.66" x2="3118.16" y2="2766.66" style="stroke:#F0F0F0;stroke-width:9.72"/>
	<line x1="3150.56" y1="2766.66" x2="3215.36" y2="2766.66" style="stroke:#F0F0F0;stroke-width:9.72"/>
	<line x1="3247.76" y1="2766.66" x2="3312.56" y2="2766.66" style="stroke:#F0F0F0;stroke-width:9.72"/>
	<line x1="3344.96" y1="2766.66" x2="3387.15" y2="2766.66" style="stroke:#F0F0F0;stroke-width:9.72"/>
	<line x1="623.36" y1="2250.28" x2="688.16" y2="2250.28" style="stroke:#F0F0F0;stroke-width:9.72"/>
	<line x1="720.56" y1="2250.28" x2="785.36" y2="2250.28" style="stroke:#F0F0F0;stroke-width:9.72"/>
	<line x1="817.76" y1="2250.28" x2="882.56" y2="2250.28" style="stroke:#F0F0F0;stroke-width:9.72"/>
	<line x1="914.96" y1="2250.28" x2="979.76" y2="2250.28" style="stroke:#F0F0F0;stroke-width:9.72"/>
	<line x1="1012.16" y1="2250.28" x2="1076.96" y2="2250.28" style="stroke:#F0F0F0;stroke-width:9.72"/>
	<line x1="1109.36" y1="2250.28" x2="1174.16" y2="2250.28" style="stroke:#F0F0F0;stroke-width:9.72"/>
	<line x1="1206.56" y1="2250.28" x2="1271.36" y2="2250.28" style="stroke:#F0F0F0;stroke-width:9.72"/>
	<line x1="1303.76" y1="2250.28" x2="1368.56" y2="2250.28" style="stroke:#F0F0F0;stroke-width:9.72"/>
	<line x1="1400.96" y1="2250.28" x2="1465.76" y2="2250.28" style="stroke:#F0F0F0;stroke-width:9.72"/>
	<line x1="1498.16" y1="2250.28" x2="1562.96" y2="2250.28" style="stroke:#F0F0F0;stroke-width:9.72"/>
	<line x1="1595.36" y1="2250.28" x2="1660.16" y2="2250.28" style="stroke:#F0F0F0;stroke-width:9.72"/>
	<line x1="1692.56" y1="2250.28" x2="1757.36" y2="2250.28" style="stroke:#F0F0F0;stroke-width:9.72"/>
	<line x1="1789.76" y1="2250.28" x2="1854.56" y2="2250.28" style="stroke:#F0F0F0;stroke-width:9.72"/>
	<line x1="1886.96" y1="2250.28" x2="1951.76" y2="2250.28" style="stroke:#F0F0F0;stroke-width:9.72"/>
	<line x1="1984.16" y1="2250.28" x2="2048.96" y2="2250.28" style="stroke:#F0F0F0;stroke-width:9.72"/>
	<line x1="2081.36" y1="2250.28" x2="2146.16" y2="2250.28" style="stroke:#F0F0F0;stroke-width:9.72"/>
	<line x1="2178.56" y1="2250.28" x2="2243.36" y2="2250.28" style="stroke:#F0F0F0;stroke-width:9.72"/>
	<line x1="2275.76" y1="2250.28" x2="2340.56" y2="2250.28" style="stroke:#F0F0F0;stroke-width:9.72"/>
	<line x1="2372.96" y1="2250.28" x2="2437.76" y2="2250.28" style="stroke:#F0F0F0;stroke-width:9.72"/>
	<line x1="2470.16" y1="2250.28" x2="2534.96" y2="2250.28" style="stroke:#F0F0F0;stroke-width:9.72"/>
	<line x1="2567.36" y1="2250.28" x2="2632.16" y2="2250.28" style="stroke:#F0F0F0;stroke-width:9.72"/>
	<line x1="2664.56" y1="2250.28" x2="2729.36" y2="2250.28" style="stroke:#F0F0F0;stroke-width:9.72"/>
	<line x1="2761.76" y1="2250.28" x2="2826.56" y2="2250.28" style="stroke:#F0F0F0;stroke-width:9.72"/>
	<line x1="2858.96" y1="2250.28" x2="2923.76" y2="2250.28" style="stroke:#F0F0F0;stroke-width:9.72"/>
	<line x1="2956.16" y1="2250.28" x2="3020.96" y2="2250.28" style="stroke:#F0F0F0;stroke-width:9.72"/>
	<line x1="3053.36" y1="2250.28" x2="3118.16" y2="2250.28" style="stroke:#F0F0F0;stroke-width:9.72"/>
	<line x1="3150.56" y1="2250.28" x2="3215.36" y2="2250.28" style="stroke:#F0F0F0;stroke-width:9.72"/>
	<line x1="3247.76" y1="2250.28" x2="3312.56" y2="2250.28" style="stroke:#F0F0F0;stroke-width:9.72"/>
	<line x1="3344.96" y1="2250.28" x2="3387.15" y2="2250.28" style="stroke:#F0F0F0;stroke-width:9.72"/>
	<line x1="623.36" y1="1733.91" x2="688.16" y2="1733.91" style="stroke:#F0F0F0;stroke-width:9.72"/>
	<line x1="720.56" y1="1733.91" x2="785.36" y2="1733.91" style="stroke:#F0F0F0;stroke-width:9.72"/>
	<line x1="817.76" y1="1733.91" x2="882.56" y2="1733.91" style="stroke:#F0F0F0;stroke-width:9.72"/>
	<line x1="914.96" y1="1733.91" x2="979.76" y2="1733.91" style="stroke:#F0F0F0;stroke-width:9.72"/>
	<line x1="1012.16" y1="1733.91" x2="1076.96" y2="1733.91" style="stroke:#F0F0F0;stroke-width:9.72"/>
	<line x1="1109.36" y1="1733.91" x2="1174.16" y2="1733.91" style="stroke:#F0F0F0;stroke-width:9.72"/>
	<line x1="1206.56" y1="1733.91" x2="1271.36" y2="1733.91" style="stroke:#F0F0F0;stroke-width:9.72"/>
	<line x1="1303.76" y1="1733.91" x2="1368.56" y2="1733.91" style="stroke:#F0F0F0;stroke-width:9.72"/>
	<line x1="1400.96" y1="1733.91" x2="1465.76" y2="1733.91" style="stroke:#F0F0F0;stroke-width:9.72"/>
	<line x1="1498.16" y1="1733.91" x2="1562.96" y2="1733.91" style="stroke:#F0F0F0;stroke-width:9.72"/>
	<line x1="1595.36" y1="1733.91" x2="1660.16" y2="1733.91" style="stroke:#F0F0F0;stroke-width:9.72"/>
	<line x1="1692.56" y1="1733.91" x2="1757.36" y2="1733.91" style="stroke:#F0F0F0;stroke-width:9.72"/>
	<line x1="1789.76" y1="1733.91" x2="1854.56" y2="1733.91" style="stroke:#F0F0F0;stroke-width:9.72"/>
	<line x1="1886.96" y1="1733.91" x2="1951.76" y2="1733.91" style="stroke:#F0F0F0;stroke-width:9.72"/>
	<line x1="1984.16" y1="1733.91" x2="2048.96" y2="1733.91" style="stroke:#F0F0F0;stroke-width:9.72"/>
	<line x1="2081.36" y1="1733.91" x2="2146.16" y2="1733.91" style="stroke:#F0F0F0;stroke-width:9.72"/>
	<line x1="2178.56" y1="1733.91" x2="2243.36" y2="1733.91" style="stroke:#F0F0F0;stroke-width:9.72"/>
	<line x1="2275.76" y1="1733.91" x2="2340.56" y2="1733.91" style="stroke:#F0F0F0;stroke-width:9.72"/>
	<line x1="2372.96" y1="1733.91" x2="2437.76" y2="1733.91" style="stroke:#F0F0F0;stroke-width:9.72"/>
	<line x1="2470.16" y1="1733.91" x2="2534.96" y2="1733.91" style="stroke:#F0F0F0;stroke-width:9.72"/>
	<line x1="2567.36" y1="1733.91" x2="2632.16" y2="1733.91" style="stroke:#F0F0F0;stroke-width:9.72"/>
	<line x1="2664.56" y1="1733.91" x2="2729.36" y2="1733.91" style="stroke:#F0F0F0;stroke-width:9.72"/>
	<line x1="2761.76" y1="1733.91" x2="2826.56" y2="1733.91" style="stroke:#F0F0F0;stroke-width:9.72"/>
	<line x1="2858.96" y1="1733.91" x2="2923.76" y2="1733.91" style="stroke:#F0F0F0;stroke-width:9.72"/>
	<line x1="2956.16" y1="1733.91" x2="3020.96" y2="1733.91" style="stroke:#F0F0F0;stroke-width:9.72"/>
	<line x1="3053.36" y1="1733.91" x2="3118.16" y2="1733.91" style="stroke:#F0F0F0;stroke-width:9.72"/>
	<line x1="3150.56" y1="1733.91" x2="3215.36" y2="1733.91" style="stroke:#F0F0F0;stroke-width:9.72"/>
	<line x1="3247.76" y1="1733.91" x2="3312.56" y2="1733.91" style="stroke:#F0F0F0;stroke-width:9.72"/>
	<line x1="3344.96" y1="1733.91" x2="3387.15" y2="1733.91" style="stroke:#F0F0F0;stroke-width:9.72"/>
	<line x1="623.36" y1="1217.53" x2="688.16" y2="1217.53" style="stroke:#F0F0F0;stroke-width:9.72"/>
	<line x1="720.56" y1="1217.53" x2="785.36" y2="1217.53" style="stroke:#F0F0F0;stroke-width:9.72"/>
	<line x1="817.76" y1="1217.53" x2="882.56" y2="1217.53" style="stroke:#F0F0F0;stroke-width:9.72"/>
	<line x1="914.96" y1="1217.53" x2="979.76" y2="1217.53" style="stroke:#F0F0F0;stroke-width:9.72"/>
	<line x1="1012.16" y1="1217.53" x2="1076.96" y2="1217.53" style="stroke:#F0F0F0;stroke-width:9.72"/>
	<line x1="1109.36" y1="1217.53" x2="1174.16" y2="1217.53" style="stroke:#F0F0F0;stroke-width:9.72"/>
	<line x1="1206.56" y1="1217.53" x2="1271.36" y2="1217.53" style="stroke:#F0F0F0;stroke-width:9.72"/>
	<line x1="1303.76" y1="1217.53" x2="1368.56" y2="1217.53" style="stroke:#F0F0F0;stroke-width:9.72"/>
	<line x1="1400.96" y1="1217.53" x2="1465.76" y2="1217.53" style="stroke:#F0F0F0;stroke-width:9.72"/>
	<line x1="1498.16" y1="1217.53" x2="1562.96" y2="1217.53" style="stroke:#F0F0F0;stroke-width:9.72"/>
	<line x1="1595.36" y1="1217.53" x2="1660.16" y2="1217.53" style="stroke:#F0F0F0;stroke-width:9.72"/>
	<line x1="1692.56" y1="1217.53" x2="1757.36" y2="1217.53" style="stroke:#F0F0F0;stroke-width:9.72"/>
	<line x1="1789.76" y1="1217.53" x2="1854.56" y2="1217.53" style="stroke:#F0F0F0;stroke-width:9.72"/>
	<line x1="1886.96" y1="1217.53" x2="1951.76" y2="1217.53" style="stroke:#F0F0F0;stroke-width:9.72"/>
	<line x1="1984.16" y1="1217.53" x2="2048.96" y2="1217.53" style="stroke:#F0F0F0;stroke-width:9.72"/>
	<line x1="2081.36" y1="1217.53" x2="2146.16" y2="1217.53" style="stroke:#F0F0F0;stroke-width:9.72"/>
	<line x1="2178.56" y1="1217.53" x2="2243.36" y2="1217.53" style="stroke:#F0F0F0;stroke-width:9.72"/>
	<line x1="2275.76" y1="1217.53" x2="2340.56" y2="1217.53" style="stroke:#F0F0F0;stroke-width:9.72"/>
	<line x1="2372.96" y1="1217.53" x2="2437.76" y2="1217.53" style="stroke:#F0F0F0;stroke-width:9.72"/>
	<line x1="2470.16" y1="1217.53" x2="2534.96" y2="1217.53" style="stroke:#F0F0F0;stroke-width:9.72"/>
	<line x1="2567.36" y1="1217.53" x2="2632.16" y2="1217.53" style="stroke:#F0F0F0;stroke-width:9.72"/>
	<line x1="2664.56" y1="1217.53" x2="2729.36" y2="1217.53" style="stroke:#F0F0F0;stroke-width:9.72"/>
	<line x1="2761.76" y1="1217.53" x2="2826.56" y2="1217.53" style="stroke:#F0F0F0;stroke-width:9.72"/>
	<line x1="2858.96" y1="1217.53" x2="2923.76" y2="1217.53" style="stroke:#F0F0F0;stroke-width:9.72"/>
	<line x1="2956.16" y1="1217.53" x2="3020.96" y2="1217.53" style="stroke:#F0F0F0;stroke-width:9.72"/>
	<line x1="3053.36" y1="1217.53" x2="3118.16" y2="1217.53" style="stroke:#F0F0F0;stroke-width:9.72"/>
	<line x1="3150.56" y1="1217.53" x2="3215.36" y2="1217.53" style="stroke:#F0F0F0;stroke-width:9.72"/>
	<line x1="3247.76" y1="1217.53" x2="3312.56" y2="1217.53" style="stroke:#F0F0F0;stroke-width:9.72"/>
	<line x1="3344.96" y1="1217.53" x2="3387.15" y2="1217.53" style="stroke:#F0F0F0;stroke-width:9.72"/>
	<line x1="623.36" y1="700.99" x2="688.16" y2="700.99" style="stroke:#F0F0F0;stroke-width:9.72"/>
	<line x1="720.56" y1="700.99" x2="785.36" y2="700.99" style="stroke:#F0F0F0;stroke-width:9.72"/>
	<line x1="817.76" y1="700.99" x2="882.56" y2="700.99" style="stroke:#F0F0F0;stroke-width:9.72"/>
	<line x1="914.96" y1="700.99" x2="979.76" y2="700.99" style="stroke:#F0F0F0;stroke-width:9.72"/>
	<line x1="1012.16" y1="700.99" x2="1076.96" y2="700.99" style="stroke:#F0F0F0;stroke-width:9.72"/>
	<line x1="1109.36" y1="700.99" x2="1174.16" y2="700.99" style="stroke:#F0F0F0;stroke-width:9.72"/>
	<line x1="1206.56" y1="700.99" x2="1271.36" y2="700.99" style="stroke:#F0F0F0;stroke-width:9.72"/>
	<line x1="1303.76" y1="700.99" x2="1368.56" y2="700.99" style="stroke:#F0F0F0;stroke-width:9.72"/>
	<line x1="1400.96" y1="700.99" x2="1465.76" y2="700.99" style="stroke:#F0F0F0;stroke-width:9.72"/>
	<line x1="1498.16" y1="700.99" x2="1562.96" y2="700.99" style="stroke:#F0F0F0;stroke-width:9.72"/>
	<line x1="1595.36" y1="700.99" x2="1660.16" y2="700.99" style="stroke:#F0F0F0;stroke-width:9.72"/>
	<line x1="1692.56" y1="700.99" x2="1757.36" y2="700.99" style="stroke:#F0F0F0;stroke-width:9.72"/>
	<line x1="1789.76" y1="700.99" x2="1854.56" y2="700.99" style="stroke:#F0F0F0;stroke-width:9.72"/>
	<line x1="1886.96" y1="700.99" x2="1951.76" y2="700.99" style="stroke:#F0F0F0;stroke-width:9.72"/>
	<line x1="1984.16" y1="700.99" x2="2048.96" y2="700.99" style="stroke:#F0F0F0;stroke-width:9.72"/>
	<line x1="2081.36" y1="700.99" x2="2146.16" y2="700.99" style="stroke:#F0F0F0;stroke-width:9.72"/>
	<line x1="2178.56" y1="700.99" x2="2243.36" y2="700.99" style="stroke:#F0F0F0;stroke-width:9.72"/>
	<line x1="2275.76" y1="700.99" x2="2340.56" y2="700.99" style="stroke:#F0F0F0;stroke-width:9.72"/>
	<line x1="2372.96" y1="700.99" x2="2437.76" y2="700.99" style="stroke:#F0F0F0;stroke-width:9.72"/>
	<line x1="2470.16" y1="700.99" x2="2534.96" y2="700.99" style="stroke:#F0F0F0;stroke-width:9.72"/>
	<line x1="2567.36" y1="700.99" x2="2632.16" y2="700.99" style="stroke:#F0F0F0;stroke-width:9.72"/>
	<line x1="2664.56" y1="700.99" x2="2729.36" y2="700.99" style="stroke:#F0F0F0;stroke-width:9.72"/>
	<line x1="2761.76" y1="700.99" x2="2826.56" y2="700.99" style="stroke:#F0F0F0;stroke-width:9.72"/>
	<line x1="2858.96" y1="700.99" x2="2923.76" y2="700.99" style="stroke:#F0F0F0;stroke-width:9.72"/>
	<line x1="2956.16" y1="700.99" x2="3020.96" y2="700.99" style="stroke:#F0F0F0;stroke-width:9.72"/>
	<line x1="3053.36" y1="700.99" x2="3118.16" y2="700.99" style="stroke:#F0F0F0;stroke-width:9.72"/>
	<line x1="3150.56" y1="700.99" x2="3215.36" y2="700.99" style="stroke:#F0F0F0;stroke-width:9.72"/>
	<line x1="3247.76" y1="700.99" x2="3312.56" y2="700.99" style="stroke:#F0F0F0;stroke-width:9.72"/>
	<line x1="3344.96" y1="700.99" x2="3387.15" y2="700.99" style="stroke:#F0F0F0;stroke-width:9.72"/>
	<line x1="623.36" y1="184.61" x2="688.16" y2="184.61" style="stroke:#F0F0F0;stroke-width:9.72"/>
	<line x1="720.56" y1="184.61" x2="785.36" y2="184.61" style="stroke:#F0F0F0;stroke-width:9.72"/>
	<line x1="817.76" y1="184.61" x2="882.56" y2="184.61" style="stroke:#F0F0F0;stroke-width:9.72"/>
	<line x1="914.96" y1="184.61" x2="979.76" y2="184.61" style="stroke:#F0F0F0;stroke-width:9.72"/>
	<line x1="1012.16" y1="184.61" x2="1076.96" y2="184.61" style="stroke:#F0F0F0;stroke-width:9.72"/>
	<line x1="1109.36" y1="184.61" x2="1174.16" y2="184.61" style="stroke:#F0F0F0;stroke-width:9.72"/>
	<line x1="1206.56" y1="184.61" x2="1271.36" y2="184.61" style="stroke:#F0F0F0;stroke-width:9.72"/>
	<line x1="1303.76" y1="184.61" x2="1368.56" y2="184.61" style="stroke:#F0F0F0;stroke-width:9.72"/>
	<line x1="1400.96" y1="184.61" x2="1465.76" y2="184.61" style="stroke:#F0F0F0;stroke-width:9.72"/>
	<line x1="1498.16" y1="184.61" x2="1562.96" y2="184.61" style="stroke:#F0F0F0;stroke-width:9.72"/>
	<line x1="1595.36" y1="184.61" x2="1660.16" y2="184.61" style="stroke:#F0F0F0;stroke-width:9.72"/>
	<line x1="1692.56" y1="184.61" x2="1757.36" y2="184.61" style="stroke:#F0F0F0;stroke-width:9.72"/>
	<line x1="1789.76" y1="184.61" x2="1854.56" y2="184.61" style="stroke:#F0F0F0;stroke-width:9.72"/>
	<line x1="1886.96" y1="184.61" x2="1951.76" y2="184.61" style="stroke:#F0F0F0;stroke-width:9.72"/>
	<line x1="1984.16" y1="184.61" x2="2048.96" y2="184.61" style="stroke:#F0F0F0;stroke-width:9.72"/>
	<line x1="2081.36" y1="184.61" x2="2146.16" y2="184.61" style="stroke:#F0F0F0;stroke-width:9.72"/>
	<line x1="2178.56" y1="184.61" x2="2243.36" y2="184.61" style="stroke:#F0F0F0;stroke-width:9.72"/>
	<line x1="2275.76" y1="184.61" x2="2340.56" y2="184.61" style="stroke:#F0F0F0;stroke-width:9.72"/>
	<line x1="2372.96" y1="184.61" x2="2437.76" y2="184.61" style="stroke:#F0F0F0;stroke-width:9.72"/>
	<line x1="2470.16" y1="184.61" x2="2534.96" y2="184.61" style="stroke:#F0F0F0;stroke-width:9.72"/>
	<line x1="2567.36" y1="184.61" x2="2632.16" y2="184.61" style="stroke:#F0F0F0;stroke-width:9.72"/>
	<line x1="2664.56" y1="184.61" x2="2729.36" y2="184.61" style="stroke:#F0F0F0;stroke-width:9.72"/>
	<line x1="2761.76" y1="184.61" x2="2826.56" y2="184.61" style="stroke:#F0F0F0;stroke-width:9.72"/>
	<line x1="2858.96" y1="184.61" x2="2923.76" y2="184.61" style="stroke:#F0F0F0;stroke-width:9.72"/>
	<line x1="2956.16" y1="184.61" x2="3020.96" y2="184.61" style="stroke:#F0F0F0;stroke-width:9.72"/>
	<line x1="3053.36" y1="184.61" x2="3118.16" y2="184.61" style="stroke:#F0F0F0;stroke-width:9.72"/>
	<line x1="3150.56" y1="184.61" x2="3215.36" y2="184.61" style="stroke:#F0F0F0;stroke-width:9.72"/>
	<line x1="3247.76" y1="184.61" x2="3312.56" y2="184.61" style="stroke:#F0F0F0;stroke-width:9.72"/>
	<line x1="3344.96" y1="184.61" x2="3387.15" y2="184.61" style="stroke:#F0F0F0;stroke-width:9.72"/>
	<line x1="1023.81" y1="2766.66" x2="1023.81" y2="2701.86" style="stroke:#F0F0F0;stroke-width:9.72"/>
	<line x1="1023.81" y1="2669.46" x2="1023.81" y2="2604.66" style="stroke:#F0F0F0;stroke-width:9.72"/>
	<line x1="1023.81" y1="2572.26" x2="1023.81" y2="2507.46" style="stroke:#F0F0F0;stroke-width:9.72"/>
	<line x1="1023.81" y1="2475.06" x2="1023.81" y2="2410.26" style="stroke:#F0F0F0;stroke-width:9.72"/>
	<line x1="1023.81" y1="2377.86" x2="1023.81" y2="2313.06" style="stroke:#F0F0F0;stroke-width:9.72"/>
	<line x1="1023.81" y1="2280.66" x2="1023.81" y2="2215.86" style="stroke:#F0F0F0;stroke-width:9.72"/>
	<line x1="1023.81" y1="2183.46" x2="1023.81" y2="2118.66" style="stroke:#F0F0F0;stroke-width:9.72"/>
	<line x1="1023.81" y1="2086.26" x2="1023.81" y2="2021.46" style="stroke:#F0F0F0;stroke-width:9.72"/>
	<line x1="1023.81" y1="1989.06" x2="1023.81" y2="1924.26" style="stroke:#F0F0F0;stroke-width:9.72"/>
	<line x1="1023.81" y1="1891.86" x2="1023.81" y2="1827.06" style="stroke:#F0F0F0;stroke-width:9.72"/>
	<line x1="1023.81" y1="1794.66" x2="1023.81" y2="1729.86" style="stroke:#F0F0F0;stroke-width:9.72"/>
	<line x1="1023.81" y1="1697.46" x2="1023.81" y2="1632.66" style="stroke:#F0F0F0;stroke-width:9.72"/>
	<line x1="1023.81" y1="1600.26" x2="1023.81" y2="1535.46" style="stroke:#F0F0F0;stroke-width:9.72"/>
	<line x1="1023.81" y1="1503.06" x2="1023.81" y2="1438.26" style="stroke:#F0F0F0;stroke-width:9.72"/>
	<line x1="1023.81" y1="1405.86" x2="1023.81" y2="1341.06" style="stroke:#F0F0F0;stroke-width:9.72"/>
	<line x1="1023.81" y1="1308.66" x2="1023.81" y2="1243.86" style="stroke:#F0F0F0;stroke-width:9.72"/>
	<line x1="1023.81" y1="1211.46" x2="1023.81" y2="1146.66" style="stroke:#F0F0F0;stroke-width:9.72"/>
	<line x1="1023.81" y1="1114.26" x2="1023.81" y2="1049.46" style="stroke:#F0F0F0;stroke-width:9.72"/>
	<line x1="1023.81" y1="1017.06" x2="1023.81" y2="952.26" style="stroke:#F0F0F0;stroke-width:9.72"/>
	<line x1="1023.81" y1="919.86" x2="1023.81" y2="855.06" style="stroke:#F0F0F0;stroke-width:9.72"/>
	<line x1="1023.81" y1="822.66" x2="1023.81" y2="757.86" style="stroke:#F0F0F0;stroke-width:9.72"/>
	<line x1="1023.81" y1="725.46" x2="1023.81" y2="660.66" style="stroke:#F0F0F0;stroke-width:9.72"/>
	<line x1="1023.81" y1="628.26" x2="1023.81" y2="563.46" style="stroke:#F0F0F0;stroke-width:9.72"/>
	<line x1="1023.81" y1="531.06" x2="1023.81" y2="466.26" style="stroke:#F0F0F0;stroke-width:9.72"/>
	<line x1="1023.81" y1="433.86" x2="1023.81" y2="369.06" style="stroke:#F0F0F0;stroke-width:9.72"/>
	<line x1="1023.81" y1="336.66" x2="1023.81" y2="271.86" style="stroke:#F0F0F0;stroke-width:9.72"/>
	<line x1="1023.81" y1="239.46" x2="1023.81" y2="174.66" style="stroke:#F0F0F0;stroke-width:9.72"/>
	<line x1="1023.81" y1="142.26" x2="1023.81" y2="113.40" style="stroke:#F0F0F0;stroke-width:9.72"/>
	<line x1="1596.88" y1="2766.66" x2="1596.88" y2="2701.86" style="stroke:#F0F0F0;stroke-width:9.72"/>
	<line x1="1596.88" y1="2669.46" x2="1596.88" y2="2604.66" style="stroke:#F0F0F0;stroke-width:9.72"/>
	<line x1="1596.88" y1="2572.26" x2="1596.88" y2="2507.46" style="stroke:#F0F0F0;stroke-width:9.72"/>
	<line x1="1596.88" y1="2475.06" x2="1596.88" y2="2410.26" style="stroke:#F0F0F0;stroke-width:9.72"/>
	<line x1="1596.88" y1="2377.86" x2="1596.88" y2="2313.06" style="stroke:#F0F0F0;stroke-width:9.72"/>
	<line x1="1596.88" y1="2280.66" x2="1596.88" y2="2215.86" style="stroke:#F0F0F0;stroke-width:9.72"/>
	<line x1="1596.88" y1="2183.46" x2="1596.88" y2="2118.66" style="stroke:#F0F0F0;stroke-width:9.72"/>
	<line x1="1596.88" y1="2086.26" x2="1596.88" y2="2021.46" style="stroke:#F0F0F0;stroke-width:9.72"/>
	<line x1="1596.88" y1="1989.06" x2="1596.88" y2="1924.26" style="stroke:#F0F0F0;stroke-width:9.72"/>
	<line x1="1596.88" y1="1891.86" x2="1596.88" y2="1827.06" style="stroke:#F0F0F0;stroke-width:9.72"/>
	<line x1="1596.88" y1="1794.66" x2="1596.88" y2="1729.86" style="stroke:#F0F0F0;stroke-width:9.72"/>
	<line x1="1596.88" y1="1697.46" x2="1596.88" y2="1632.66" style="stroke:#F0F0F0;stroke-width:9.72"/>
	<line x1="1596.88" y1="1600.26" x2="1596.88" y2="1535.46" style="stroke:#F0F0F0;stroke-width:9.72"/>
	<line x1="1596.88" y1="1503.06" x2="1596.88" y2="1438.26" style="stroke:#F0F0F0;stroke-width:9.72"/>
	<line x1="1596.88" y1="1405.86" x2="1596.88" y2="1341.06" style="stroke:#F0F0F0;stroke-width:9.72"/>
	<line x1="1596.88" y1="1308.66" x2="1596.88" y2="1243.86" style="stroke:#F0F0F0;stroke-width:9.72"/>
	<line x1="1596.88" y1="1211.46" x2="1596.88" y2="1146.66" style="stroke:#F0F0F0;stroke-width:9.72"/>
	<line x1="1596.88" y1="1114.26" x2="1596.88" y2="1049.46" style="stroke:#F0F0F0;stroke-width:9.72"/>
	<line x1="1596.88" y1="1017.06" x2="1596.88" y2="952.26" style="stroke:#F0F0F0;stroke-width:9.72"/>
	<line x1="1596.88" y1="919.86" x2="1596.88" y2="855.06" style="stroke:#F0F0F0;stroke-width:9.72"/>
	<line x1="1596.88" y1="822.66" x2="1596.88" y2="757.86" style="stroke:#F0F0F0;stroke-width:9.72"/>
	<line x1="1596.88" y1="725.46" x2="1596.88" y2="660.66" style="stroke:#F0F0F0;stroke-width:9.72"/>
	<line x1="1596.88" y1="628.26" x2="1596.88" y2="563.46" style="stroke:#F0F0F0;stroke-width:9.72"/>
	<line x1="1596.88" y1="531.06" x2="1596.88" y2="466.26" style="stroke:#F0F0F0;stroke-width:9.72"/>
	<line x1="1596.88" y1="433.86" x2="1596.88" y2="369.06" style="stroke:#F0F0F0;stroke-width:9.72"/>
	<line x1="1596.88" y1="336.66" x2="1596.88" y2="271.86" style="stroke:#F0F0F0;stroke-width:9.72"/>
	<line x1="1596.88" y1="239.46" x2="1596.88" y2="174.66" style="stroke:#F0F0F0;stroke-width:9.72"/>
	<line x1="1596.88" y1="142.26" x2="1596.88" y2="113.40" style="stroke:#F0F0F0;stroke-width:9.72"/>
	<line x1="2169.79" y1="2766.66" x2="2169.79" y2="2701.86" style="stroke:#F0F0F0;stroke-width:9.72"/>
	<line x1="2169.79" y1="2669.46" x2="2169.79" y2="2604.66" style="stroke:#F0F0F0;stroke-width:9.72"/>
	<line x1="2169.79" y1="2572.26" x2="2169.79" y2="2507.46" style="stroke:#F0F0F0;stroke-width:9.72"/>
	<line x1="2169.79" y1="2475.06" x2="2169.79" y2="2410.26" style="stroke:#F0F0F0;stroke-width:9.72"/>
	<line x1="2169.79" y1="2377.86" x2="2169.79" y2="2313.06" style="stroke:#F0F0F0;stroke-width:9.72"/>
	<line x1="2169.79" y1="2280.66" x2="2169.79" y2="2215.86" style="stroke:#F0F0F0;stroke-width:9.72"/>
	<line x1="2169.79" y1="2183.46" x2="2169.79" y2="2118.66" style="stroke:#F0F0F0;stroke-width:9.72"/>
	<line x1="2169.79" y1="2086.26" x2="2169.79" y2="2021.46" style="stroke:#F0F0F0;stroke-width:9.72"/>
	<line x1="2169.79" y1="1989.06" x2="2169.79" y2="1924.26" style="stroke:#F0F0F0;stroke-width:9.72"/>
	<line x1="2169.79" y1="1891.86" x2="2169.79" y2="1827.06" style="stroke:#F0F0F0;stroke-width:9.72"/>
	<line x1="2169.79" y1="1794.66" x2="2169.79" y2="1729.86" style="stroke:#F0F0F0;stroke-width:9.72"/>
	<line x1="2169.79" y1="1697.46" x2="2169.79" y2="1632.66" style="stroke:#F0F0F0;stroke-width:9.72"/>
	<line x1="2169.79" y1="1600.26" x2="2169.79" y2="1535.46" style="stroke:#F0F0F0;stroke-width:9.72"/>
	<line x1="2169.79" y1="1503.06" x2="2169.79" y2="1438.26" style="stroke:#F0F0F0;stroke-width:9.72"/>
	<line x1="2169.79" y1="1405.86" x2="2169.79" y2="1341.06" style="stroke:#F0F0F0;stroke-width:9.72"/>
	<line x1="2169.79" y1="1308.66" x2="2169.79" y2="1243.86" style="stroke:#F0F0F0;stroke-width:9.72"/>
	<line x1="2169.79" y1="1211.46" x2="2169.79" y2="1146.66" style="stroke:#F0F0F0;stroke-width:9.72"/>
	<line x1="2169.79" y1="1114.26" x2="2169.79" y2="1049.46" style="stroke:#F0F0F0;stroke-width:9.72"/>
	<line x1="2169.79" y1="1017.06" x2="2169.79" y2="952.26" style="stroke:#F0F0F0;stroke-width:9.72"/>
	<line x1="2169.79" y1="919.86" x2="2169.79" y2="855.06" style="stroke:#F0F0F0;stroke-width:9.72"/>
	<line x1="2169.79" y1="822.66" x2="2169.79" y2="757.86" style="stroke:#F0F0F0;stroke-width:9.72"/>
	<line x1="2169.79" y1="725.46" x2="2169.79" y2="660.66" style="stroke:#F0F0F0;stroke-width:9.72"/>
	<line x1="2169.79" y1="628.26" x2="2169.79" y2="563.46" style="stroke:#F0F0F0;stroke-width:9.72"/>
	<line x1="2169.79" y1="531.06" x2="2169.79" y2="466.26" style="stroke:#F0F0F0;stroke-width:9.72"/>
	<line x1="2169.79" y1="433.86" x2="2169.79" y2="369.06" style="stroke:#F0F0F0;stroke-width:9.72"/>
	<line x1="2169.79" y1="336.66" x2="2169.79" y2="271.86" style="stroke:#F0F0F0;stroke-width:9.72"/>
	<line x1="2169.79" y1="239.46" x2="2169.79" y2="174.66" style="stroke:#F0F0F0;stroke-width:9.72"/>
	<line x1="2169.79" y1="142.26" x2="2169.79" y2="113.40" style="stroke:#F0F0F0;stroke-width:9.72"/>
	<line x1="2742.86" y1="2766.66" x2="2742.86" y2="2701.86" style="stroke:#F0F0F0;stroke-width:9.72"/>
	<line x1="2742.86" y1="2669.46" x2="2742.86" y2="2604.66" style="stroke:#F0F0F0;stroke-width:9.72"/>
	<line x1="2742.86" y1="2572.26" x2="2742.86" y2="2507.46" style="stroke:#F0F0F0;stroke-width:9.72"/>
	<line x1="2742.86" y1="2475.06" x2="2742.86" y2="2410.26" style="stroke:#F0F0F0;stroke-width:9.72"/>
	<line x1="2742.86" y1="2377.86" x2="2742.86" y2="2313.06" style="stroke:#F0F0F0;stroke-width:9.72"/>
	<line x1="2742.86" y1="2280.66" x2="2742.86" y2="2215.86" style="stroke:#F0F0F0;stroke-width:9.72"/>
	<line x1="2742.86" y1="2183.46" x2="2742.86" y2="2118.66" style="stroke:#F0F0F0;stroke-width:9.72"/>
	<line x1="2742.86" y1="2086.26" x2="2742.86" y2="2021.46" style="stroke:#F0F0F0;stroke-width:9.72"/>
	<line x1="2742.86" y1="1989.06" x2="2742.86" y2="1924.26" style="stroke:#F0F0F0;stroke-width:9.72"/>
	<line x1="2742.86" y1="1891.86" x2="2742.86" y2="1827.06" style="stroke:#F0F0F0;stroke-width:9.72"/>
	<line x1="2742.86" y1="1794.66" x2="2742.86" y2="1729.86" style="stroke:#F0F0F0;stroke-width:9.72"/>
	<line x1="2742.86" y1="1697.46" x2="2742.86" y2="1632.66" style="stroke:#F0F0F0;stroke-width:9.72"/>
	<line x1="2742.86" y1="1600.26" x2="2742.86" y2="1535.46" style="stroke:#F0F0F0;stroke-width:9.72"/>
	<line x1="2742.86" y1="1503.06" x2="2742.86" y2="1438.26" style="stroke:#F0F0F0;stroke-width:9.72"/>
	<line x1="2742.86" y1="1405.86" x2="2742.86" y2="1341.06" style="stroke:#F0F0F0;stroke-width:9.72"/>
	<line x1="2742.86" y1="1308.66" x2="2742.86" y2="1243.86" style="stroke:#F0F0F0;stroke-width:9.72"/>
	<line x1="2742.86" y1="1211.46" x2="2742.86" y2="1146.66" style="stroke:#F0F0F0;stroke-width:9.72"/>
	<line x1="2742.86" y1="1114.26" x2="2742.86" y2="1049.46" style="stroke:#F0F0F0;stroke-width:9.72"/>
	<line x1="2742.86" y1="1017.06" x2="2742.86" y2="952.26" style="stroke:#F0F0F0;stroke-width:9.72"/>
	<line x1="2742.86" y1="919.86" x2="2742.86" y2="855.06" style="stroke:#F0F0F0;stroke-width:9.72"/>
	<line x1="2742.86" y1="822.66" x2="2742.86" y2="757.86" style="stroke:#F0F0F0;stroke-width:9.72"/>
	<line x1="2742.86" y1="725.46" x2="2742.86" y2="660.66" style="stroke:#F0F0F0;stroke-width:9.72"/>
	<line x1="2742.86" y1="628.26" x2="2742.86" y2="563.46" style="stroke:#F0F0F0;stroke-width:9.72"/>
	<line x1="2742.86" y1="531.06" x2="2742.86" y2="466.26" style="stroke:#F0F0F0;stroke-width:9.72"/>
	<line x1="2742.86" y1="433.86" x2="2742.86" y2="369.06" style="stroke:#F0F0F0;stroke-width:9.72"/>
	<line x1="2742.86" y1="336.66" x2="2742.86" y2="271.86" style="stroke:#F0F0F0;stroke-width:9.72"/>
	<line x1="2742.86" y1="239.46" x2="2742.86" y2="174.66" style="stroke:#F0F0F0;stroke-width:9.72"/>
	<line x1="2742.86" y1="142.26" x2="2742.86" y2="113.40" style="stroke:#F0F0F0;stroke-width:9.72"/>
	<line x1="3315.94" y1="2766.66" x2="3315.94" y2="2701.86" style="stroke:#F0F0F0;stroke-width:9.72"/>
	<line x1="3315.94" y1="2669.46" x2="3315.94" y2="2604.66" style="stroke:#F0F0F0;stroke-width:9.72"/>
	<line x1="3315.94" y1="2572.26" x2="3315.94" y2="2507.46" style="stroke:#F0F0F0;stroke-width:9.72"/>
	<line x1="3315.94" y1="2475.06" x2="3315.94" y2="2410.26" style="stroke:#F0F0F0;stroke-width:9.72"/>
	<line x1="3315.94" y1="2377.86" x2="3315.94" y2="2313.06" style="stroke:#F0F0F0;stroke-width:9.72"/>
	<line x1="3315.94" y1="2280.66" x2="3315.94" y2="2215.86" style="stroke:#F0F0F0;stroke-width:9.72"/>
	<line x1="3315.94" y1="2183.46" x2="3315.94" y2="2118.66" style="stroke:#F0F0F0;stroke-width:9.72"/>
	<line x1="3315.94" y1="2086.26" x2="3315.94" y2="2021.46" style="stroke:#F0F0F0;stroke-width:9.72"/>
	<line x1="3315.94" y1="1989.06" x2="3315.94" y2="1924.26" style="stroke:#F0F0F0;stroke-width:9.72"/>
	<line x1="3315.94" y1="1891.86" x2="3315.94" y2="1827.06" style="stroke:#F0F0F0;stroke-width:9.72"/>
	<line x1="3315.94" y1="1794.66" x2="3315.94" y2="1729.86" style="stroke:#F0F0F0;stroke-width:9.72"/>
	<line x1="3315.94" y1="1697.46" x2="3315.94" y2="1632.66" style="stroke:#F0F0F0;stroke-width:9.72"/>
	<line x1="3315.94" y1="1600.26" x2="3315.94" y2="1535.46" style="stroke:#F0F0F0;stroke-width:9.72"/>
	<line x1="3315.94" y1="1503.06" x2="3315.94" y2="1438.26" style="stroke:#F0F0F0;stroke-width:9.72"/>
	<line x1="3315.94" y1="1405.86" x2="3315.94" y2="1341.06" style="stroke:#F0F0F0;stroke-width:9.72"/>
	<line x1="3315.94" y1="1308.66" x2="3315.94" y2="1243.86" style="stroke:#F0F0F0;stroke-width:9.72"/>
	<line x1="3315.94" y1="1211.46" x2="3315.94" y2="1146.66" style="stroke:#F0F0F0;stroke-width:9.72"/>
	<line x1="3315.94" y1="1114.26" x2="3315.94" y2="1049.46" style="stroke:#F0F0F0;stroke-width:9.72"/>
	<line x1="3315.94" y1="1017.06" x2="3315.94" y2="952.26" style="stroke:#F0F0F0;stroke-width:9.72"/>
	<line x1="3315.94" y1="919.86" x2="3315.94" y2="855.06" style="stroke:#F0F0F0;stroke-width:9.72"/>
	<line x1="3315.94" y1="822.66" x2="3315.94" y2="757.86" style="stroke:#F0F0F0;stroke-width:9.72"/>
	<line x1="3315.94" y1="725.46" x2="3315.94" y2="660.66" style="stroke:#F0F0F0;stroke-width:9.72"/>
	<line x1="3315.94" y1="628.26" x2="3315.94" y2="563.46" style="stroke:#F0F0F0;stroke-width:9.72"/>
	<line x1="3315.94" y1="531.06" x2="3315.94" y2="466.26" style="stroke:#F0F0F0;stroke-width:9.72"/>
	<line x1="3315.94" y1="433.86" x2="3315.94" y2="369.06" style="stroke:#F0F0F0;stroke-width:9.72"/>
	<line x1="3315.94" y1="336.66" x2="3315.94" y2="271.86" style="stroke:#F0F0F0;stroke-width:9.72"/>
	<line x1="3315.94" y1="239.46" x2="3315.94" y2="174.66" style="stroke:#F0F0F0;stroke-width:9.72"/>
	<line x1="3315.94" y1="142.26" x2="3315.94" y2="113.40" style="stroke:#F0F0F0;stroke-width:9.72"/>
	<rect x="893.36" y="2270.19" width="397.41" height="496.46" style="fill:#FF8C19;fill-opacity:0.40"/>
	<rect x="895.79" y="2272.62" width="392.55" height="491.60" style="fill:none;stroke:#5FAAFF;stroke-width:4.86"/>
	<rect x="1290.77" y="1277.44" width="397.41" height="1489.22" style="fill:#FF8C19;fill-opacity:0.40"/>
	<rect x="1293.20" y="1279.87" width="392.55" height="1484.36" style="fill:none;stroke:#5FAAFF;stroke-width:4.86"/>
	<rect x="1688.18" y="1525.67" width="397.41" height="1240.99" style="fill:#FF8C19;fill-opacity:0.40"/>
	<rect x="1690.61" y="1528.10" width="392.55" height="1236.13" style="fill:none;stroke:#5FAAFF;stroke-width:4.86"/>
	<rect x="2085.58" y="284.68" width="397.41" height="2481.98" style="fill:#FF8C19;fill-opacity:0.40"/>
	<rect x="2088.01" y="287.11" width="392.55" height="2477.11" style="fill:none;stroke:#5FAAFF;stroke-width:4.86"/>
	<rect x="2482.99" y="1029.21" width="397.41" height="1737.45" style="fill:#FF8C19;fill-opacity:0.40"/>
	<rect x="2485.42" y="1031.64" width="392.55" height="1732.59" style="fill:none;stroke:#5FAAFF;stroke-width:4.86"/>
	<path d=" M893.36 2596.39 L899.94 2591.32 L906.53 2586.26 L913.28 2581.03 L919.86 2575.63 L926.44 2570.06 L933.19 2564.32 L939.77 2558.59 L946.52 2552.68 L953.10 2546.61 L959.68 2540.53 L966.43 2534.29 L973.01 2527.71 L979.76 2521.13 L986.34 2514.54 L992.93 2507.63 L999.68 2500.71 L1006.26 2493.45 L1012.84 2486.19 L1019.59 2478.77 L1026.17 2471.18 L1032.92 2463.41 L1039.50 2455.48 L1046.08 2447.55 L1052.83 2439.28 L1059.41 2431.01 L1065.99 2422.41 L1072.74 2413.80 L1079.33 2405.03 L1086.08 2396.08 L1092.66 2386.80 L1099.24 2377.52 L1105.99 2368.07 L1112.57 2358.45 L1119.32 2348.66 L1125.90 2338.71 L1132.48 2328.58 L1139.23 2318.29 L1145.81 2307.82 L1152.39 2297.36 L1159.14 2286.56 L1165.72 2275.59 L1172.47 2264.46 L1179.06 2253.15 L1185.64 2241.68 L1192.39 2230.03 L1198.97 2218.22 L1205.55 2206.41 L1212.30 2194.26 L1218.88 2181.94 L1225.63 2169.45 L1232.21 2156.96 L1238.79 2144.14 L1245.54 2131.14 L1252.13 2117.98 L1258.88 2104.82 L1265.46 2091.32 L1272.04 2077.82 L1278.79 2063.98 L1285.37 2050.14 L1291.95 2036.14 L1298.70 2021.96 L1305.28 2007.45 L1312.03 1993.11 L1318.61 1978.43 L1325.19 1963.58 L1331.94 1948.56 L1338.53 1933.54 L1345.11 1918.35 L1351.86 1902.99 L1358.44 1887.47 L1365.19 1871.78 L1371.77 1856.08 L1378.35 1840.22 L1385.10 1824.19 L1391.68 1808.16 L1398.43 1791.96 L1405.01 1775.59 L1411.59 1759.05 L1418.34 1742.51 L1424.93 1725.81 L1431.51 1709.10 L1438.26 1692.23 L1444.84 1675.35 L1451.59 1658.31 L1458.17 1641.26 L1464.75 1624.05 L1471.50 1606.84 L1478.08 1589.46 L1484.66 1572.08 L1491.41 1554.69 L1497.99 1537.14 L1504.74 1519.59 L1511.33 1502.04 L1517.91 1484.49 L1524.66 1466.78 L1531.24 1449.23 L1537.99 1431.51 L1544.57 1413.79 L1551.15 1396.07 L1557.90 1378.35 L1564.48 1360.63 L1571.06 1342.91 L1577.81 1325.19 L1584.39 1307.47 L1591.14 1289.93 L1597.73 1272.21 L1604.31 1254.66 L1611.06 1237.11 L1617.64 1219.72 L1624.22 1202.34 L1630.97 1184.96 L1637.55 1167.58 L1644.30 1150.37 L1650.88 1133.32 L1657.46 1116.28 L1664.21 1099.24 L1670.79 1082.53 L1677.54 1065.66 L1684.13 1049.12 L1690.71 1032.58 L1697.46 1016.21 L1704.04 1000.01 L1710.62 983.98 L1717.37 968.12 L1723.95 952.26 L1730.70 936.73 L1737.28 921.21 L1743.86 906.02 L1750.61 890.83 L1757.19 875.98 L1763.78 861.30 L1770.53 846.79 L1777.11 832.44 L1783.86 818.44 L1790.44 804.60 L1797.02 790.93 L1803.77 777.43 L1810.35 764.27 L1817.10 751.44 L1823.68 738.79 L1830.26 726.30 L1837.01 714.15 L1843.59 702.34 L1850.18 690.69 L1856.93 679.39 L1863.51 668.25 L1870.26 657.62 L1876.84 647.16 L1883.42 636.86 L1890.17 627.07 L1896.75 617.46 L1903.33 608.34 L1910.08 599.40 L1916.66 590.79 L1923.41 582.53 L1929.99 574.43 L1936.58 566.83 L1943.33 559.57 L1949.91 552.66 L1956.66 546.07 L1963.24 539.83 L1969.82 533.93 L1976.57 528.36 L1983.15 523.13 L1989.73 518.40 L1996.48 513.84 L2003.06 509.79 L2009.81 505.91 L2016.39 502.54 L2022.98 499.50 L2029.73 496.97 L2036.31 494.61 L2042.89 492.75 L2049.64 491.23 L2056.22 490.05 L2062.97 489.21 L2069.55 488.87 L2076.13 488.87 L2082.88 489.21 L2089.46 489.88 L2096.21 490.89 L2102.79 492.41 L2109.38 494.27 L2116.13 496.46 L2122.71 498.99 L2129.29 502.03 L2136.04 505.24 L2142.62 508.95 L2149.37 513.00 L2155.95 517.39 L2162.53 522.11 L2169.28 527.34 L2175.86 532.74 L2182.44 538.65 L2189.19 544.72 L2195.78 551.31 L2202.53 558.22 L2209.11 565.48 L2215.69 572.91 L2222.44 580.84 L2229.02 589.11 L2235.77 597.54 L2242.35 606.49 L2248.93 615.60 L2255.68 625.22 L2262.26 635.01 L2268.84 645.13 L2275.59 655.43 L2282.18 666.22 L2288.93 677.19 L2295.51 688.50 L2302.09 699.97 L2308.84 711.79 L2315.42 723.94 L2322.00 736.26 L2328.75 748.91 L2335.33 761.74 L2342.08 774.90 L2348.66 788.23 L2355.24 801.73 L2361.99 815.57 L2368.57 829.57 L2375.32 843.92 L2381.91 858.43 L2388.49 872.94 L2395.24 887.96 L2401.82 902.98 L2408.40 918.17 L2415.15 933.53 L2421.73 949.22 L2428.48 964.91 L2435.06 980.78 L2441.64 996.81 L2448.39 1013.01 L2454.98 1029.38 L2461.56 1045.91 L2468.31 1062.45 L2474.89 1079.16 L2481.64 1095.86 L2488.22 1112.91 L2494.80 1129.95 L2501.55 1146.99 L2508.13 1164.21 L2514.88 1181.42 L2521.46 1198.80 L2528.04 1216.18 L2534.79 1233.73 L2541.38 1251.28 L2547.96 1268.83 L2554.71 1286.38 L2561.29 1304.10 L2568.04 1321.65 L2574.62 1339.37 L2581.20 1357.09 L2587.95 1374.81 L2594.53 1392.53 L2601.11 1410.24 L2607.86 1427.96 L2614.44 1445.68 L2621.19 1463.23 L2627.78 1480.95 L2634.36 1498.50 L2641.11 1516.22 L2647.69 1533.77 L2654.44 1551.15 L2661.02 1568.70 L2667.60 1586.08 L2674.35 1603.29 L2680.93 1620.68 L2687.51 1637.72 L2694.26 1654.93 L2700.84 1671.98 L2707.59 1688.85 L2714.18 1705.73 L2720.76 1722.60 L2727.51 1739.14 L2734.09 1755.84 L2740.67 1772.21 L2747.42 1788.58 L2754.00 1804.95 L2760.75 1820.98 L2767.33 1837.01 L2773.91 1852.88 L2780.66 1868.74 L2787.24 1884.43 L2793.99 1899.96 L2800.58 1915.31 L2807.16 1930.50 L2813.91 1945.69 L2820.49 1960.54 L2827.07 1975.39 L2833.82 1990.07 L2840.40 2004.58 L2847.15 2019.09 L2853.73 2033.27 L2860.31 2047.28 L2867.06 2061.28 L2873.64 2075.12 L2880.23 2088.62" stroke-linejoin="round" style="fill:none;stroke:#000000;stroke-width:9.72"/>
	<rect x="1366.20" y="194.57" width="383.57" height="2572.09" style="fill:#198DFF;fill-opacity:0.50"/>
	<rect x="1368.63" y="197.00" width="378.71" height="2567.23" style="fill:none;stroke:#5FAAFF;stroke-width:4.86"/>
	<rect x="1749.77" y="1223.44" width="383.40" height="1543.22" style="fill:#198DFF;fill-opacity:0.50"/>
	<rect x="1752.20" y="1225.87" width="378.54" height="1538.36" style="fill:none;stroke:#5FAAFF;stroke-width:4.86"/>
	<rect x="2133.17" y="194.57" width="383.57" height="2572.09" style="fill:#198DFF;fill-opacity:0.50"/>
	<rect x="2135.60" y="197.00" width="378.71" height="2567.23" style="fill:none;stroke:#5FAAFF;stroke-width:4.86"/>
	<rect x="2516.74" y="2252.14" width="383.40" height="514.52" style="fill:#198DFF;fill-opacity:0.50"/>
	<rect x="2519.17" y="2254.57" width="378.54" height="509.66" style="fill:none;stroke:#5FAAFF;stroke-width:4.86"/>
	<rect x="2900.14" y="2252.14" width="383.57" height="514.52" style="fill:#198DFF;fill-opacity:0.50"/>
	<rect x="2902.57" y="2254.57" width="378.71" height="509.66" style="fill:none;stroke:#5FAAFF;stroke-width:4.86"/>
	<line x1="623.36" y1="2766.66" x2="623.36" y2="113.40" style="stroke:#000000;stroke-width:6.48"/>
	<line x1="623.36" y1="2766.66" x2="578.48" y2="2766.66" style="stroke:#000000;stroke-width:6.48"/>
	<text x="555.86" y="2806.09" style="font-family:'Helvetica';font-size:112.56px;fill:#000000" text-anchor="end">0</text>
	<line x1="623.36" y1="2250.28" x2="578.48" y2="2250.28" style="stroke:#000000;stroke-width:6.48"/>
	<text x="555.86" y="2289.72" style="font-family:'Helvetica';font-size:112.56px;fill:#000000" text-anchor="end">.005</text>
	<line x1="623.36" y1="1733.91" x2="578.48" y2="1733.91" style="stroke:#000000;stroke-width:6.48"/>
	<text x="555.86" y="1773.34" style="font-family:'Helvetica';font-size:112.56px;fill:#000000" text-anchor="end">.01</text>
	<line x1="623.36" y1="1217.53" x2="578.48" y2="1217.53" style="stroke:#000000;stroke-width:6.48"/>
	<text x="555.86" y="1256.97" style="font-family:'Helvetica';font-size:112.56px;fill:#000000" text-anchor="end">.015</text>
	<line x1="623.36" y1="700.99" x2="578.48" y2="700.99" style="stroke:#000000;stroke-width:6.48"/>
	<text x="555.86" y="740.42" style="font-family:'Helvetica';font-size:112.56px;fill:#000000" text-anchor="end">.02</text>
	<line x1="623.36" y1="184.61" x2="578.48" y2="184.61" style="stroke:#000000;stroke-width:6.48"/>
	<text x="555.86" y="224.05" style="font-family:'Helvetica';font-size:112.56px;fill:#000000" text-anchor="end">.025</text>
	<text x="214.55" y="1439.94" style="font-family:'Helvetica';font-size:112.56px;fill:#000000" transform="rotate(-90 214.55,1439.94)" text-anchor="middle">Density</text>
	<line x1="623.36" y1="2766.66" x2="3387.15" y2="2766.66" style="stroke:#000000;stroke-width:6.48"/>
	<line x1="1023.81" y1="2766.66" x2="1023.81" y2="2811.54" style="stroke:#000000;stroke-width:6.48"/>
	<text x="1023.81" y="2912.86" style="font-family:'Helvetica';font-size:112.56px;fill:#000000" text-anchor="middle">20</text>
	<line x1="1596.88" y1="2766.66" x2="1596.88" y2="2811.54" style="stroke:#000000;stroke-width:6.48"/>
	<text x="1596.88" y="2912.86" style="font-family:'Helvetica';font-size:112.56px;fill:#000000" text-anchor="middle">40</text>
	<line x1="2169.79" y1="2766.66" x2="2169.79" y2="2811.54" style="stroke:#000000;stroke-width:6.48"/>
	<text x="2169.79" y="2912.86" style="font-family:'Helvetica';font-size:112.56px;fill:#000000" text-anchor="middle">60</text>
	<line x1="2742.86" y1="2766.66" x2="2742.86" y2="2811.54" style="stroke:#000000;stroke-width:6.48"/>
	<text x="2742.86" y="2912.86" style="font-family:'Helvetica';font-size:112.56px;fill:#000000" text-anchor="middle">80</text>
	<line x1="3315.94" y1="2766.66" x2="3315.94" y2="2811.54" style="stroke:#000000;stroke-width:6.48"/>
	<text x="3315.94" y="2912.86" style="font-family:'Helvetica';font-size:112.56px;fill:#000000" text-anchor="middle">100</text>
	<text x="2005.26" y="3070.31" style="font-family:'Helvetica';font-size:112.56px;fill:#000000" text-anchor="middle">age</text>
	<rect x="3425.96" y="1177.71" width="1821.83" height="524.64" style="fill:#FFFFFF"/>
	<rect x="3429.20" y="1180.95" width="1815.35" height="518.16" style="fill:none;stroke:#FFFFFF;stroke-width:6.48"/>
	<rect x="3474.56" y="1226.31" width="259.20" height="112.39" style="fill:#FF8C19;fill-opacity:0.40"/>
	<rect x="3476.99" y="1228.74" width="254.34" height="107.53" style="fill:none;stroke:#5FAAFF;stroke-width:4.86"/>
	<line x1="3474.56" y1="1439.94" x2="3733.76" y2="1439.94" style="stroke:#000000;stroke-width:9.72"/>
	<rect x="3474.56" y="1541.19" width="259.20" height="112.56" style="fill:#198DFF;fill-opacity:0.50"/>
	<rect x="3476.99" y="1543.62" width="254.34" height="107.70" style="fill:none;stroke:#5FAAFF;stroke-width:4.86"/>
	<text x="3801.26" y="1321.94" style="font-family:'Helvetica';font-size:112.56px;fill:#000000">Sampled from Normal</text>
	<text x="3801.26" y="1479.38" style="font-family:'Helvetica';font-size:112.56px;fill:#000000">Theoretical Normal</text>
	<text x="3801.26" y="1636.99" style="font-family:'Helvetica';font-size:112.56px;fill:#000000">Sampled from t-distribution</text>
</svg>
