<?xml version="1.0" encoding="UTF-8" standalone="no"?>
<!-- This is a Stata 18.0 generated SVG file (http://www.stata.com) -->

<svg version="1.1" width="7.500in" height="4.500in" viewBox="0 0 5400 3240" xmlns="http://www.w3.org/2000/svg" xmlns:xlink="http://www.w3.org/1999/xlink">
	<desc>Stata Graph - Graph</desc>
	<rect x="0" y="0" width="5400" height="3240" style="fill:#FFFFFF;stroke:none"/>
	<rect x="0.00" y="0.00" width="5400.00" height="3240.00" style="fill:#FFFFFF"/>
	<rect x="3.24" y="3.24" width="5393.52" height="3233.52" style="fill:none;stroke:#FFFFFF;stroke-width:6.48"/>
	<rect x="557.72" y="113.40" width="2829.43" height="2653.26" style="fill:#FFFFFF"/>
	<rect x="560.96" y="116.64" width="2822.95" height="2646.78" style="fill:none;stroke:#FFFFFF;stroke-width:6.48"/>
	<line x1="557.72" y1="2766.66" x2="622.52" y2="2766.66" style="stroke:#F0F0F0;stroke-width:9.72"/>
	<line x1="654.92" y1="2766.66" x2="719.72" y2="2766.66" style="stroke:#F0F0F0;stroke-width:9.72"/>
	<line x1="752.12" y1="2766.66" x2="816.92" y2="2766.66" style="stroke:#F0F0F0;stroke-width:9.72"/>
	<line x1="849.32" y1="2766.66" x2="914.12" y2="2766.66" style="stroke:#F0F0F0;stroke-width:9.72"/>
	<line x1="946.52" y1="2766.66" x2="1011.32" y2="2766.66" style="stroke:#F0F0F0;stroke-width:9.72"/>
	<line x1="1043.72" y1="2766.66" x2="1108.52" y2="2766.66" style="stroke:#F0F0F0;stroke-width:9.72"/>
	<line x1="1140.92" y1="2766.66" x2="1205.72" y2="2766.66" style="stroke:#F0F0F0;stroke-width:9.72"/>
	<line x1="1238.12" y1="2766.66" x2="1302.92" y2="2766.66" style="stroke:#F0F0F0;stroke-width:9.72"/>
	<line x1="1335.32" y1="2766.66" x2="1400.12" y2="2766.66" style="stroke:#F0F0F0;stroke-width:9.72"/>
	<line x1="1432.52" y1="2766.66" x2="1497.32" y2="2766.66" style="stroke:#F0F0F0;stroke-width:9.72"/>
	<line x1="1529.72" y1="2766.66" x2="1594.52" y2="2766.66" style="stroke:#F0F0F0;stroke-width:9.72"/>
	<line x1="1626.92" y1="2766.66" x2="1691.72" y2="2766.66" style="stroke:#F0F0F0;stroke-width:9.72"/>
	<line x1="1724.12" y1="2766.66" x2="1788.92" y2="2766.66" style="stroke:#F0F0F0;stroke-width:9.72"/>
	<line x1="1821.32" y1="2766.66" x2="1886.12" y2="2766.66" style="stroke:#F0F0F0;stroke-width:9.72"/>
	<line x1="1918.52" y1="2766.66" x2="1983.32" y2="2766.66" style="stroke:#F0F0F0;stroke-width:9.72"/>
	<line x1="2015.72" y1="2766.66" x2="2080.52" y2="2766.66" style="stroke:#F0F0F0;stroke-width:9.72"/>
	<line x1="2112.92" y1="2766.66" x2="2177.72" y2="2766.66" style="stroke:#F0F0F0;stroke-width:9.72"/>
	<line x1="2210.12" y1="2766.66" x2="2274.92" y2="2766.66" style="stroke:#F0F0F0;stroke-width:9.72"/>
	<line x1="2307.32" y1="2766.66" x2="2372.12" y2="2766.66" style="stroke:#F0F0F0;stroke-width:9.72"/>
	<line x1="2404.52" y1="2766.66" x2="2469.32" y2="2766.66" style="stroke:#F0F0F0;stroke-width:9.72"/>
	<line x1="2501.72" y1="2766.66" x2="2566.52" y2="2766.66" style="stroke:#F0F0F0;stroke-width:9.72"/>
	<line x1="2598.92" y1="2766.66" x2="2663.72" y2="2766.66" style="stroke:#F0F0F0;stroke-width:9.72"/>
	<line x1="2696.12" y1="2766.66" x2="2760.92" y2="2766.66" style="stroke:#F0F0F0;stroke-width:9.72"/>
	<line x1="2793.32" y1="2766.66" x2="2858.12" y2="2766.66" style="stroke:#F0F0F0;stroke-width:9.72"/>
	<line x1="2890.52" y1="2766.66" x2="2955.32" y2="2766.66" style="stroke:#F0F0F0;stroke-width:9.72"/>
	<line x1="2987.72" y1="2766.66" x2="3052.52" y2="2766.66" style="stroke:#F0F0F0;stroke-width:9.72"/>
	<line x1="3084.92" y1="2766.66" x2="3149.72" y2="2766.66" style="stroke:#F0F0F0;stroke-width:9.72"/>
	<line x1="3182.12" y1="2766.66" x2="3246.92" y2="2766.66" style="stroke:#F0F0F0;stroke-width:9.72"/>
	<line x1="3279.32" y1="2766.66" x2="3344.12" y2="2766.66" style="stroke:#F0F0F0;stroke-width:9.72"/>
	<line x1="3376.52" y1="2766.66" x2="3387.15" y2="2766.66" style="stroke:#F0F0F0;stroke-width:9.72"/>
	<line x1="557.72" y1="1922.57" x2="622.52" y2="1922.57" style="stroke:#F0F0F0;stroke-width:9.72"/>
	<line x1="654.92" y1="1922.57" x2="719.72" y2="1922.57" style="stroke:#F0F0F0;stroke-width:9.72"/>
	<line x1="752.12" y1="1922.57" x2="816.92" y2="1922.57" style="stroke:#F0F0F0;stroke-width:9.72"/>
	<line x1="849.32" y1="1922.57" x2="914.12" y2="1922.57" style="stroke:#F0F0F0;stroke-width:9.72"/>
	<line x1="946.52" y1="1922.57" x2="1011.32" y2="1922.57" style="stroke:#F0F0F0;stroke-width:9.72"/>
	<line x1="1043.72" y1="1922.57" x2="1108.52" y2="1922.57" style="stroke:#F0F0F0;stroke-width:9.72"/>
	<line x1="1140.92" y1="1922.57" x2="1205.72" y2="1922.57" style="stroke:#F0F0F0;stroke-width:9.72"/>
	<line x1="1238.12" y1="1922.57" x2="1302.92" y2="1922.57" style="stroke:#F0F0F0;stroke-width:9.72"/>
	<line x1="1335.32" y1="1922.57" x2="1400.12" y2="1922.57" style="stroke:#F0F0F0;stroke-width:9.72"/>
	<line x1="1432.52" y1="1922.57" x2="1497.32" y2="1922.57" style="stroke:#F0F0F0;stroke-width:9.72"/>
	<line x1="1529.72" y1="1922.57" x2="1594.52" y2="1922.57" style="stroke:#F0F0F0;stroke-width:9.72"/>
	<line x1="1626.92" y1="1922.57" x2="1691.72" y2="1922.57" style="stroke:#F0F0F0;stroke-width:9.72"/>
	<line x1="1724.12" y1="1922.57" x2="1788.92" y2="1922.57" style="stroke:#F0F0F0;stroke-width:9.72"/>
	<line x1="1821.32" y1="1922.57" x2="1886.12" y2="1922.57" style="stroke:#F0F0F0;stroke-width:9.72"/>
	<line x1="1918.52" y1="1922.57" x2="1983.32" y2="1922.57" style="stroke:#F0F0F0;stroke-width:9.72"/>
	<line x1="2015.72" y1="1922.57" x2="2080.52" y2="1922.57" style="stroke:#F0F0F0;stroke-width:9.72"/>
	<line x1="2112.92" y1="1922.57" x2="2177.72" y2="1922.57" style="stroke:#F0F0F0;stroke-width:9.72"/>
	<line x1="2210.12" y1="1922.57" x2="2274.92" y2="1922.57" style="stroke:#F0F0F0;stroke-width:9.72"/>
	<line x1="2307.32" y1="1922.57" x2="2372.12" y2="1922.57" style="stroke:#F0F0F0;stroke-width:9.72"/>
	<line x1="2404.52" y1="1922.57" x2="2469.32" y2="1922.57" style="stroke:#F0F0F0;stroke-width:9.72"/>
	<line x1="2501.72" y1="1922.57" x2="2566.52" y2="1922.57" style="stroke:#F0F0F0;stroke-width:9.72"/>
	<line x1="2598.92" y1="1922.57" x2="2663.72" y2="1922.57" style="stroke:#F0F0F0;stroke-width:9.72"/>
	<line x1="2696.12" y1="1922.57" x2="2760.92" y2="1922.57" style="stroke:#F0F0F0;stroke-width:9.72"/>
	<line x1="2793.32" y1="1922.57" x2="2858.12" y2="1922.57" style="stroke:#F0F0F0;stroke-width:9.72"/>
	<line x1="2890.52" y1="1922.57" x2="2955.32" y2="1922.57" style="stroke:#F0F0F0;stroke-width:9.72"/>
	<line x1="2987.72" y1="1922.57" x2="3052.52" y2="1922.57" style="stroke:#F0F0F0;stroke-width:9.72"/>
	<line x1="3084.92" y1="1922.57" x2="3149.72" y2="1922.57" style="stroke:#F0F0F0;stroke-width:9.72"/>
	<line x1="3182.12" y1="1922.57" x2="3246.92" y2="1922.57" style="stroke:#F0F0F0;stroke-width:9.72"/>
	<line x1="3279.32" y1="1922.57" x2="3344.12" y2="1922.57" style="stroke:#F0F0F0;stroke-width:9.72"/>
	<line x1="3376.52" y1="1922.57" x2="3387.15" y2="1922.57" style="stroke:#F0F0F0;stroke-width:9.72"/>
	<line x1="557.72" y1="1078.65" x2="622.52" y2="1078.65" style="stroke:#F0F0F0;stroke-width:9.72"/>
	<line x1="654.92" y1="1078.65" x2="719.72" y2="1078.65" style="stroke:#F0F0F0;stroke-width:9.72"/>
	<line x1="752.12" y1="1078.65" x2="816.92" y2="1078.65" style="stroke:#F0F0F0;stroke-width:9.72"/>
	<line x1="849.32" y1="1078.65" x2="914.12" y2="1078.65" style="stroke:#F0F0F0;stroke-width:9.72"/>
	<line x1="946.52" y1="1078.65" x2="1011.32" y2="1078.65" style="stroke:#F0F0F0;stroke-width:9.72"/>
	<line x1="1043.72" y1="1078.65" x2="1108.52" y2="1078.65" style="stroke:#F0F0F0;stroke-width:9.72"/>
	<line x1="1140.92" y1="1078.65" x2="1205.72" y2="1078.65" style="stroke:#F0F0F0;stroke-width:9.72"/>
	<line x1="1238.12" y1="1078.65" x2="1302.92" y2="1078.65" style="stroke:#F0F0F0;stroke-width:9.72"/>
	<line x1="1335.32" y1="1078.65" x2="1400.12" y2="1078.65" style="stroke:#F0F0F0;stroke-width:9.72"/>
	<line x1="1432.52" y1="1078.65" x2="1497.32" y2="1078.65" style="stroke:#F0F0F0;stroke-width:9.72"/>
	<line x1="1529.72" y1="1078.65" x2="1594.52" y2="1078.65" style="stroke:#F0F0F0;stroke-width:9.72"/>
	<line x1="1626.92" y1="1078.65" x2="1691.72" y2="1078.65" style="stroke:#F0F0F0;stroke-width:9.72"/>
	<line x1="1724.12" y1="1078.65" x2="1788.92" y2="1078.65" style="stroke:#F0F0F0;stroke-width:9.72"/>
	<line x1="1821.32" y1="1078.65" x2="1886.12" y2="1078.65" style="stroke:#F0F0F0;stroke-width:9.72"/>
	<line x1="1918.52" y1="1078.65" x2="1983.32" y2="1078.65" style="stroke:#F0F0F0;stroke-width:9.72"/>
	<line x1="2015.72" y1="1078.65" x2="2080.52" y2="1078.65" style="stroke:#F0F0F0;stroke-width:9.72"/>
	<line x1="2112.92" y1="1078.65" x2="2177.72" y2="1078.65" style="stroke:#F0F0F0;stroke-width:9.72"/>
	<line x1="2210.12" y1="1078.65" x2="2274.92" y2="1078.65" style="stroke:#F0F0F0;stroke-width:9.72"/>
	<line x1="2307.32" y1="1078.65" x2="2372.12" y2="1078.65" style="stroke:#F0F0F0;stroke-width:9.72"/>
	<line x1="2404.52" y1="1078.65" x2="2469.32" y2="1078.65" style="stroke:#F0F0F0;stroke-width:9.72"/>
	<line x1="2501.72" y1="1078.65" x2="2566.52" y2="1078.65" style="stroke:#F0F0F0;stroke-width:9.72"/>
	<line x1="2598.92" y1="1078.65" x2="2663.72" y2="1078.65" style="stroke:#F0F0F0;stroke-width:9.72"/>
	<line x1="2696.12" y1="1078.65" x2="2760.92" y2="1078.65" style="stroke:#F0F0F0;stroke-width:9.72"/>
	<line x1="2793.32" y1="1078.65" x2="2858.12" y2="1078.65" style="stroke:#F0F0F0;stroke-width:9.72"/>
	<line x1="2890.52" y1="1078.65" x2="2955.32" y2="1078.65" style="stroke:#F0F0F0;stroke-width:9.72"/>
	<line x1="2987.72" y1="1078.65" x2="3052.52" y2="1078.65" style="stroke:#F0F0F0;stroke-width:9.72"/>
	<line x1="3084.92" y1="1078.65" x2="3149.72" y2="1078.65" style="stroke:#F0F0F0;stroke-width:9.72"/>
	<line x1="3182.12" y1="1078.65" x2="3246.92" y2="1078.65" style="stroke:#F0F0F0;stroke-width:9.72"/>
	<line x1="3279.32" y1="1078.65" x2="3344.12" y2="1078.65" style="stroke:#F0F0F0;stroke-width:9.72"/>
	<line x1="3376.52" y1="1078.65" x2="3387.15" y2="1078.65" style="stroke:#F0F0F0;stroke-width:9.72"/>
	<line x1="557.72" y1="234.73" x2="622.52" y2="234.73" style="stroke:#F0F0F0;stroke-width:9.72"/>
	<line x1="654.92" y1="234.73" x2="719.72" y2="234.73" style="stroke:#F0F0F0;stroke-width:9.72"/>
	<line x1="752.12" y1="234.73" x2="816.92" y2="234.73" style="stroke:#F0F0F0;stroke-width:9.72"/>
	<line x1="849.32" y1="234.73" x2="914.12" y2="234.73" style="stroke:#F0F0F0;stroke-width:9.72"/>
	<line x1="946.52" y1="234.73" x2="1011.32" y2="234.73" style="stroke:#F0F0F0;stroke-width:9.72"/>
	<line x1="1043.72" y1="234.73" x2="1108.52" y2="234.73" style="stroke:#F0F0F0;stroke-width:9.72"/>
	<line x1="1140.92" y1="234.73" x2="1205.72" y2="234.73" style="stroke:#F0F0F0;stroke-width:9.72"/>
	<line x1="1238.12" y1="234.73" x2="1302.92" y2="234.73" style="stroke:#F0F0F0;stroke-width:9.72"/>
	<line x1="1335.32" y1="234.73" x2="1400.12" y2="234.73" style="stroke:#F0F0F0;stroke-width:9.72"/>
	<line x1="1432.52" y1="234.73" x2="1497.32" y2="234.73" style="stroke:#F0F0F0;stroke-width:9.72"/>
	<line x1="1529.72" y1="234.73" x2="1594.52" y2="234.73" style="stroke:#F0F0F0;stroke-width:9.72"/>
	<line x1="1626.92" y1="234.73" x2="1691.72" y2="234.73" style="stroke:#F0F0F0;stroke-width:9.72"/>
	<line x1="1724.12" y1="234.73" x2="1788.92" y2="234.73" style="stroke:#F0F0F0;stroke-width:9.72"/>
	<line x1="1821.32" y1="234.73" x2="1886.12" y2="234.73" style="stroke:#F0F0F0;stroke-width:9.72"/>
	<line x1="1918.52" y1="234.73" x2="1983.32" y2="234.73" style="stroke:#F0F0F0;stroke-width:9.72"/>
	<line x1="2015.72" y1="234.73" x2="2080.52" y2="234.73" style="stroke:#F0F0F0;stroke-width:9.72"/>
	<line x1="2112.92" y1="234.73" x2="2177.72" y2="234.73" style="stroke:#F0F0F0;stroke-width:9.72"/>
	<line x1="2210.12" y1="234.73" x2="2274.92" y2="234.73" style="stroke:#F0F0F0;stroke-width:9.72"/>
	<line x1="2307.32" y1="234.73" x2="2372.12" y2="234.73" style="stroke:#F0F0F0;stroke-width:9.72"/>
	<line x1="2404.52" y1="234.73" x2="2469.32" y2="234.73" style="stroke:#F0F0F0;stroke-width:9.72"/>
	<line x1="2501.72" y1="234.73" x2="2566.52" y2="234.73" style="stroke:#F0F0F0;stroke-width:9.72"/>
	<line x1="2598.92" y1="234.73" x2="2663.72" y2="234.73" style="stroke:#F0F0F0;stroke-width:9.72"/>
	<line x1="2696.12" y1="234.73" x2="2760.92" y2="234.73" style="stroke:#F0F0F0;stroke-width:9.72"/>
	<line x1="2793.32" y1="234.73" x2="2858.12" y2="234.73" style="stroke:#F0F0F0;stroke-width:9.72"/>
	<line x1="2890.52" y1="234.73" x2="2955.32" y2="234.73" style="stroke:#F0F0F0;stroke-width:9.72"/>
	<line x1="2987.72" y1="234.73" x2="3052.52" y2="234.73" style="stroke:#F0F0F0;stroke-width:9.72"/>
	<line x1="3084.92" y1="234.73" x2="3149.72" y2="234.73" style="stroke:#F0F0F0;stroke-width:9.72"/>
	<line x1="3182.12" y1="234.73" x2="3246.92" y2="234.73" style="stroke:#F0F0F0;stroke-width:9.72"/>
	<line x1="3279.32" y1="234.73" x2="3344.12" y2="234.73" style="stroke:#F0F0F0;stroke-width:9.72"/>
	<line x1="3376.52" y1="234.73" x2="3387.15" y2="234.73" style="stroke:#F0F0F0;stroke-width:9.72"/>
	<line x1="663.36" y1="2766.66" x2="663.36" y2="2701.86" style="stroke:#F0F0F0;stroke-width:9.72"/>
	<line x1="663.36" y1="2669.46" x2="663.36" y2="2604.66" style="stroke:#F0F0F0;stroke-width:9.72"/>
	<line x1="663.36" y1="2572.26" x2="663.36" y2="2507.46" style="stroke:#F0F0F0;stroke-width:9.72"/>
	<line x1="663.36" y1="2475.06" x2="663.36" y2="2410.26" style="stroke:#F0F0F0;stroke-width:9.72"/>
	<line x1="663.36" y1="2377.86" x2="663.36" y2="2313.06" style="stroke:#F0F0F0;stroke-width:9.72"/>
	<line x1="663.36" y1="2280.66" x2="663.36" y2="2215.86" style="stroke:#F0F0F0;stroke-width:9.72"/>
	<line x1="663.36" y1="2183.46" x2="663.36" y2="2118.66" style="stroke:#F0F0F0;stroke-width:9.72"/>
	<line x1="663.36" y1="2086.26" x2="663.36" y2="2021.46" style="stroke:#F0F0F0;stroke-width:9.72"/>
	<line x1="663.36" y1="1989.06" x2="663.36" y2="1924.26" style="stroke:#F0F0F0;stroke-width:9.72"/>
	<line x1="663.36" y1="1891.86" x2="663.36" y2="1827.06" style="stroke:#F0F0F0;stroke-width:9.72"/>
	<line x1="663.36" y1="1794.66" x2="663.36" y2="1729.86" style="stroke:#F0F0F0;stroke-width:9.72"/>
	<line x1="663.36" y1="1697.46" x2="663.36" y2="1632.66" style="stroke:#F0F0F0;stroke-width:9.72"/>
	<line x1="663.36" y1="1600.26" x2="663.36" y2="1535.46" style="stroke:#F0F0F0;stroke-width:9.72"/>
	<line x1="663.36" y1="1503.06" x2="663.36" y2="1438.26" style="stroke:#F0F0F0;stroke-width:9.72"/>
	<line x1="663.36" y1="1405.86" x2="663.36" y2="1341.06" style="stroke:#F0F0F0;stroke-width:9.72"/>
	<line x1="663.36" y1="1308.66" x2="663.36" y2="1243.86" style="stroke:#F0F0F0;stroke-width:9.72"/>
	<line x1="663.36" y1="1211.46" x2="663.36" y2="1146.66" style="stroke:#F0F0F0;stroke-width:9.72"/>
	<line x1="663.36" y1="1114.26" x2="663.36" y2="1049.46" style="stroke:#F0F0F0;stroke-width:9.72"/>
	<line x1="663.36" y1="1017.06" x2="663.36" y2="952.26" style="stroke:#F0F0F0;stroke-width:9.72"/>
	<line x1="663.36" y1="919.86" x2="663.36" y2="855.06" style="stroke:#F0F0F0;stroke-width:9.72"/>
	<line x1="663.36" y1="822.66" x2="663.36" y2="757.86" style="stroke:#F0F0F0;stroke-width:9.72"/>
	<line x1="663.36" y1="725.46" x2="663.36" y2="660.66" style="stroke:#F0F0F0;stroke-width:9.72"/>
	<line x1="663.36" y1="628.26" x2="663.36" y2="563.46" style="stroke:#F0F0F0;stroke-width:9.72"/>
	<line x1="663.36" y1="531.06" x2="663.36" y2="466.26" style="stroke:#F0F0F0;stroke-width:9.72"/>
	<line x1="663.36" y1="433.86" x2="663.36" y2="369.06" style="stroke:#F0F0F0;stroke-width:9.72"/>
	<line x1="663.36" y1="336.66" x2="663.36" y2="271.86" style="stroke:#F0F0F0;stroke-width:9.72"/>
	<line x1="663.36" y1="239.46" x2="663.36" y2="174.66" style="stroke:#F0F0F0;stroke-width:9.72"/>
	<line x1="663.36" y1="142.26" x2="663.36" y2="113.40" style="stroke:#F0F0F0;stroke-width:9.72"/>
	<line x1="1426.61" y1="2766.66" x2="1426.61" y2="2701.86" style="stroke:#F0F0F0;stroke-width:9.72"/>
	<line x1="1426.61" y1="2669.46" x2="1426.61" y2="2604.66" style="stroke:#F0F0F0;stroke-width:9.72"/>
	<line x1="1426.61" y1="2572.26" x2="1426.61" y2="2507.46" style="stroke:#F0F0F0;stroke-width:9.72"/>
	<line x1="1426.61" y1="2475.06" x2="1426.61" y2="2410.26" style="stroke:#F0F0F0;stroke-width:9.72"/>
	<line x1="1426.61" y1="2377.86" x2="1426.61" y2="2313.06" style="stroke:#F0F0F0;stroke-width:9.72"/>
	<line x1="1426.61" y1="2280.66" x2="1426.61" y2="2215.86" style="stroke:#F0F0F0;stroke-width:9.72"/>
	<line x1="1426.61" y1="2183.46" x2="1426.61" y2="2118.66" style="stroke:#F0F0F0;stroke-width:9.72"/>
	<line x1="1426.61" y1="2086.26" x2="1426.61" y2="2021.46" style="stroke:#F0F0F0;stroke-width:9.72"/>
	<line x1="1426.61" y1="1989.06" x2="1426.61" y2="1924.26" style="stroke:#F0F0F0;stroke-width:9.72"/>
	<line x1="1426.61" y1="1891.86" x2="1426.61" y2="1827.06" style="stroke:#F0F0F0;stroke-width:9.72"/>
	<line x1="1426.61" y1="1794.66" x2="1426.61" y2="1729.86" style="stroke:#F0F0F0;stroke-width:9.72"/>
	<line x1="1426.61" y1="1697.46" x2="1426.61" y2="1632.66" style="stroke:#F0F0F0;stroke-width:9.72"/>
	<line x1="1426.61" y1="1600.26" x2="1426.61" y2="1535.46" style="stroke:#F0F0F0;stroke-width:9.72"/>
	<line x1="1426.61" y1="1503.06" x2="1426.61" y2="1438.26" style="stroke:#F0F0F0;stroke-width:9.72"/>
	<line x1="1426.61" y1="1405.86" x2="1426.61" y2="1341.06" style="stroke:#F0F0F0;stroke-width:9.72"/>
	<line x1="1426.61" y1="1308.66" x2="1426.61" y2="1243.86" style="stroke:#F0F0F0;stroke-width:9.72"/>
	<line x1="1426.61" y1="1211.46" x2="1426.61" y2="1146.66" style="stroke:#F0F0F0;stroke-width:9.72"/>
	<line x1="1426.61" y1="1114.26" x2="1426.61" y2="1049.46" style="stroke:#F0F0F0;stroke-width:9.72"/>
	<line x1="1426.61" y1="1017.06" x2="1426.61" y2="952.26" style="stroke:#F0F0F0;stroke-width:9.72"/>
	<line x1="1426.61" y1="919.86" x2="1426.61" y2="855.06" style="stroke:#F0F0F0;stroke-width:9.72"/>
	<line x1="1426.61" y1="822.66" x2="1426.61" y2="757.86" style="stroke:#F0F0F0;stroke-width:9.72"/>
	<line x1="1426.61" y1="725.46" x2="1426.61" y2="660.66" style="stroke:#F0F0F0;stroke-width:9.72"/>
	<line x1="1426.61" y1="628.26" x2="1426.61" y2="563.46" style="stroke:#F0F0F0;stroke-width:9.72"/>
	<line x1="1426.61" y1="531.06" x2="1426.61" y2="466.26" style="stroke:#F0F0F0;stroke-width:9.72"/>
	<line x1="1426.61" y1="433.86" x2="1426.61" y2="369.06" style="stroke:#F0F0F0;stroke-width:9.72"/>
	<line x1="1426.61" y1="336.66" x2="1426.61" y2="271.86" style="stroke:#F0F0F0;stroke-width:9.72"/>
	<line x1="1426.61" y1="239.46" x2="1426.61" y2="174.66" style="stroke:#F0F0F0;stroke-width:9.72"/>
	<line x1="1426.61" y1="142.26" x2="1426.61" y2="113.40" style="stroke:#F0F0F0;stroke-width:9.72"/>
	<line x1="2189.87" y1="2766.66" x2="2189.87" y2="2701.86" style="stroke:#F0F0F0;stroke-width:9.72"/>
	<line x1="2189.87" y1="2669.46" x2="2189.87" y2="2604.66" style="stroke:#F0F0F0;stroke-width:9.72"/>
	<line x1="2189.87" y1="2572.26" x2="2189.87" y2="2507.46" style="stroke:#F0F0F0;stroke-width:9.72"/>
	<line x1="2189.87" y1="2475.06" x2="2189.87" y2="2410.26" style="stroke:#F0F0F0;stroke-width:9.72"/>
	<line x1="2189.87" y1="2377.86" x2="2189.87" y2="2313.06" style="stroke:#F0F0F0;stroke-width:9.72"/>
	<line x1="2189.87" y1="2280.66" x2="2189.87" y2="2215.86" style="stroke:#F0F0F0;stroke-width:9.72"/>
	<line x1="2189.87" y1="2183.46" x2="2189.87" y2="2118.66" style="stroke:#F0F0F0;stroke-width:9.72"/>
	<line x1="2189.87" y1="2086.26" x2="2189.87" y2="2021.46" style="stroke:#F0F0F0;stroke-width:9.72"/>
	<line x1="2189.87" y1="1989.06" x2="2189.87" y2="1924.26" style="stroke:#F0F0F0;stroke-width:9.72"/>
	<line x1="2189.87" y1="1891.86" x2="2189.87" y2="1827.06" style="stroke:#F0F0F0;stroke-width:9.72"/>
	<line x1="2189.87" y1="1794.66" x2="2189.87" y2="1729.86" style="stroke:#F0F0F0;stroke-width:9.72"/>
	<line x1="2189.87" y1="1697.46" x2="2189.87" y2="1632.66" style="stroke:#F0F0F0;stroke-width:9.72"/>
	<line x1="2189.87" y1="1600.26" x2="2189.87" y2="1535.46" style="stroke:#F0F0F0;stroke-width:9.72"/>
	<line x1="2189.87" y1="1503.06" x2="2189.87" y2="1438.26" style="stroke:#F0F0F0;stroke-width:9.72"/>
	<line x1="2189.87" y1="1405.86" x2="2189.87" y2="1341.06" style="stroke:#F0F0F0;stroke-width:9.72"/>
	<line x1="2189.87" y1="1308.66" x2="2189.87" y2="1243.86" style="stroke:#F0F0F0;stroke-width:9.72"/>
	<line x1="2189.87" y1="1211.46" x2="2189.87" y2="1146.66" style="stroke:#F0F0F0;stroke-width:9.72"/>
	<line x1="2189.87" y1="1114.26" x2="2189.87" y2="1049.46" style="stroke:#F0F0F0;stroke-width:9.72"/>
	<line x1="2189.87" y1="1017.06" x2="2189.87" y2="952.26" style="stroke:#F0F0F0;stroke-width:9.72"/>
	<line x1="2189.87" y1="919.86" x2="2189.87" y2="855.06" style="stroke:#F0F0F0;stroke-width:9.72"/>
	<line x1="2189.87" y1="822.66" x2="2189.87" y2="757.86" style="stroke:#F0F0F0;stroke-width:9.72"/>
	<line x1="2189.87" y1="725.46" x2="2189.87" y2="660.66" style="stroke:#F0F0F0;stroke-width:9.72"/>
	<line x1="2189.87" y1="628.26" x2="2189.87" y2="563.46" style="stroke:#F0F0F0;stroke-width:9.72"/>
	<line x1="2189.87" y1="531.06" x2="2189.87" y2="466.26" style="stroke:#F0F0F0;stroke-width:9.72"/>
	<line x1="2189.87" y1="433.86" x2="2189.87" y2="369.06" style="stroke:#F0F0F0;stroke-width:9.72"/>
	<line x1="2189.87" y1="336.66" x2="2189.87" y2="271.86" style="stroke:#F0F0F0;stroke-width:9.72"/>
	<line x1="2189.87" y1="239.46" x2="2189.87" y2="174.66" style="stroke:#F0F0F0;stroke-width:9.72"/>
	<line x1="2189.87" y1="142.26" x2="2189.87" y2="113.40" style="stroke:#F0F0F0;stroke-width:9.72"/>
	<line x1="2953.13" y1="2766.66" x2="2953.13" y2="2701.86" style="stroke:#F0F0F0;stroke-width:9.72"/>
	<line x1="2953.13" y1="2669.46" x2="2953.13" y2="2604.66" style="stroke:#F0F0F0;stroke-width:9.72"/>
	<line x1="2953.13" y1="2572.26" x2="2953.13" y2="2507.46" style="stroke:#F0F0F0;stroke-width:9.72"/>
	<line x1="2953.13" y1="2475.06" x2="2953.13" y2="2410.26" style="stroke:#F0F0F0;stroke-width:9.72"/>
	<line x1="2953.13" y1="2377.86" x2="2953.13" y2="2313.06" style="stroke:#F0F0F0;stroke-width:9.72"/>
	<line x1="2953.13" y1="2280.66" x2="2953.13" y2="2215.86" style="stroke:#F0F0F0;stroke-width:9.72"/>
	<line x1="2953.13" y1="2183.46" x2="2953.13" y2="2118.66" style="stroke:#F0F0F0;stroke-width:9.72"/>
	<line x1="2953.13" y1="2086.26" x2="2953.13" y2="2021.46" style="stroke:#F0F0F0;stroke-width:9.72"/>
	<line x1="2953.13" y1="1989.06" x2="2953.13" y2="1924.26" style="stroke:#F0F0F0;stroke-width:9.72"/>
	<line x1="2953.13" y1="1891.86" x2="2953.13" y2="1827.06" style="stroke:#F0F0F0;stroke-width:9.72"/>
	<line x1="2953.13" y1="1794.66" x2="2953.13" y2="1729.86" style="stroke:#F0F0F0;stroke-width:9.72"/>
	<line x1="2953.13" y1="1697.46" x2="2953.13" y2="1632.66" style="stroke:#F0F0F0;stroke-width:9.72"/>
	<line x1="2953.13" y1="1600.26" x2="2953.13" y2="1535.46" style="stroke:#F0F0F0;stroke-width:9.72"/>
	<line x1="2953.13" y1="1503.06" x2="2953.13" y2="1438.26" style="stroke:#F0F0F0;stroke-width:9.72"/>
	<line x1="2953.13" y1="1405.86" x2="2953.13" y2="1341.06" style="stroke:#F0F0F0;stroke-width:9.72"/>
	<line x1="2953.13" y1="1308.66" x2="2953.13" y2="1243.86" style="stroke:#F0F0F0;stroke-width:9.72"/>
	<line x1="2953.13" y1="1211.46" x2="2953.13" y2="1146.66" style="stroke:#F0F0F0;stroke-width:9.72"/>
	<line x1="2953.13" y1="1114.26" x2="2953.13" y2="1049.46" style="stroke:#F0F0F0;stroke-width:9.72"/>
	<line x1="2953.13" y1="1017.06" x2="2953.13" y2="952.26" style="stroke:#F0F0F0;stroke-width:9.72"/>
	<line x1="2953.13" y1="919.86" x2="2953.13" y2="855.06" style="stroke:#F0F0F0;stroke-width:9.72"/>
	<line x1="2953.13" y1="822.66" x2="2953.13" y2="757.86" style="stroke:#F0F0F0;stroke-width:9.72"/>
	<line x1="2953.13" y1="725.46" x2="2953.13" y2="660.66" style="stroke:#F0F0F0;stroke-width:9.72"/>
	<line x1="2953.13" y1="628.26" x2="2953.13" y2="563.46" style="stroke:#F0F0F0;stroke-width:9.72"/>
	<line x1="2953.13" y1="531.06" x2="2953.13" y2="466.26" style="stroke:#F0F0F0;stroke-width:9.72"/>
	<line x1="2953.13" y1="433.86" x2="2953.13" y2="369.06" style="stroke:#F0F0F0;stroke-width:9.72"/>
	<line x1="2953.13" y1="336.66" x2="2953.13" y2="271.86" style="stroke:#F0F0F0;stroke-width:9.72"/>
	<line x1="2953.13" y1="239.46" x2="2953.13" y2="174.66" style="stroke:#F0F0F0;stroke-width:9.72"/>
	<line x1="2953.13" y1="142.26" x2="2953.13" y2="113.40" style="stroke:#F0F0F0;stroke-width:9.72"/>
	<rect x="828.56" y="1959.53" width="399.09" height="807.13" style="fill:#FF8C19;fill-opacity:0.40"/>
	<rect x="830.99" y="1961.96" width="394.23" height="802.27" style="fill:none;stroke:#5FAAFF;stroke-width:4.86"/>
	<rect x="1227.66" y="2497.50" width="398.92" height="269.16" style="fill:#FF8C19;fill-opacity:0.40"/>
	<rect x="1230.09" y="2499.93" width="394.06" height="264.30" style="fill:none;stroke:#5FAAFF;stroke-width:4.86"/>
	<rect x="1626.58" y="345.09" width="399.09" height="2421.56" style="fill:#FF8C19;fill-opacity:0.40"/>
	<rect x="1629.01" y="347.52" width="394.23" height="2416.70" style="fill:none;stroke:#5FAAFF;stroke-width:4.86"/>
	<rect x="2025.68" y="345.09" width="399.09" height="2421.56" style="fill:#FF8C19;fill-opacity:0.40"/>
	<rect x="2028.11" y="347.52" width="394.23" height="2416.70" style="fill:none;stroke:#5FAAFF;stroke-width:4.86"/>
	<rect x="2424.77" y="614.25" width="398.92" height="2152.41" style="fill:#FF8C19;fill-opacity:0.40"/>
	<rect x="2427.20" y="616.68" width="394.06" height="2147.55" style="fill:none;stroke:#5FAAFF;stroke-width:4.86"/>
	<path d=" M828.56 2642.12 L835.14 2637.90 L841.89 2633.68 L848.48 2629.29 L855.23 2624.74 L861.81 2620.18 L868.56 2615.29 L875.14 2610.39 L881.89 2605.50 L888.47 2600.27 L895.22 2595.04 L901.80 2589.47 L908.55 2583.90 L915.30 2578.33 L921.88 2572.43 L928.63 2566.35 L935.21 2560.28 L941.96 2554.03 L948.54 2547.45 L955.29 2540.87 L961.88 2534.12 L968.63 2527.20 L975.21 2520.11 L981.96 2512.86 L988.71 2505.43 L995.29 2497.84 L1002.04 2490.24 L1008.62 2482.31 L1015.37 2474.21 L1021.95 2465.94 L1028.70 2457.34 L1035.28 2448.73 L1042.03 2439.96 L1048.61 2431.01 L1055.36 2421.73 L1062.11 2412.45 L1068.69 2402.83 L1075.44 2393.04 L1082.03 2383.09 L1088.78 2372.96 L1095.36 2362.67 L1102.11 2352.21 L1108.69 2341.41 L1115.44 2330.44 L1122.02 2319.30 L1128.77 2307.99 L1135.35 2296.52 L1142.10 2284.71 L1148.85 2272.73 L1155.43 2260.57 L1162.18 2248.26 L1168.76 2235.77 L1175.51 2222.94 L1182.09 2209.95 L1188.84 2196.79 L1195.43 2183.46 L1202.18 2169.79 L1208.76 2156.12 L1215.51 2141.94 L1222.26 2127.77 L1228.84 2113.43 L1235.59 2098.74 L1242.17 2083.89 L1248.92 2068.88 L1255.50 2053.69 L1262.25 2038.16 L1268.83 2022.64 L1275.58 2006.78 L1282.16 1990.74 L1288.91 1974.54 L1295.66 1958.01 L1302.24 1941.47 L1308.99 1924.59 L1315.58 1907.72 L1322.33 1890.51 L1328.91 1873.13 L1335.66 1855.58 L1342.24 1837.86 L1348.99 1819.97 L1355.57 1801.91 L1362.32 1783.69 L1368.90 1765.29 L1375.65 1746.73 L1382.40 1728.00 L1388.98 1709.10 L1395.73 1690.03 L1402.31 1670.96 L1409.06 1651.56 L1415.64 1632.15 L1422.39 1612.58 L1428.98 1592.83 L1435.73 1573.09 L1442.31 1553.18 L1449.06 1533.09 L1455.81 1512.84 L1462.39 1492.59 L1469.14 1472.34 L1475.72 1451.93 L1482.47 1431.34 L1489.05 1410.75 L1495.80 1389.99 L1502.38 1369.41 L1509.13 1348.48 L1515.71 1327.73 L1522.46 1306.80 L1529.21 1285.88 L1535.79 1264.95 L1542.54 1244.03 L1549.13 1222.93 L1555.88 1202.01 L1562.46 1180.91 L1569.21 1159.99 L1575.79 1139.06 L1582.54 1118.14 L1589.12 1097.21 L1595.87 1076.29 L1602.45 1055.36 L1609.20 1034.61 L1615.95 1013.85 L1622.53 993.26 L1629.28 972.68 L1635.86 952.26 L1642.61 931.84 L1649.19 911.59 L1655.94 891.34 L1662.53 871.43 L1669.28 851.51 L1675.86 831.60 L1682.61 812.03 L1689.36 792.62 L1695.94 773.21 L1702.69 754.14 L1709.27 735.07 L1716.02 716.34 L1722.60 697.78 L1729.35 679.39 L1735.93 661.33 L1742.68 643.44 L1749.26 625.72 L1756.01 608.18 L1762.76 591.13 L1769.34 574.09 L1776.09 557.38 L1782.68 541.01 L1789.43 524.98 L1796.01 509.12 L1802.76 493.59 L1809.34 478.24 L1816.09 463.39 L1822.67 448.88 L1829.42 434.53 L1836.17 420.53 L1842.75 407.03 L1849.50 393.69 L1856.08 380.87 L1862.83 368.38 L1869.41 356.06 L1876.16 344.42 L1882.74 332.94 L1889.49 321.97 L1896.08 311.34 L1902.83 301.05 L1909.41 291.26 L1916.16 281.81 L1922.91 272.70 L1929.49 264.09 L1936.24 255.99 L1942.82 248.23 L1949.57 240.97 L1956.15 234.06 L1962.90 227.64 L1969.48 221.57 L1976.23 216.00 L1982.81 210.94 L1989.56 206.21 L1996.31 201.99 L2002.89 198.28 L2009.64 194.91 L2016.23 192.04 L2022.98 189.68 L2029.56 187.82 L2036.31 186.30 L2042.89 185.29 L2049.64 184.78 L2056.22 184.78 L2062.97 185.12 L2069.72 185.96 L2076.30 187.31 L2083.05 189.17 L2089.63 191.36 L2096.38 194.06 L2102.96 197.27 L2109.71 200.81 L2116.29 205.03 L2123.04 209.59 L2129.63 214.48 L2136.38 219.88 L2142.96 225.79 L2149.71 232.20 L2156.46 238.95 L2163.04 246.04 L2169.79 253.80 L2176.37 261.73 L2183.12 270.34 L2189.70 279.11 L2196.45 288.39 L2203.03 298.18 L2209.78 308.31 L2216.36 318.77 L2223.11 329.74 L2229.86 341.04 L2236.44 352.69 L2243.19 364.84 L2249.78 377.16 L2256.53 389.98 L2263.11 403.14 L2269.86 416.64 L2276.44 430.48 L2283.19 444.66 L2289.77 459.17 L2296.52 474.02 L2303.27 489.21 L2309.85 504.56 L2316.60 520.43 L2323.18 536.46 L2329.93 552.66 L2336.51 569.36 L2343.26 586.24 L2349.84 603.28 L2356.59 620.66 L2363.18 638.38 L2369.93 656.10 L2376.51 674.16 L2383.26 692.55 L2390.01 711.11 L2396.59 729.68 L2403.34 748.57 L2409.92 767.81 L2416.67 787.05 L2423.25 806.46 L2430.00 826.03 L2436.58 845.78 L2443.33 865.69 L2449.91 885.60 L2456.66 905.85 L2463.41 926.10 L2469.99 946.35 L2476.74 966.77 L2483.32 987.36 L2490.07 1007.94 L2496.66 1028.70 L2503.41 1049.46 L2509.99 1070.38 L2516.74 1091.14 L2523.32 1112.06 L2530.07 1132.99 L2536.82 1154.08 L2543.40 1175.01 L2550.15 1195.93 L2556.73 1217.03 L2563.48 1237.95 L2570.06 1258.88 L2576.81 1279.97 L2583.39 1300.89 L2590.14 1321.82 L2596.73 1342.58 L2603.48 1363.33 L2610.06 1384.09 L2616.81 1404.84 L2623.56 1425.43 L2630.14 1446.02 L2636.89 1466.44 L2643.47 1486.86 L2650.22 1507.11 L2656.80 1527.36 L2663.55 1547.44 L2670.13 1567.35 L2676.88 1587.26 L2683.46 1607.01 L2690.21 1626.58 L2696.96 1645.99 L2703.54 1665.39 L2710.29 1684.63 L2716.88 1703.70 L2723.63 1722.60 L2730.21 1741.33 L2736.96 1759.89 L2743.54 1778.46 L2750.29 1796.68 L2756.87 1814.74 L2763.62 1832.79 L2770.37 1850.51 L2776.95 1868.06 L2783.70 1885.44 L2790.28 1902.83 L2797.03 1919.87 L2803.61 1936.58 L2810.36 1953.28 L2816.94 1969.82 L2823.69 1986.02" stroke-linejoin="round" style="fill:none;stroke:#000000;stroke-width:9.72"/>
	<rect x="984.32" y="1615.44" width="466.26" height="1151.21" style="fill:#198DFF;fill-opacity:0.50"/>
	<rect x="986.75" y="1617.87" width="461.40" height="1146.35" style="fill:none;stroke:#5FAAFF;stroke-width:4.86"/>
	<rect x="1450.58" y="1154.93" width="466.42" height="1611.73" style="fill:#198DFF;fill-opacity:0.50"/>
	<rect x="1453.01" y="1157.36" width="461.56" height="1606.87" style="fill:none;stroke:#5FAAFF;stroke-width:4.86"/>
	<rect x="1917.00" y="1154.93" width="466.26" height="1611.73" style="fill:#198DFF;fill-opacity:0.50"/>
	<rect x="1919.43" y="1157.36" width="461.40" height="1606.87" style="fill:none;stroke:#5FAAFF;stroke-width:4.86"/>
	<rect x="2383.26" y="1385.10" width="466.26" height="1381.56" style="fill:#198DFF;fill-opacity:0.50"/>
	<rect x="2385.69" y="1387.53" width="461.40" height="1376.70" style="fill:none;stroke:#5FAAFF;stroke-width:4.86"/>
	<rect x="2849.51" y="1615.44" width="466.43" height="1151.21" style="fill:#198DFF;fill-opacity:0.50"/>
	<rect x="2851.94" y="1617.87" width="461.57" height="1146.35" style="fill:none;stroke:#5FAAFF;stroke-width:4.86"/>
	<line x1="557.72" y1="2766.66" x2="557.72" y2="113.40" style="stroke:#000000;stroke-width:6.48"/>
	<line x1="557.72" y1="2766.66" x2="512.83" y2="2766.66" style="stroke:#000000;stroke-width:6.48"/>
	<text x="490.22" y="2806.09" style="font-family:'Helvetica';font-size:112.56px;fill:#000000" text-anchor="end">0</text>
	<line x1="557.72" y1="1922.57" x2="512.83" y2="1922.57" style="stroke:#000000;stroke-width:6.48"/>
	<text x="490.22" y="1962.01" style="font-family:'Helvetica';font-size:112.56px;fill:#000000" text-anchor="end">.01</text>
	<line x1="557.72" y1="1078.65" x2="512.83" y2="1078.65" style="stroke:#000000;stroke-width:6.48"/>
	<text x="490.22" y="1118.09" style="font-family:'Helvetica';font-size:112.56px;fill:#000000" text-anchor="end">.02</text>
	<line x1="557.72" y1="234.73" x2="512.83" y2="234.73" style="stroke:#000000;stroke-width:6.48"/>
	<text x="490.22" y="274.17" style="font-family:'Helvetica';font-size:112.56px;fill:#000000" text-anchor="end">.03</text>
	<text x="214.55" y="1439.94" style="font-family:'Helvetica';font-size:112.56px;fill:#000000" transform="rotate(-90 214.55,1439.94)" text-anchor="middle">Density</text>
	<line x1="557.72" y1="2766.66" x2="3387.15" y2="2766.66" style="stroke:#000000;stroke-width:6.48"/>
	<line x1="663.36" y1="2766.66" x2="663.36" y2="2811.54" style="stroke:#000000;stroke-width:6.48"/>
	<text x="663.36" y="2912.86" style="font-family:'Helvetica';font-size:112.56px;fill:#000000" text-anchor="middle">20</text>
	<line x1="1426.61" y1="2766.66" x2="1426.61" y2="2811.54" style="stroke:#000000;stroke-width:6.48"/>
	<text x="1426.61" y="2912.86" style="font-family:'Helvetica';font-size:112.56px;fill:#000000" text-anchor="middle">40</text>
	<line x1="2189.87" y1="2766.66" x2="2189.87" y2="2811.54" style="stroke:#000000;stroke-width:6.48"/>
	<text x="2189.87" y="2912.86" style="font-family:'Helvetica';font-size:112.56px;fill:#000000" text-anchor="middle">60</text>
	<line x1="2953.13" y1="2766.66" x2="2953.13" y2="2811.54" style="stroke:#000000;stroke-width:6.48"/>
	<text x="2953.13" y="2912.86" style="font-family:'Helvetica';font-size:112.56px;fill:#000000" text-anchor="middle">80</text>
	<text x="1972.52" y="3070.31" style="font-family:'Helvetica';font-size:112.56px;fill:#000000" text-anchor="middle">age</text>
	<rect x="3425.96" y="1177.71" width="1821.83" height="524.64" style="fill:#FFFFFF"/>
	<rect x="3429.20" y="1180.95" width="1815.35" height="518.16" style="fill:none;stroke:#FFFFFF;stroke-width:6.48"/>
	<rect x="3474.56" y="1226.31" width="259.20" height="112.39" style="fill:#FF8C19;fill-opacity:0.40"/>
	<rect x="3476.99" y="1228.74" width="254.34" height="107.53" style="fill:none;stroke:#5FAAFF;stroke-width:4.86"/>
	<line x1="3474.56" y1="1439.94" x2="3733.76" y2="1439.94" style="stroke:#000000;stroke-width:9.72"/>
	<rect x="3474.56" y="1541.19" width="259.20" height="112.56" style="fill:#198DFF;fill-opacity:0.50"/>
	<rect x="3476.99" y="1543.62" width="254.34" height="107.70" style="fill:none;stroke:#5FAAFF;stroke-width:4.86"/>
	<text x="3801.26" y="1321.94" style="font-family:'Helvetica';font-size:112.56px;fill:#000000">Sampled from Normal</text>
	<text x="3801.26" y="1479.38" style="font-family:'Helvetica';font-size:112.56px;fill:#000000">Theoretical Normal</text>
	<text x="3801.26" y="1636.99" style="font-family:'Helvetica';font-size:112.56px;fill:#000000">Sampled from t-distribution</text>
</svg>
