<?xml version="1.0" encoding="UTF-8" standalone="no"?>
<!-- This is a Stata 18.0 generated SVG file (http://www.stata.com) -->

<svg version="1.1" width="7.500in" height="4.500in" viewBox="0 0 5400 3240" xmlns="http://www.w3.org/2000/svg" xmlns:xlink="http://www.w3.org/1999/xlink">
	<desc>Stata Graph - Graph</desc>
	<rect x="0" y="0" width="5400" height="3240" style="fill:#FFFFFF;stroke:none"/>
	<rect x="0.00" y="0.00" width="5400.00" height="3240.00" style="fill:#FFFFFF"/>
	<rect x="3.24" y="3.24" width="5393.52" height="3233.52" style="fill:none;stroke:#FFFFFF;stroke-width:6.48"/>
	<rect x="557.72" y="113.40" width="2829.43" height="2653.26" style="fill:#FFFFFF"/>
	<rect x="560.96" y="116.64" width="2822.95" height="2646.78" style="fill:none;stroke:#FFFFFF;stroke-width:6.48"/>
	<line x1="557.72" y1="2766.66" x2="622.52" y2="2766.66" style="stroke:#F0F0F0;stroke-width:9.72"/>
	<line x1="654.92" y1="2766.66" x2="719.72" y2="2766.66" style="stroke:#F0F0F0;stroke-width:9.72"/>
	<line x1="752.12" y1="2766.66" x2="816.92" y2="2766.66" style="stroke:#F0F0F0;stroke-width:9.72"/>
	<line x1="849.32" y1="2766.66" x2="914.12" y2="2766.66" style="stroke:#F0F0F0;stroke-width:9.72"/>
	<line x1="946.52" y1="2766.66" x2="1011.32" y2="2766.66" style="stroke:#F0F0F0;stroke-width:9.72"/>
	<line x1="1043.72" y1="2766.66" x2="1108.52" y2="2766.66" style="stroke:#F0F0F0;stroke-width:9.72"/>
	<line x1="1140.92" y1="2766.66" x2="1205.72" y2="2766.66" style="stroke:#F0F0F0;stroke-width:9.72"/>
	<line x1="1238.12" y1="2766.66" x2="1302.92" y2="2766.66" style="stroke:#F0F0F0;stroke-width:9.72"/>
	<line x1="1335.32" y1="2766.66" x2="1400.12" y2="2766.66" style="stroke:#F0F0F0;stroke-width:9.72"/>
	<line x1="1432.52" y1="2766.66" x2="1497.32" y2="2766.66" style="stroke:#F0F0F0;stroke-width:9.72"/>
	<line x1="1529.72" y1="2766.66" x2="1594.52" y2="2766.66" style="stroke:#F0F0F0;stroke-width:9.72"/>
	<line x1="1626.92" y1="2766.66" x2="1691.72" y2="2766.66" style="stroke:#F0F0F0;stroke-width:9.72"/>
	<line x1="1724.12" y1="2766.66" x2="1788.92" y2="2766.66" style="stroke:#F0F0F0;stroke-width:9.72"/>
	<line x1="1821.32" y1="2766.66" x2="1886.12" y2="2766.66" style="stroke:#F0F0F0;stroke-width:9.72"/>
	<line x1="1918.52" y1="2766.66" x2="1983.32" y2="2766.66" style="stroke:#F0F0F0;stroke-width:9.72"/>
	<line x1="2015.72" y1="2766.66" x2="2080.52" y2="2766.66" style="stroke:#F0F0F0;stroke-width:9.72"/>
	<line x1="2112.92" y1="2766.66" x2="2177.72" y2="2766.66" style="stroke:#F0F0F0;stroke-width:9.72"/>
	<line x1="2210.12" y1="2766.66" x2="2274.92" y2="2766.66" style="stroke:#F0F0F0;stroke-width:9.72"/>
	<line x1="2307.32" y1="2766.66" x2="2372.12" y2="2766.66" style="stroke:#F0F0F0;stroke-width:9.72"/>
	<line x1="2404.52" y1="2766.66" x2="2469.32" y2="2766.66" style="stroke:#F0F0F0;stroke-width:9.72"/>
	<line x1="2501.72" y1="2766.66" x2="2566.52" y2="2766.66" style="stroke:#F0F0F0;stroke-width:9.72"/>
	<line x1="2598.92" y1="2766.66" x2="2663.72" y2="2766.66" style="stroke:#F0F0F0;stroke-width:9.72"/>
	<line x1="2696.12" y1="2766.66" x2="2760.92" y2="2766.66" style="stroke:#F0F0F0;stroke-width:9.72"/>
	<line x1="2793.32" y1="2766.66" x2="2858.12" y2="2766.66" style="stroke:#F0F0F0;stroke-width:9.72"/>
	<line x1="2890.52" y1="2766.66" x2="2955.32" y2="2766.66" style="stroke:#F0F0F0;stroke-width:9.72"/>
	<line x1="2987.72" y1="2766.66" x2="3052.52" y2="2766.66" style="stroke:#F0F0F0;stroke-width:9.72"/>
	<line x1="3084.92" y1="2766.66" x2="3149.72" y2="2766.66" style="stroke:#F0F0F0;stroke-width:9.72"/>
	<line x1="3182.12" y1="2766.66" x2="3246.92" y2="2766.66" style="stroke:#F0F0F0;stroke-width:9.72"/>
	<line x1="3279.32" y1="2766.66" x2="3344.12" y2="2766.66" style="stroke:#F0F0F0;stroke-width:9.72"/>
	<line x1="3376.52" y1="2766.66" x2="3387.15" y2="2766.66" style="stroke:#F0F0F0;stroke-width:9.72"/>
	<line x1="557.72" y1="2121.19" x2="622.52" y2="2121.19" style="stroke:#F0F0F0;stroke-width:9.72"/>
	<line x1="654.92" y1="2121.19" x2="719.72" y2="2121.19" style="stroke:#F0F0F0;stroke-width:9.72"/>
	<line x1="752.12" y1="2121.19" x2="816.92" y2="2121.19" style="stroke:#F0F0F0;stroke-width:9.72"/>
	<line x1="849.32" y1="2121.19" x2="914.12" y2="2121.19" style="stroke:#F0F0F0;stroke-width:9.72"/>
	<line x1="946.52" y1="2121.19" x2="1011.32" y2="2121.19" style="stroke:#F0F0F0;stroke-width:9.72"/>
	<line x1="1043.72" y1="2121.19" x2="1108.52" y2="2121.19" style="stroke:#F0F0F0;stroke-width:9.72"/>
	<line x1="1140.92" y1="2121.19" x2="1205.72" y2="2121.19" style="stroke:#F0F0F0;stroke-width:9.72"/>
	<line x1="1238.12" y1="2121.19" x2="1302.92" y2="2121.19" style="stroke:#F0F0F0;stroke-width:9.72"/>
	<line x1="1335.32" y1="2121.19" x2="1400.12" y2="2121.19" style="stroke:#F0F0F0;stroke-width:9.72"/>
	<line x1="1432.52" y1="2121.19" x2="1497.32" y2="2121.19" style="stroke:#F0F0F0;stroke-width:9.72"/>
	<line x1="1529.72" y1="2121.19" x2="1594.52" y2="2121.19" style="stroke:#F0F0F0;stroke-width:9.72"/>
	<line x1="1626.92" y1="2121.19" x2="1691.72" y2="2121.19" style="stroke:#F0F0F0;stroke-width:9.72"/>
	<line x1="1724.12" y1="2121.19" x2="1788.92" y2="2121.19" style="stroke:#F0F0F0;stroke-width:9.72"/>
	<line x1="1821.32" y1="2121.19" x2="1886.12" y2="2121.19" style="stroke:#F0F0F0;stroke-width:9.72"/>
	<line x1="1918.52" y1="2121.19" x2="1983.32" y2="2121.19" style="stroke:#F0F0F0;stroke-width:9.72"/>
	<line x1="2015.72" y1="2121.19" x2="2080.52" y2="2121.19" style="stroke:#F0F0F0;stroke-width:9.72"/>
	<line x1="2112.92" y1="2121.19" x2="2177.72" y2="2121.19" style="stroke:#F0F0F0;stroke-width:9.72"/>
	<line x1="2210.12" y1="2121.19" x2="2274.92" y2="2121.19" style="stroke:#F0F0F0;stroke-width:9.72"/>
	<line x1="2307.32" y1="2121.19" x2="2372.12" y2="2121.19" style="stroke:#F0F0F0;stroke-width:9.72"/>
	<line x1="2404.52" y1="2121.19" x2="2469.32" y2="2121.19" style="stroke:#F0F0F0;stroke-width:9.72"/>
	<line x1="2501.72" y1="2121.19" x2="2566.52" y2="2121.19" style="stroke:#F0F0F0;stroke-width:9.72"/>
	<line x1="2598.92" y1="2121.19" x2="2663.72" y2="2121.19" style="stroke:#F0F0F0;stroke-width:9.72"/>
	<line x1="2696.12" y1="2121.19" x2="2760.92" y2="2121.19" style="stroke:#F0F0F0;stroke-width:9.72"/>
	<line x1="2793.32" y1="2121.19" x2="2858.12" y2="2121.19" style="stroke:#F0F0F0;stroke-width:9.72"/>
	<line x1="2890.52" y1="2121.19" x2="2955.32" y2="2121.19" style="stroke:#F0F0F0;stroke-width:9.72"/>
	<line x1="2987.72" y1="2121.19" x2="3052.52" y2="2121.19" style="stroke:#F0F0F0;stroke-width:9.72"/>
	<line x1="3084.92" y1="2121.19" x2="3149.72" y2="2121.19" style="stroke:#F0F0F0;stroke-width:9.72"/>
	<line x1="3182.12" y1="2121.19" x2="3246.92" y2="2121.19" style="stroke:#F0F0F0;stroke-width:9.72"/>
	<line x1="3279.32" y1="2121.19" x2="3344.12" y2="2121.19" style="stroke:#F0F0F0;stroke-width:9.72"/>
	<line x1="3376.52" y1="2121.19" x2="3387.15" y2="2121.19" style="stroke:#F0F0F0;stroke-width:9.72"/>
	<line x1="557.72" y1="1475.72" x2="622.52" y2="1475.72" style="stroke:#F0F0F0;stroke-width:9.72"/>
	<line x1="654.92" y1="1475.72" x2="719.72" y2="1475.72" style="stroke:#F0F0F0;stroke-width:9.72"/>
	<line x1="752.12" y1="1475.72" x2="816.92" y2="1475.72" style="stroke:#F0F0F0;stroke-width:9.72"/>
	<line x1="849.32" y1="1475.72" x2="914.12" y2="1475.72" style="stroke:#F0F0F0;stroke-width:9.72"/>
	<line x1="946.52" y1="1475.72" x2="1011.32" y2="1475.72" style="stroke:#F0F0F0;stroke-width:9.72"/>
	<line x1="1043.72" y1="1475.72" x2="1108.52" y2="1475.72" style="stroke:#F0F0F0;stroke-width:9.72"/>
	<line x1="1140.92" y1="1475.72" x2="1205.72" y2="1475.72" style="stroke:#F0F0F0;stroke-width:9.72"/>
	<line x1="1238.12" y1="1475.72" x2="1302.92" y2="1475.72" style="stroke:#F0F0F0;stroke-width:9.72"/>
	<line x1="1335.32" y1="1475.72" x2="1400.12" y2="1475.72" style="stroke:#F0F0F0;stroke-width:9.72"/>
	<line x1="1432.52" y1="1475.72" x2="1497.32" y2="1475.72" style="stroke:#F0F0F0;stroke-width:9.72"/>
	<line x1="1529.72" y1="1475.72" x2="1594.52" y2="1475.72" style="stroke:#F0F0F0;stroke-width:9.72"/>
	<line x1="1626.92" y1="1475.72" x2="1691.72" y2="1475.72" style="stroke:#F0F0F0;stroke-width:9.72"/>
	<line x1="1724.12" y1="1475.72" x2="1788.92" y2="1475.72" style="stroke:#F0F0F0;stroke-width:9.72"/>
	<line x1="1821.32" y1="1475.72" x2="1886.12" y2="1475.72" style="stroke:#F0F0F0;stroke-width:9.72"/>
	<line x1="1918.52" y1="1475.72" x2="1983.32" y2="1475.72" style="stroke:#F0F0F0;stroke-width:9.72"/>
	<line x1="2015.72" y1="1475.72" x2="2080.52" y2="1475.72" style="stroke:#F0F0F0;stroke-width:9.72"/>
	<line x1="2112.92" y1="1475.72" x2="2177.72" y2="1475.72" style="stroke:#F0F0F0;stroke-width:9.72"/>
	<line x1="2210.12" y1="1475.72" x2="2274.92" y2="1475.72" style="stroke:#F0F0F0;stroke-width:9.72"/>
	<line x1="2307.32" y1="1475.72" x2="2372.12" y2="1475.72" style="stroke:#F0F0F0;stroke-width:9.72"/>
	<line x1="2404.52" y1="1475.72" x2="2469.32" y2="1475.72" style="stroke:#F0F0F0;stroke-width:9.72"/>
	<line x1="2501.72" y1="1475.72" x2="2566.52" y2="1475.72" style="stroke:#F0F0F0;stroke-width:9.72"/>
	<line x1="2598.92" y1="1475.72" x2="2663.72" y2="1475.72" style="stroke:#F0F0F0;stroke-width:9.72"/>
	<line x1="2696.12" y1="1475.72" x2="2760.92" y2="1475.72" style="stroke:#F0F0F0;stroke-width:9.72"/>
	<line x1="2793.32" y1="1475.72" x2="2858.12" y2="1475.72" style="stroke:#F0F0F0;stroke-width:9.72"/>
	<line x1="2890.52" y1="1475.72" x2="2955.32" y2="1475.72" style="stroke:#F0F0F0;stroke-width:9.72"/>
	<line x1="2987.72" y1="1475.72" x2="3052.52" y2="1475.72" style="stroke:#F0F0F0;stroke-width:9.72"/>
	<line x1="3084.92" y1="1475.72" x2="3149.72" y2="1475.72" style="stroke:#F0F0F0;stroke-width:9.72"/>
	<line x1="3182.12" y1="1475.72" x2="3246.92" y2="1475.72" style="stroke:#F0F0F0;stroke-width:9.72"/>
	<line x1="3279.32" y1="1475.72" x2="3344.12" y2="1475.72" style="stroke:#F0F0F0;stroke-width:9.72"/>
	<line x1="3376.52" y1="1475.72" x2="3387.15" y2="1475.72" style="stroke:#F0F0F0;stroke-width:9.72"/>
	<line x1="557.72" y1="830.08" x2="622.52" y2="830.08" style="stroke:#F0F0F0;stroke-width:9.72"/>
	<line x1="654.92" y1="830.08" x2="719.72" y2="830.08" style="stroke:#F0F0F0;stroke-width:9.72"/>
	<line x1="752.12" y1="830.08" x2="816.92" y2="830.08" style="stroke:#F0F0F0;stroke-width:9.72"/>
	<line x1="849.32" y1="830.08" x2="914.12" y2="830.08" style="stroke:#F0F0F0;stroke-width:9.72"/>
	<line x1="946.52" y1="830.08" x2="1011.32" y2="830.08" style="stroke:#F0F0F0;stroke-width:9.72"/>
	<line x1="1043.72" y1="830.08" x2="1108.52" y2="830.08" style="stroke:#F0F0F0;stroke-width:9.72"/>
	<line x1="1140.92" y1="830.08" x2="1205.72" y2="830.08" style="stroke:#F0F0F0;stroke-width:9.72"/>
	<line x1="1238.12" y1="830.08" x2="1302.92" y2="830.08" style="stroke:#F0F0F0;stroke-width:9.72"/>
	<line x1="1335.32" y1="830.08" x2="1400.12" y2="830.08" style="stroke:#F0F0F0;stroke-width:9.72"/>
	<line x1="1432.52" y1="830.08" x2="1497.32" y2="830.08" style="stroke:#F0F0F0;stroke-width:9.72"/>
	<line x1="1529.72" y1="830.08" x2="1594.52" y2="830.08" style="stroke:#F0F0F0;stroke-width:9.72"/>
	<line x1="1626.92" y1="830.08" x2="1691.72" y2="830.08" style="stroke:#F0F0F0;stroke-width:9.72"/>
	<line x1="1724.12" y1="830.08" x2="1788.92" y2="830.08" style="stroke:#F0F0F0;stroke-width:9.72"/>
	<line x1="1821.32" y1="830.08" x2="1886.12" y2="830.08" style="stroke:#F0F0F0;stroke-width:9.72"/>
	<line x1="1918.52" y1="830.08" x2="1983.32" y2="830.08" style="stroke:#F0F0F0;stroke-width:9.72"/>
	<line x1="2015.72" y1="830.08" x2="2080.52" y2="830.08" style="stroke:#F0F0F0;stroke-width:9.72"/>
	<line x1="2112.92" y1="830.08" x2="2177.72" y2="830.08" style="stroke:#F0F0F0;stroke-width:9.72"/>
	<line x1="2210.12" y1="830.08" x2="2274.92" y2="830.08" style="stroke:#F0F0F0;stroke-width:9.72"/>
	<line x1="2307.32" y1="830.08" x2="2372.12" y2="830.08" style="stroke:#F0F0F0;stroke-width:9.72"/>
	<line x1="2404.52" y1="830.08" x2="2469.32" y2="830.08" style="stroke:#F0F0F0;stroke-width:9.72"/>
	<line x1="2501.72" y1="830.08" x2="2566.52" y2="830.08" style="stroke:#F0F0F0;stroke-width:9.72"/>
	<line x1="2598.92" y1="830.08" x2="2663.72" y2="830.08" style="stroke:#F0F0F0;stroke-width:9.72"/>
	<line x1="2696.12" y1="830.08" x2="2760.92" y2="830.08" style="stroke:#F0F0F0;stroke-width:9.72"/>
	<line x1="2793.32" y1="830.08" x2="2858.12" y2="830.08" style="stroke:#F0F0F0;stroke-width:9.72"/>
	<line x1="2890.52" y1="830.08" x2="2955.32" y2="830.08" style="stroke:#F0F0F0;stroke-width:9.72"/>
	<line x1="2987.72" y1="830.08" x2="3052.52" y2="830.08" style="stroke:#F0F0F0;stroke-width:9.72"/>
	<line x1="3084.92" y1="830.08" x2="3149.72" y2="830.08" style="stroke:#F0F0F0;stroke-width:9.72"/>
	<line x1="3182.12" y1="830.08" x2="3246.92" y2="830.08" style="stroke:#F0F0F0;stroke-width:9.72"/>
	<line x1="3279.32" y1="830.08" x2="3344.12" y2="830.08" style="stroke:#F0F0F0;stroke-width:9.72"/>
	<line x1="3376.52" y1="830.08" x2="3387.15" y2="830.08" style="stroke:#F0F0F0;stroke-width:9.72"/>
	<line x1="557.72" y1="184.61" x2="622.52" y2="184.61" style="stroke:#F0F0F0;stroke-width:9.72"/>
	<line x1="654.92" y1="184.61" x2="719.72" y2="184.61" style="stroke:#F0F0F0;stroke-width:9.72"/>
	<line x1="752.12" y1="184.61" x2="816.92" y2="184.61" style="stroke:#F0F0F0;stroke-width:9.72"/>
	<line x1="849.32" y1="184.61" x2="914.12" y2="184.61" style="stroke:#F0F0F0;stroke-width:9.72"/>
	<line x1="946.52" y1="184.61" x2="1011.32" y2="184.61" style="stroke:#F0F0F0;stroke-width:9.72"/>
	<line x1="1043.72" y1="184.61" x2="1108.52" y2="184.61" style="stroke:#F0F0F0;stroke-width:9.72"/>
	<line x1="1140.92" y1="184.61" x2="1205.72" y2="184.61" style="stroke:#F0F0F0;stroke-width:9.72"/>
	<line x1="1238.12" y1="184.61" x2="1302.92" y2="184.61" style="stroke:#F0F0F0;stroke-width:9.72"/>
	<line x1="1335.32" y1="184.61" x2="1400.12" y2="184.61" style="stroke:#F0F0F0;stroke-width:9.72"/>
	<line x1="1432.52" y1="184.61" x2="1497.32" y2="184.61" style="stroke:#F0F0F0;stroke-width:9.72"/>
	<line x1="1529.72" y1="184.61" x2="1594.52" y2="184.61" style="stroke:#F0F0F0;stroke-width:9.72"/>
	<line x1="1626.92" y1="184.61" x2="1691.72" y2="184.61" style="stroke:#F0F0F0;stroke-width:9.72"/>
	<line x1="1724.12" y1="184.61" x2="1788.92" y2="184.61" style="stroke:#F0F0F0;stroke-width:9.72"/>
	<line x1="1821.32" y1="184.61" x2="1886.12" y2="184.61" style="stroke:#F0F0F0;stroke-width:9.72"/>
	<line x1="1918.52" y1="184.61" x2="1983.32" y2="184.61" style="stroke:#F0F0F0;stroke-width:9.72"/>
	<line x1="2015.72" y1="184.61" x2="2080.52" y2="184.61" style="stroke:#F0F0F0;stroke-width:9.72"/>
	<line x1="2112.92" y1="184.61" x2="2177.72" y2="184.61" style="stroke:#F0F0F0;stroke-width:9.72"/>
	<line x1="2210.12" y1="184.61" x2="2274.92" y2="184.61" style="stroke:#F0F0F0;stroke-width:9.72"/>
	<line x1="2307.32" y1="184.61" x2="2372.12" y2="184.61" style="stroke:#F0F0F0;stroke-width:9.72"/>
	<line x1="2404.52" y1="184.61" x2="2469.32" y2="184.61" style="stroke:#F0F0F0;stroke-width:9.72"/>
	<line x1="2501.72" y1="184.61" x2="2566.52" y2="184.61" style="stroke:#F0F0F0;stroke-width:9.72"/>
	<line x1="2598.92" y1="184.61" x2="2663.72" y2="184.61" style="stroke:#F0F0F0;stroke-width:9.72"/>
	<line x1="2696.12" y1="184.61" x2="2760.92" y2="184.61" style="stroke:#F0F0F0;stroke-width:9.72"/>
	<line x1="2793.32" y1="184.61" x2="2858.12" y2="184.61" style="stroke:#F0F0F0;stroke-width:9.72"/>
	<line x1="2890.52" y1="184.61" x2="2955.32" y2="184.61" style="stroke:#F0F0F0;stroke-width:9.72"/>
	<line x1="2987.72" y1="184.61" x2="3052.52" y2="184.61" style="stroke:#F0F0F0;stroke-width:9.72"/>
	<line x1="3084.92" y1="184.61" x2="3149.72" y2="184.61" style="stroke:#F0F0F0;stroke-width:9.72"/>
	<line x1="3182.12" y1="184.61" x2="3246.92" y2="184.61" style="stroke:#F0F0F0;stroke-width:9.72"/>
	<line x1="3279.32" y1="184.61" x2="3344.12" y2="184.61" style="stroke:#F0F0F0;stroke-width:9.72"/>
	<line x1="3376.52" y1="184.61" x2="3387.15" y2="184.61" style="stroke:#F0F0F0;stroke-width:9.72"/>
	<line x1="831.77" y1="2766.66" x2="831.77" y2="2701.86" style="stroke:#F0F0F0;stroke-width:9.72"/>
	<line x1="831.77" y1="2669.46" x2="831.77" y2="2604.66" style="stroke:#F0F0F0;stroke-width:9.72"/>
	<line x1="831.77" y1="2572.26" x2="831.77" y2="2507.46" style="stroke:#F0F0F0;stroke-width:9.72"/>
	<line x1="831.77" y1="2475.06" x2="831.77" y2="2410.26" style="stroke:#F0F0F0;stroke-width:9.72"/>
	<line x1="831.77" y1="2377.86" x2="831.77" y2="2313.06" style="stroke:#F0F0F0;stroke-width:9.72"/>
	<line x1="831.77" y1="2280.66" x2="831.77" y2="2215.86" style="stroke:#F0F0F0;stroke-width:9.72"/>
	<line x1="831.77" y1="2183.46" x2="831.77" y2="2118.66" style="stroke:#F0F0F0;stroke-width:9.72"/>
	<line x1="831.77" y1="2086.26" x2="831.77" y2="2021.46" style="stroke:#F0F0F0;stroke-width:9.72"/>
	<line x1="831.77" y1="1989.06" x2="831.77" y2="1924.26" style="stroke:#F0F0F0;stroke-width:9.72"/>
	<line x1="831.77" y1="1891.86" x2="831.77" y2="1827.06" style="stroke:#F0F0F0;stroke-width:9.72"/>
	<line x1="831.77" y1="1794.66" x2="831.77" y2="1729.86" style="stroke:#F0F0F0;stroke-width:9.72"/>
	<line x1="831.77" y1="1697.46" x2="831.77" y2="1632.66" style="stroke:#F0F0F0;stroke-width:9.72"/>
	<line x1="831.77" y1="1600.26" x2="831.77" y2="1535.46" style="stroke:#F0F0F0;stroke-width:9.72"/>
	<line x1="831.77" y1="1503.06" x2="831.77" y2="1438.26" style="stroke:#F0F0F0;stroke-width:9.72"/>
	<line x1="831.77" y1="1405.86" x2="831.77" y2="1341.06" style="stroke:#F0F0F0;stroke-width:9.72"/>
	<line x1="831.77" y1="1308.66" x2="831.77" y2="1243.86" style="stroke:#F0F0F0;stroke-width:9.72"/>
	<line x1="831.77" y1="1211.46" x2="831.77" y2="1146.66" style="stroke:#F0F0F0;stroke-width:9.72"/>
	<line x1="831.77" y1="1114.26" x2="831.77" y2="1049.46" style="stroke:#F0F0F0;stroke-width:9.72"/>
	<line x1="831.77" y1="1017.06" x2="831.77" y2="952.26" style="stroke:#F0F0F0;stroke-width:9.72"/>
	<line x1="831.77" y1="919.86" x2="831.77" y2="855.06" style="stroke:#F0F0F0;stroke-width:9.72"/>
	<line x1="831.77" y1="822.66" x2="831.77" y2="757.86" style="stroke:#F0F0F0;stroke-width:9.72"/>
	<line x1="831.77" y1="725.46" x2="831.77" y2="660.66" style="stroke:#F0F0F0;stroke-width:9.72"/>
	<line x1="831.77" y1="628.26" x2="831.77" y2="563.46" style="stroke:#F0F0F0;stroke-width:9.72"/>
	<line x1="831.77" y1="531.06" x2="831.77" y2="466.26" style="stroke:#F0F0F0;stroke-width:9.72"/>
	<line x1="831.77" y1="433.86" x2="831.77" y2="369.06" style="stroke:#F0F0F0;stroke-width:9.72"/>
	<line x1="831.77" y1="336.66" x2="831.77" y2="271.86" style="stroke:#F0F0F0;stroke-width:9.72"/>
	<line x1="831.77" y1="239.46" x2="831.77" y2="174.66" style="stroke:#F0F0F0;stroke-width:9.72"/>
	<line x1="831.77" y1="142.26" x2="831.77" y2="113.40" style="stroke:#F0F0F0;stroke-width:9.72"/>
	<line x1="1328.57" y1="2766.66" x2="1328.57" y2="2701.86" style="stroke:#F0F0F0;stroke-width:9.72"/>
	<line x1="1328.57" y1="2669.46" x2="1328.57" y2="2604.66" style="stroke:#F0F0F0;stroke-width:9.72"/>
	<line x1="1328.57" y1="2572.26" x2="1328.57" y2="2507.46" style="stroke:#F0F0F0;stroke-width:9.72"/>
	<line x1="1328.57" y1="2475.06" x2="1328.57" y2="2410.26" style="stroke:#F0F0F0;stroke-width:9.72"/>
	<line x1="1328.57" y1="2377.86" x2="1328.57" y2="2313.06" style="stroke:#F0F0F0;stroke-width:9.72"/>
	<line x1="1328.57" y1="2280.66" x2="1328.57" y2="2215.86" style="stroke:#F0F0F0;stroke-width:9.72"/>
	<line x1="1328.57" y1="2183.46" x2="1328.57" y2="2118.66" style="stroke:#F0F0F0;stroke-width:9.72"/>
	<line x1="1328.57" y1="2086.26" x2="1328.57" y2="2021.46" style="stroke:#F0F0F0;stroke-width:9.72"/>
	<line x1="1328.57" y1="1989.06" x2="1328.57" y2="1924.26" style="stroke:#F0F0F0;stroke-width:9.72"/>
	<line x1="1328.57" y1="1891.86" x2="1328.57" y2="1827.06" style="stroke:#F0F0F0;stroke-width:9.72"/>
	<line x1="1328.57" y1="1794.66" x2="1328.57" y2="1729.86" style="stroke:#F0F0F0;stroke-width:9.72"/>
	<line x1="1328.57" y1="1697.46" x2="1328.57" y2="1632.66" style="stroke:#F0F0F0;stroke-width:9.72"/>
	<line x1="1328.57" y1="1600.26" x2="1328.57" y2="1535.46" style="stroke:#F0F0F0;stroke-width:9.72"/>
	<line x1="1328.57" y1="1503.06" x2="1328.57" y2="1438.26" style="stroke:#F0F0F0;stroke-width:9.72"/>
	<line x1="1328.57" y1="1405.86" x2="1328.57" y2="1341.06" style="stroke:#F0F0F0;stroke-width:9.72"/>
	<line x1="1328.57" y1="1308.66" x2="1328.57" y2="1243.86" style="stroke:#F0F0F0;stroke-width:9.72"/>
	<line x1="1328.57" y1="1211.46" x2="1328.57" y2="1146.66" style="stroke:#F0F0F0;stroke-width:9.72"/>
	<line x1="1328.57" y1="1114.26" x2="1328.57" y2="1049.46" style="stroke:#F0F0F0;stroke-width:9.72"/>
	<line x1="1328.57" y1="1017.06" x2="1328.57" y2="952.26" style="stroke:#F0F0F0;stroke-width:9.72"/>
	<line x1="1328.57" y1="919.86" x2="1328.57" y2="855.06" style="stroke:#F0F0F0;stroke-width:9.72"/>
	<line x1="1328.57" y1="822.66" x2="1328.57" y2="757.86" style="stroke:#F0F0F0;stroke-width:9.72"/>
	<line x1="1328.57" y1="725.46" x2="1328.57" y2="660.66" style="stroke:#F0F0F0;stroke-width:9.72"/>
	<line x1="1328.57" y1="628.26" x2="1328.57" y2="563.46" style="stroke:#F0F0F0;stroke-width:9.72"/>
	<line x1="1328.57" y1="531.06" x2="1328.57" y2="466.26" style="stroke:#F0F0F0;stroke-width:9.72"/>
	<line x1="1328.57" y1="433.86" x2="1328.57" y2="369.06" style="stroke:#F0F0F0;stroke-width:9.72"/>
	<line x1="1328.57" y1="336.66" x2="1328.57" y2="271.86" style="stroke:#F0F0F0;stroke-width:9.72"/>
	<line x1="1328.57" y1="239.46" x2="1328.57" y2="174.66" style="stroke:#F0F0F0;stroke-width:9.72"/>
	<line x1="1328.57" y1="142.26" x2="1328.57" y2="113.40" style="stroke:#F0F0F0;stroke-width:9.72"/>
	<line x1="1825.37" y1="2766.66" x2="1825.37" y2="2701.86" style="stroke:#F0F0F0;stroke-width:9.72"/>
	<line x1="1825.37" y1="2669.46" x2="1825.37" y2="2604.66" style="stroke:#F0F0F0;stroke-width:9.72"/>
	<line x1="1825.37" y1="2572.26" x2="1825.37" y2="2507.46" style="stroke:#F0F0F0;stroke-width:9.72"/>
	<line x1="1825.37" y1="2475.06" x2="1825.37" y2="2410.26" style="stroke:#F0F0F0;stroke-width:9.72"/>
	<line x1="1825.37" y1="2377.86" x2="1825.37" y2="2313.06" style="stroke:#F0F0F0;stroke-width:9.72"/>
	<line x1="1825.37" y1="2280.66" x2="1825.37" y2="2215.86" style="stroke:#F0F0F0;stroke-width:9.72"/>
	<line x1="1825.37" y1="2183.46" x2="1825.37" y2="2118.66" style="stroke:#F0F0F0;stroke-width:9.72"/>
	<line x1="1825.37" y1="2086.26" x2="1825.37" y2="2021.46" style="stroke:#F0F0F0;stroke-width:9.72"/>
	<line x1="1825.37" y1="1989.06" x2="1825.37" y2="1924.26" style="stroke:#F0F0F0;stroke-width:9.72"/>
	<line x1="1825.37" y1="1891.86" x2="1825.37" y2="1827.06" style="stroke:#F0F0F0;stroke-width:9.72"/>
	<line x1="1825.37" y1="1794.66" x2="1825.37" y2="1729.86" style="stroke:#F0F0F0;stroke-width:9.72"/>
	<line x1="1825.37" y1="1697.46" x2="1825.37" y2="1632.66" style="stroke:#F0F0F0;stroke-width:9.72"/>
	<line x1="1825.37" y1="1600.26" x2="1825.37" y2="1535.46" style="stroke:#F0F0F0;stroke-width:9.72"/>
	<line x1="1825.37" y1="1503.06" x2="1825.37" y2="1438.26" style="stroke:#F0F0F0;stroke-width:9.72"/>
	<line x1="1825.37" y1="1405.86" x2="1825.37" y2="1341.06" style="stroke:#F0F0F0;stroke-width:9.72"/>
	<line x1="1825.37" y1="1308.66" x2="1825.37" y2="1243.86" style="stroke:#F0F0F0;stroke-width:9.72"/>
	<line x1="1825.37" y1="1211.46" x2="1825.37" y2="1146.66" style="stroke:#F0F0F0;stroke-width:9.72"/>
	<line x1="1825.37" y1="1114.26" x2="1825.37" y2="1049.46" style="stroke:#F0F0F0;stroke-width:9.72"/>
	<line x1="1825.37" y1="1017.06" x2="1825.37" y2="952.26" style="stroke:#F0F0F0;stroke-width:9.72"/>
	<line x1="1825.37" y1="919.86" x2="1825.37" y2="855.06" style="stroke:#F0F0F0;stroke-width:9.72"/>
	<line x1="1825.37" y1="822.66" x2="1825.37" y2="757.86" style="stroke:#F0F0F0;stroke-width:9.72"/>
	<line x1="1825.37" y1="725.46" x2="1825.37" y2="660.66" style="stroke:#F0F0F0;stroke-width:9.72"/>
	<line x1="1825.37" y1="628.26" x2="1825.37" y2="563.46" style="stroke:#F0F0F0;stroke-width:9.72"/>
	<line x1="1825.37" y1="531.06" x2="1825.37" y2="466.26" style="stroke:#F0F0F0;stroke-width:9.72"/>
	<line x1="1825.37" y1="433.86" x2="1825.37" y2="369.06" style="stroke:#F0F0F0;stroke-width:9.72"/>
	<line x1="1825.37" y1="336.66" x2="1825.37" y2="271.86" style="stroke:#F0F0F0;stroke-width:9.72"/>
	<line x1="1825.37" y1="239.46" x2="1825.37" y2="174.66" style="stroke:#F0F0F0;stroke-width:9.72"/>
	<line x1="1825.37" y1="142.26" x2="1825.37" y2="113.40" style="stroke:#F0F0F0;stroke-width:9.72"/>
	<line x1="2322.17" y1="2766.66" x2="2322.17" y2="2701.86" style="stroke:#F0F0F0;stroke-width:9.72"/>
	<line x1="2322.17" y1="2669.46" x2="2322.17" y2="2604.66" style="stroke:#F0F0F0;stroke-width:9.72"/>
	<line x1="2322.17" y1="2572.26" x2="2322.17" y2="2507.46" style="stroke:#F0F0F0;stroke-width:9.72"/>
	<line x1="2322.17" y1="2475.06" x2="2322.17" y2="2410.26" style="stroke:#F0F0F0;stroke-width:9.72"/>
	<line x1="2322.17" y1="2377.86" x2="2322.17" y2="2313.06" style="stroke:#F0F0F0;stroke-width:9.72"/>
	<line x1="2322.17" y1="2280.66" x2="2322.17" y2="2215.86" style="stroke:#F0F0F0;stroke-width:9.72"/>
	<line x1="2322.17" y1="2183.46" x2="2322.17" y2="2118.66" style="stroke:#F0F0F0;stroke-width:9.72"/>
	<line x1="2322.17" y1="2086.26" x2="2322.17" y2="2021.46" style="stroke:#F0F0F0;stroke-width:9.72"/>
	<line x1="2322.17" y1="1989.06" x2="2322.17" y2="1924.26" style="stroke:#F0F0F0;stroke-width:9.72"/>
	<line x1="2322.17" y1="1891.86" x2="2322.17" y2="1827.06" style="stroke:#F0F0F0;stroke-width:9.72"/>
	<line x1="2322.17" y1="1794.66" x2="2322.17" y2="1729.86" style="stroke:#F0F0F0;stroke-width:9.72"/>
	<line x1="2322.17" y1="1697.46" x2="2322.17" y2="1632.66" style="stroke:#F0F0F0;stroke-width:9.72"/>
	<line x1="2322.17" y1="1600.26" x2="2322.17" y2="1535.46" style="stroke:#F0F0F0;stroke-width:9.72"/>
	<line x1="2322.17" y1="1503.06" x2="2322.17" y2="1438.26" style="stroke:#F0F0F0;stroke-width:9.72"/>
	<line x1="2322.17" y1="1405.86" x2="2322.17" y2="1341.06" style="stroke:#F0F0F0;stroke-width:9.72"/>
	<line x1="2322.17" y1="1308.66" x2="2322.17" y2="1243.86" style="stroke:#F0F0F0;stroke-width:9.72"/>
	<line x1="2322.17" y1="1211.46" x2="2322.17" y2="1146.66" style="stroke:#F0F0F0;stroke-width:9.72"/>
	<line x1="2322.17" y1="1114.26" x2="2322.17" y2="1049.46" style="stroke:#F0F0F0;stroke-width:9.72"/>
	<line x1="2322.17" y1="1017.06" x2="2322.17" y2="952.26" style="stroke:#F0F0F0;stroke-width:9.72"/>
	<line x1="2322.17" y1="919.86" x2="2322.17" y2="855.06" style="stroke:#F0F0F0;stroke-width:9.72"/>
	<line x1="2322.17" y1="822.66" x2="2322.17" y2="757.86" style="stroke:#F0F0F0;stroke-width:9.72"/>
	<line x1="2322.17" y1="725.46" x2="2322.17" y2="660.66" style="stroke:#F0F0F0;stroke-width:9.72"/>
	<line x1="2322.17" y1="628.26" x2="2322.17" y2="563.46" style="stroke:#F0F0F0;stroke-width:9.72"/>
	<line x1="2322.17" y1="531.06" x2="2322.17" y2="466.26" style="stroke:#F0F0F0;stroke-width:9.72"/>
	<line x1="2322.17" y1="433.86" x2="2322.17" y2="369.06" style="stroke:#F0F0F0;stroke-width:9.72"/>
	<line x1="2322.17" y1="336.66" x2="2322.17" y2="271.86" style="stroke:#F0F0F0;stroke-width:9.72"/>
	<line x1="2322.17" y1="239.46" x2="2322.17" y2="174.66" style="stroke:#F0F0F0;stroke-width:9.72"/>
	<line x1="2322.17" y1="142.26" x2="2322.17" y2="113.40" style="stroke:#F0F0F0;stroke-width:9.72"/>
	<line x1="2818.97" y1="2766.66" x2="2818.97" y2="2701.86" style="stroke:#F0F0F0;stroke-width:9.72"/>
	<line x1="2818.97" y1="2669.46" x2="2818.97" y2="2604.66" style="stroke:#F0F0F0;stroke-width:9.72"/>
	<line x1="2818.97" y1="2572.26" x2="2818.97" y2="2507.46" style="stroke:#F0F0F0;stroke-width:9.72"/>
	<line x1="2818.97" y1="2475.06" x2="2818.97" y2="2410.26" style="stroke:#F0F0F0;stroke-width:9.72"/>
	<line x1="2818.97" y1="2377.86" x2="2818.97" y2="2313.06" style="stroke:#F0F0F0;stroke-width:9.72"/>
	<line x1="2818.97" y1="2280.66" x2="2818.97" y2="2215.86" style="stroke:#F0F0F0;stroke-width:9.72"/>
	<line x1="2818.97" y1="2183.46" x2="2818.97" y2="2118.66" style="stroke:#F0F0F0;stroke-width:9.72"/>
	<line x1="2818.97" y1="2086.26" x2="2818.97" y2="2021.46" style="stroke:#F0F0F0;stroke-width:9.72"/>
	<line x1="2818.97" y1="1989.06" x2="2818.97" y2="1924.26" style="stroke:#F0F0F0;stroke-width:9.72"/>
	<line x1="2818.97" y1="1891.86" x2="2818.97" y2="1827.06" style="stroke:#F0F0F0;stroke-width:9.72"/>
	<line x1="2818.97" y1="1794.66" x2="2818.97" y2="1729.86" style="stroke:#F0F0F0;stroke-width:9.72"/>
	<line x1="2818.97" y1="1697.46" x2="2818.97" y2="1632.66" style="stroke:#F0F0F0;stroke-width:9.72"/>
	<line x1="2818.97" y1="1600.26" x2="2818.97" y2="1535.46" style="stroke:#F0F0F0;stroke-width:9.72"/>
	<line x1="2818.97" y1="1503.06" x2="2818.97" y2="1438.26" style="stroke:#F0F0F0;stroke-width:9.72"/>
	<line x1="2818.97" y1="1405.86" x2="2818.97" y2="1341.06" style="stroke:#F0F0F0;stroke-width:9.72"/>
	<line x1="2818.97" y1="1308.66" x2="2818.97" y2="1243.86" style="stroke:#F0F0F0;stroke-width:9.72"/>
	<line x1="2818.97" y1="1211.46" x2="2818.97" y2="1146.66" style="stroke:#F0F0F0;stroke-width:9.72"/>
	<line x1="2818.97" y1="1114.26" x2="2818.97" y2="1049.46" style="stroke:#F0F0F0;stroke-width:9.72"/>
	<line x1="2818.97" y1="1017.06" x2="2818.97" y2="952.26" style="stroke:#F0F0F0;stroke-width:9.72"/>
	<line x1="2818.97" y1="919.86" x2="2818.97" y2="855.06" style="stroke:#F0F0F0;stroke-width:9.72"/>
	<line x1="2818.97" y1="822.66" x2="2818.97" y2="757.86" style="stroke:#F0F0F0;stroke-width:9.72"/>
	<line x1="2818.97" y1="725.46" x2="2818.97" y2="660.66" style="stroke:#F0F0F0;stroke-width:9.72"/>
	<line x1="2818.97" y1="628.26" x2="2818.97" y2="563.46" style="stroke:#F0F0F0;stroke-width:9.72"/>
	<line x1="2818.97" y1="531.06" x2="2818.97" y2="466.26" style="stroke:#F0F0F0;stroke-width:9.72"/>
	<line x1="2818.97" y1="433.86" x2="2818.97" y2="369.06" style="stroke:#F0F0F0;stroke-width:9.72"/>
	<line x1="2818.97" y1="336.66" x2="2818.97" y2="271.86" style="stroke:#F0F0F0;stroke-width:9.72"/>
	<line x1="2818.97" y1="239.46" x2="2818.97" y2="174.66" style="stroke:#F0F0F0;stroke-width:9.72"/>
	<line x1="2818.97" y1="142.26" x2="2818.97" y2="113.40" style="stroke:#F0F0F0;stroke-width:9.72"/>
	<line x1="3315.94" y1="2766.66" x2="3315.94" y2="2701.86" style="stroke:#F0F0F0;stroke-width:9.72"/>
	<line x1="3315.94" y1="2669.46" x2="3315.94" y2="2604.66" style="stroke:#F0F0F0;stroke-width:9.72"/>
	<line x1="3315.94" y1="2572.26" x2="3315.94" y2="2507.46" style="stroke:#F0F0F0;stroke-width:9.72"/>
	<line x1="3315.94" y1="2475.06" x2="3315.94" y2="2410.26" style="stroke:#F0F0F0;stroke-width:9.72"/>
	<line x1="3315.94" y1="2377.86" x2="3315.94" y2="2313.06" style="stroke:#F0F0F0;stroke-width:9.72"/>
	<line x1="3315.94" y1="2280.66" x2="3315.94" y2="2215.86" style="stroke:#F0F0F0;stroke-width:9.72"/>
	<line x1="3315.94" y1="2183.46" x2="3315.94" y2="2118.66" style="stroke:#F0F0F0;stroke-width:9.72"/>
	<line x1="3315.94" y1="2086.26" x2="3315.94" y2="2021.46" style="stroke:#F0F0F0;stroke-width:9.72"/>
	<line x1="3315.94" y1="1989.06" x2="3315.94" y2="1924.26" style="stroke:#F0F0F0;stroke-width:9.72"/>
	<line x1="3315.94" y1="1891.86" x2="3315.94" y2="1827.06" style="stroke:#F0F0F0;stroke-width:9.72"/>
	<line x1="3315.94" y1="1794.66" x2="3315.94" y2="1729.86" style="stroke:#F0F0F0;stroke-width:9.72"/>
	<line x1="3315.94" y1="1697.46" x2="3315.94" y2="1632.66" style="stroke:#F0F0F0;stroke-width:9.72"/>
	<line x1="3315.94" y1="1600.26" x2="3315.94" y2="1535.46" style="stroke:#F0F0F0;stroke-width:9.72"/>
	<line x1="3315.94" y1="1503.06" x2="3315.94" y2="1438.26" style="stroke:#F0F0F0;stroke-width:9.72"/>
	<line x1="3315.94" y1="1405.86" x2="3315.94" y2="1341.06" style="stroke:#F0F0F0;stroke-width:9.72"/>
	<line x1="3315.94" y1="1308.66" x2="3315.94" y2="1243.86" style="stroke:#F0F0F0;stroke-width:9.72"/>
	<line x1="3315.94" y1="1211.46" x2="3315.94" y2="1146.66" style="stroke:#F0F0F0;stroke-width:9.72"/>
	<line x1="3315.94" y1="1114.26" x2="3315.94" y2="1049.46" style="stroke:#F0F0F0;stroke-width:9.72"/>
	<line x1="3315.94" y1="1017.06" x2="3315.94" y2="952.26" style="stroke:#F0F0F0;stroke-width:9.72"/>
	<line x1="3315.94" y1="919.86" x2="3315.94" y2="855.06" style="stroke:#F0F0F0;stroke-width:9.72"/>
	<line x1="3315.94" y1="822.66" x2="3315.94" y2="757.86" style="stroke:#F0F0F0;stroke-width:9.72"/>
	<line x1="3315.94" y1="725.46" x2="3315.94" y2="660.66" style="stroke:#F0F0F0;stroke-width:9.72"/>
	<line x1="3315.94" y1="628.26" x2="3315.94" y2="563.46" style="stroke:#F0F0F0;stroke-width:9.72"/>
	<line x1="3315.94" y1="531.06" x2="3315.94" y2="466.26" style="stroke:#F0F0F0;stroke-width:9.72"/>
	<line x1="3315.94" y1="433.86" x2="3315.94" y2="369.06" style="stroke:#F0F0F0;stroke-width:9.72"/>
	<line x1="3315.94" y1="336.66" x2="3315.94" y2="271.86" style="stroke:#F0F0F0;stroke-width:9.72"/>
	<line x1="3315.94" y1="239.46" x2="3315.94" y2="174.66" style="stroke:#F0F0F0;stroke-width:9.72"/>
	<line x1="3315.94" y1="142.26" x2="3315.94" y2="113.40" style="stroke:#F0F0F0;stroke-width:9.72"/>
	<rect x="854.72" y="2292.98" width="451.41" height="473.68" style="fill:#FF8C19;fill-opacity:0.40"/>
	<rect x="857.15" y="2295.40" width="446.55" height="468.82" style="fill:none;stroke:#5FAAFF;stroke-width:4.86"/>
	<rect x="1306.13" y="1819.29" width="451.41" height="947.36" style="fill:#FF8C19;fill-opacity:0.40"/>
	<rect x="1308.56" y="1821.72" width="446.55" height="942.50" style="fill:none;stroke:#5FAAFF;stroke-width:4.86"/>
	<rect x="1757.53" y="1108.86" width="451.24" height="1657.80" style="fill:#FF8C19;fill-opacity:0.40"/>
	<rect x="1759.96" y="1111.29" width="446.38" height="1652.94" style="fill:none;stroke:#5FAAFF;stroke-width:4.86"/>
	<rect x="2208.77" y="1108.86" width="451.41" height="1657.80" style="fill:#FF8C19;fill-opacity:0.40"/>
	<rect x="2211.20" y="1111.29" width="446.55" height="1652.94" style="fill:none;stroke:#5FAAFF;stroke-width:4.86"/>
	<rect x="2660.18" y="398.42" width="451.41" height="2368.24" style="fill:#FF8C19;fill-opacity:0.40"/>
	<rect x="2662.61" y="400.85" width="446.55" height="2363.38" style="fill:none;stroke:#5FAAFF;stroke-width:4.86"/>
	<path d=" M854.72 2633.18 L862.14 2629.29 L869.74 2625.24 L877.33 2621.03 L884.76 2616.81 L892.35 2612.42 L899.94 2608.03 L907.54 2603.48 L914.96 2598.75 L922.56 2594.03 L930.15 2589.13 L937.74 2584.07 L945.17 2579.01 L952.76 2573.78 L960.36 2568.38 L967.95 2562.98 L975.38 2557.41 L982.97 2551.84 L990.56 2545.93 L997.99 2540.03 L1005.58 2533.95 L1013.18 2527.88 L1020.77 2521.63 L1028.19 2515.22 L1035.79 2508.64 L1043.38 2501.89 L1050.97 2495.14 L1058.40 2488.22 L1065.99 2481.13 L1073.59 2473.88 L1081.01 2466.62 L1088.61 2459.19 L1096.20 2451.60 L1103.79 2443.84 L1111.22 2435.91 L1118.81 2427.81 L1126.41 2419.71 L1134.00 2411.44 L1141.43 2403.00 L1149.02 2394.39 L1156.61 2385.62 L1164.04 2376.84 L1171.63 2367.73 L1179.22 2358.62 L1186.82 2349.34 L1194.24 2339.89 L1201.84 2330.27 L1209.43 2320.48 L1217.03 2310.53 L1224.45 2300.57 L1232.04 2290.28 L1239.64 2279.98 L1247.06 2269.52 L1254.66 2258.89 L1262.25 2248.09 L1269.84 2237.12 L1277.27 2226.15 L1284.86 2214.84 L1292.46 2203.54 L1300.05 2192.06 L1307.47 2180.25 L1315.07 2168.61 L1322.66 2156.63 L1330.26 2144.48 L1337.68 2132.32 L1345.28 2120.01 L1352.87 2107.52 L1360.29 2094.86 L1367.89 2082.04 L1375.48 2069.21 L1383.08 2056.05 L1390.50 2042.89 L1398.09 2029.73 L1405.69 2016.23 L1413.28 2002.73 L1420.71 1989.06 L1428.30 1975.22 L1435.89 1961.38 L1443.32 1947.38 L1450.91 1933.20 L1458.51 1918.86 L1466.10 1904.51 L1473.53 1890.00 L1481.12 1875.49 L1488.71 1860.81 L1496.31 1846.13 L1503.73 1831.11 L1511.33 1816.26 L1518.92 1801.24 L1526.34 1786.05 L1533.94 1770.86 L1541.53 1755.51 L1549.13 1740.15 L1556.55 1724.79 L1564.14 1709.27 L1571.74 1693.58 L1579.33 1678.05 L1586.76 1662.36 L1594.35 1646.49 L1601.94 1630.80 L1609.37 1614.94 L1616.96 1599.08 L1624.56 1583.21 L1632.15 1567.18 L1639.58 1551.32 L1647.17 1535.29 L1654.76 1519.26 L1662.36 1503.39 L1669.78 1487.36 L1677.38 1471.33 L1684.97 1455.30 L1692.56 1439.27 L1699.99 1423.24 L1707.58 1407.38 L1715.18 1391.34 L1722.60 1375.48 L1730.19 1359.62 L1737.79 1343.76 L1745.38 1328.06 L1752.81 1312.20 L1760.40 1296.51 L1767.99 1280.98 L1775.59 1265.46 L1783.01 1249.93 L1790.61 1234.58 L1798.20 1219.22 L1805.63 1204.03 L1813.22 1188.84 L1820.81 1173.82 L1828.41 1158.97 L1835.83 1144.13 L1843.43 1129.44 L1851.02 1114.76 L1858.61 1100.42 L1866.04 1086.07 L1873.63 1071.90 L1881.23 1057.89 L1888.65 1044.06 L1896.24 1030.39 L1903.84 1016.89 L1911.43 1003.56 L1918.86 990.22 L1926.45 977.23 L1934.04 964.41 L1941.64 951.75 L1949.06 939.43 L1956.66 927.11 L1964.25 915.13 L1971.68 903.32 L1979.27 891.68 L1986.86 880.37 L1994.46 869.23 L2001.88 858.26 L2009.48 847.46 L2017.07 837.17 L2024.66 826.88 L2032.09 816.92 L2039.68 807.30 L2047.28 797.85 L2054.87 788.57 L2062.29 779.79 L2069.89 771.02 L2077.48 762.75 L2084.91 754.65 L2092.50 746.89 L2100.09 739.29 L2107.69 732.04 L2115.11 725.12 L2122.71 718.54 L2130.30 712.13 L2137.89 706.05 L2145.32 700.31 L2152.91 694.91 L2160.51 689.85 L2167.93 684.96 L2175.53 680.57 L2183.12 676.35 L2190.71 672.47 L2198.14 668.93 L2205.73 665.72 L2213.32 662.85 L2220.92 660.15 L2228.34 657.96 L2235.94 656.10 L2243.53 654.41 L2250.96 653.23 L2258.55 652.22 L2266.14 651.71 L2273.74 651.38 L2281.16 651.38 L2288.76 651.71 L2296.35 652.56 L2303.94 653.57 L2311.37 654.92 L2318.96 656.61 L2326.56 658.63 L2333.98 660.99 L2341.57 663.69 L2349.17 666.56 L2356.76 669.94 L2364.19 673.65 L2371.78 677.53 L2379.38 681.75 L2386.97 686.47 L2394.39 691.37 L2401.99 696.43 L2409.58 702.00 L2417.18 707.91 L2424.60 713.98 L2432.19 720.39 L2439.79 727.14 L2447.21 734.23 L2454.81 741.49 L2462.40 749.08 L2469.99 757.01 L2477.42 765.11 L2485.01 773.55 L2492.61 782.32 L2500.20 791.27 L2507.63 800.55 L2515.22 810.00 L2522.81 819.79 L2530.24 829.91 L2537.83 840.21 L2545.43 850.67 L2553.02 861.47 L2560.44 872.44 L2568.04 883.57 L2575.63 895.05 L2583.23 906.69 L2590.65 918.68 L2598.24 930.66 L2605.84 942.97 L2613.26 955.46 L2620.86 968.29 L2628.45 981.11 L2636.04 994.11 L2643.47 1007.44 L2651.06 1020.77 L2658.66 1034.44 L2666.25 1048.11 L2673.68 1062.11 L2681.27 1076.12 L2688.86 1090.29 L2696.29 1104.64 L2703.88 1119.15 L2711.48 1133.66 L2719.07 1148.51 L2726.49 1163.36 L2734.09 1178.21 L2741.68 1193.23 L2749.28 1208.42 L2756.70 1223.78 L2764.29 1238.96 L2771.89 1254.49 L2779.48 1270.01 L2786.91 1285.54 L2794.50 1301.23 L2802.09 1316.93 L2809.52 1332.62 L2817.11 1348.48 L2824.71 1364.34 L2832.30 1380.21 L2839.73 1396.07 L2847.32 1412.10 L2854.91 1427.96 L2862.51 1443.99 L2869.93 1460.03 L2877.53 1476.06 L2885.12 1492.09 L2892.54 1508.12 L2900.14 1523.98 L2907.73 1540.01 L2915.33 1556.04 L2922.75 1571.91 L2930.34 1587.94 L2937.94 1603.80 L2945.53 1619.66 L2952.96 1635.53 L2960.55 1651.22 L2968.14 1666.91 L2975.57 1682.61 L2983.16 1698.30 L2990.76 1713.83 L2998.35 1729.35 L3005.78 1744.71 L3013.37 1760.06 L3020.96 1775.25 L3028.56 1790.44 L3035.98 1805.63 L3043.58 1820.64 L3051.17 1835.49 L3058.59 1850.34 L3066.19 1865.19 L3073.78 1879.88 L3081.38 1894.39 L3088.80 1908.73 L3096.39 1923.08 L3103.99 1937.42 L3111.58 1951.43" stroke-linejoin="round" style="fill:none;stroke:#000000;stroke-width:9.72"/>
	<rect x="1119.49" y="1792.97" width="439.09" height="973.69" style="fill:#198DFF;fill-opacity:0.50"/>
	<rect x="1121.92" y="1795.40" width="434.23" height="968.83" style="fill:none;stroke:#5FAAFF;stroke-width:4.86"/>
	<rect x="1558.58" y="819.28" width="439.09" height="1947.38" style="fill:#198DFF;fill-opacity:0.50"/>
	<rect x="1561.01" y="821.71" width="434.23" height="1942.52" style="fill:none;stroke:#5FAAFF;stroke-width:4.86"/>
	<rect x="1997.66" y="575.94" width="439.26" height="2190.71" style="fill:#198DFF;fill-opacity:0.50"/>
	<rect x="2000.09" y="578.37" width="434.40" height="2185.85" style="fill:none;stroke:#5FAAFF;stroke-width:4.86"/>
	<rect x="2436.92" y="1549.46" width="439.09" height="1217.19" style="fill:#198DFF;fill-opacity:0.50"/>
	<rect x="2439.35" y="1551.89" width="434.23" height="1212.33" style="fill:none;stroke:#5FAAFF;stroke-width:4.86"/>
	<rect x="2876.01" y="1792.97" width="439.09" height="973.69" style="fill:#198DFF;fill-opacity:0.50"/>
	<rect x="2878.44" y="1795.40" width="434.23" height="968.83" style="fill:none;stroke:#5FAAFF;stroke-width:4.86"/>
	<line x1="557.72" y1="2766.66" x2="557.72" y2="113.40" style="stroke:#000000;stroke-width:6.48"/>
	<line x1="557.72" y1="2766.66" x2="512.83" y2="2766.66" style="stroke:#000000;stroke-width:6.48"/>
	<text x="490.22" y="2806.09" style="font-family:'Helvetica';font-size:112.56px;fill:#000000" text-anchor="end">0</text>
	<line x1="557.72" y1="2121.19" x2="512.83" y2="2121.19" style="stroke:#000000;stroke-width:6.48"/>
	<text x="490.22" y="2160.62" style="font-family:'Helvetica';font-size:112.56px;fill:#000000" text-anchor="end">.01</text>
	<line x1="557.72" y1="1475.72" x2="512.83" y2="1475.72" style="stroke:#000000;stroke-width:6.48"/>
	<text x="490.22" y="1515.16" style="font-family:'Helvetica';font-size:112.56px;fill:#000000" text-anchor="end">.02</text>
	<line x1="557.72" y1="830.08" x2="512.83" y2="830.08" style="stroke:#000000;stroke-width:6.48"/>
	<text x="490.22" y="869.52" style="font-family:'Helvetica';font-size:112.56px;fill:#000000" text-anchor="end">.03</text>
	<line x1="557.72" y1="184.61" x2="512.83" y2="184.61" style="stroke:#000000;stroke-width:6.48"/>
	<text x="490.22" y="224.05" style="font-family:'Helvetica';font-size:112.56px;fill:#000000" text-anchor="end">.04</text>
	<text x="214.55" y="1439.94" style="font-family:'Helvetica';font-size:112.56px;fill:#000000" transform="rotate(-90 214.55,1439.94)" text-anchor="middle">Density</text>
	<line x1="557.72" y1="2766.66" x2="3387.15" y2="2766.66" style="stroke:#000000;stroke-width:6.48"/>
	<line x1="831.77" y1="2766.66" x2="831.77" y2="2811.54" style="stroke:#000000;stroke-width:6.48"/>
	<text x="831.77" y="2912.86" style="font-family:'Helvetica';font-size:112.56px;fill:#000000" text-anchor="middle">30</text>
	<line x1="1328.57" y1="2766.66" x2="1328.57" y2="2811.54" style="stroke:#000000;stroke-width:6.48"/>
	<text x="1328.57" y="2912.86" style="font-family:'Helvetica';font-size:112.56px;fill:#000000" text-anchor="middle">40</text>
	<line x1="1825.37" y1="2766.66" x2="1825.37" y2="2811.54" style="stroke:#000000;stroke-width:6.48"/>
	<text x="1825.37" y="2912.86" style="font-family:'Helvetica';font-size:112.56px;fill:#000000" text-anchor="middle">50</text>
	<line x1="2322.17" y1="2766.66" x2="2322.17" y2="2811.54" style="stroke:#000000;stroke-width:6.48"/>
	<text x="2322.17" y="2912.86" style="font-family:'Helvetica';font-size:112.56px;fill:#000000" text-anchor="middle">60</text>
	<line x1="2818.97" y1="2766.66" x2="2818.97" y2="2811.54" style="stroke:#000000;stroke-width:6.48"/>
	<text x="2818.97" y="2912.86" style="font-family:'Helvetica';font-size:112.56px;fill:#000000" text-anchor="middle">70</text>
	<line x1="3315.94" y1="2766.66" x2="3315.94" y2="2811.54" style="stroke:#000000;stroke-width:6.48"/>
	<text x="3315.94" y="2912.86" style="font-family:'Helvetica';font-size:112.56px;fill:#000000" text-anchor="middle">80</text>
	<text x="1972.52" y="3070.31" style="font-family:'Helvetica';font-size:112.56px;fill:#000000" text-anchor="middle">age</text>
	<rect x="3425.96" y="1177.71" width="1821.83" height="524.64" style="fill:#FFFFFF"/>
	<rect x="3429.20" y="1180.95" width="1815.35" height="518.16" style="fill:none;stroke:#FFFFFF;stroke-width:6.48"/>
	<rect x="3474.56" y="1226.31" width="259.20" height="112.39" style="fill:#FF8C19;fill-opacity:0.40"/>
	<rect x="3476.99" y="1228.74" width="254.34" height="107.53" style="fill:none;stroke:#5FAAFF;stroke-width:4.86"/>
	<line x1="3474.56" y1="1439.94" x2="3733.76" y2="1439.94" style="stroke:#000000;stroke-width:9.72"/>
	<rect x="3474.56" y="1541.19" width="259.20" height="112.56" style="fill:#198DFF;fill-opacity:0.50"/>
	<rect x="3476.99" y="1543.62" width="254.34" height="107.70" style="fill:none;stroke:#5FAAFF;stroke-width:4.86"/>
	<text x="3801.26" y="1321.94" style="font-family:'Helvetica';font-size:112.56px;fill:#000000">Sampled from Normal</text>
	<text x="3801.26" y="1479.38" style="font-family:'Helvetica';font-size:112.56px;fill:#000000">Theoretical Normal</text>
	<text x="3801.26" y="1636.99" style="font-family:'Helvetica';font-size:112.56px;fill:#000000">Sampled from t-distribution</text>
</svg>
